<svg width="16" height="16" viewBox="0 0 16 16" xmlns="http://www.w3.org/2000/svg">
<path fill-rule="evenodd" clip-rule="evenodd" d="M12.6672 9.33367C12.6672 9.48434 12.6165 9.63567 12.5125 9.76034C12.2772 10.043 11.8565 10.081 11.5739 9.84567L7.9932 6.86167L4.41854 9.73834C4.13187 9.969 3.71187 9.92367 3.4812 9.637C3.25054 9.34967 3.29587 8.93034 3.58254 8.699L7.58254 5.48034C7.82987 5.28167 8.1832 5.28434 8.4272 5.48767L12.4272 8.821C12.5852 8.953 12.6672 9.14234 12.6672 9.33367Z" />
<path fill-rule="evenodd" clip-rule="evenodd" d="M12.6672 9.33367C12.6672 9.48434 12.6165 9.63567 12.5125 9.76034C12.2772 10.043 11.8565 10.081 11.5739 9.84567L7.9932 6.86167L4.41854 9.73834C4.13187 9.969 3.71187 9.92367 3.4812 9.637C3.25054 9.34967 3.29587 8.93034 3.58254 8.699L7.58254 5.48034C7.82987 5.28167 8.1832 5.28434 8.4272 5.48767L12.4272 8.821C12.5852 8.953 12.6672 9.14234 12.6672 9.33367Z" />
</svg>
