<svg width="24" height="24" viewBox="0 0 24 24" xmlns="http://www.w3.org/2000/svg">
<path fill-rule="evenodd" clip-rule="evenodd" d="M12.4997 14H9.4997C8.9477 14 8.4997 13.552 8.4997 13C8.4997 12.448 8.9477 12 9.4997 12H12.4997C13.0517 12 13.4997 12.448 13.4997 13C13.4997 13.552 13.0517 14 12.4997 14ZM8.4997 17C8.4997 16.448 8.9477 16 9.4997 16H15.4997C16.0527 16 16.4997 16.448 16.4997 17C16.4997 17.552 16.0527 18 15.4997 18H9.4997C8.9477 18 8.4997 17.552 8.4997 17ZM17.944 20H7.055C6.749 20 6.5 19.776 6.5 19.5V4.5C6.5 4.224 6.749 4 7.055 4H12.5V7.15C12.5 8.722 13.717 10 15.214 10H18.5V19.5C18.5 19.776 18.251 20 17.944 20ZM14.5 4.978L17.242 8H15.214C14.82 8 14.5 7.619 14.5 7.15V4.978ZM20.24 8.328L14.796 2.328C14.606 2.119 14.338 2 14.055 2H7.055C5.646 2 4.5 3.122 4.5 4.5V19.5C4.5 20.878 5.646 22 7.055 22H17.944C19.353 22 20.5 20.878 20.5 19.5V9C20.5 8.751 20.407 8.512 20.24 8.328Z"/>
</svg>
