<svg width="24" height="24" viewBox="0 0 24 24" fill="none" xmlns="http://www.w3.org/2000/svg">
<path fill-rule="evenodd" clip-rule="evenodd" d="M11.295 20.706C11.482 20.895 11.737 21 12.002 21C12.268 21 12.522 20.895 12.71 20.707L20.478 12.926C22.514 10.886 22.514 7.567 20.477 5.527C19.494 4.543 18.181 4 16.783 4C15.383 4 14.071 4.543 13.087 5.528L12.002 6.614L10.917 5.527C9.934 4.543 8.621 4 7.222 4C5.823 4 4.511 4.543 3.527 5.527C1.491 7.567 1.491 10.886 3.527 12.926L11.295 20.706Z" fill="#00A5BD"/>
</svg>
