<svg width="20" height="20" viewBox="0 0 20 20" fill="none" xmlns="http://www.w3.org/2000/svg">
<path fill-rule="evenodd" clip-rule="evenodd" d="M10 18C14.4183 18 18 14.4183 18 10C18 5.58172 14.4183 2 10 2C5.58172 2 2 5.58172 2 10C2 14.4183 5.58172 18 10 18ZM10 6C9.44772 6 9 6.44772 9 7C9 7.55228 9.44772 8 10 8C10.5523 8 11 7.55228 11 7C11 6.44772 10.5523 6 10 6ZM10 14C10.5523 14 11 13.5523 11 13V10C11 9.44772 10.5523 9 10 9C9.44772 9 9 9.44771 9 10L9 13C9 13.5523 9.44772 14 10 14Z" fill="#00B16F"/>
</svg>
