<svg width="20" height="20" viewBox="0 0 20 20" fill="none" xmlns="http://www.w3.org/2000/svg">
<path fill-rule="evenodd" clip-rule="evenodd" d="M9.9975 0H10.0025C15.5162 0 20 4.48625 20 10C20 15.5137 15.5162 20 10.0025 20C7.96875 20 6.0825 19.395 4.50125 18.3475L0.6575 19.5763L1.90375 15.8613C0.705 14.215 0 12.1875 0 10C0 4.485 4.48375 0 9.9975 0ZM13.8587 15.5323C14.6225 15.3673 15.58 14.8023 15.8212 14.1211C16.0625 13.4386 16.0625 12.8573 15.9925 12.7336C15.9359 12.6354 15.8023 12.5711 15.6027 12.475C15.5508 12.45 15.4944 12.4228 15.4337 12.3923C15.14 12.2461 13.7112 11.5398 13.4412 11.4461C13.1762 11.3461 12.9237 11.3811 12.7237 11.6636C12.6857 11.7169 12.6477 11.7702 12.61 11.8233C12.3687 12.1627 12.1359 12.49 11.9425 12.6986C11.7662 12.8861 11.4787 12.9098 11.2375 12.8098C11.2112 12.7989 11.181 12.7867 11.1472 12.7731C10.7653 12.6188 9.91803 12.2766 8.89246 11.3636C8.02746 10.5936 7.43996 9.63485 7.26996 9.34735C7.10305 9.05894 7.24702 8.88982 7.38008 8.73352C7.38254 8.73062 7.385 8.72773 7.38746 8.72485C7.47325 8.6187 7.5565 8.53031 7.64016 8.44149C7.70035 8.37759 7.76075 8.31347 7.82246 8.24235C7.83162 8.23178 7.84054 8.22153 7.84922 8.21155C7.98025 8.06089 8.05828 7.97117 8.14621 7.7836C8.24621 7.58985 8.17496 7.38985 8.10371 7.24235C8.05469 7.13905 7.75188 6.40435 7.49192 5.77362C7.38067 5.50369 7.27726 5.2528 7.20496 5.0786C7.01121 4.61485 6.86371 4.59735 6.56996 4.58485C6.56096 4.5844 6.55187 4.58394 6.54268 4.58347C6.44983 4.57877 6.34757 4.5736 6.23496 4.5736C5.85246 4.5736 5.45371 4.6861 5.21246 4.93235C5.20403 4.94096 5.19524 4.94989 5.18612 4.95917C4.87748 5.27306 4.18996 5.97228 4.18996 7.3661C4.18996 8.7626 5.18083 10.1141 5.36417 10.3642C5.36923 10.3711 5.37367 10.3771 5.37746 10.3823C5.38849 10.3968 5.40928 10.4269 5.43954 10.4708C5.8139 11.0129 7.63725 13.6534 10.3562 14.7798C12.6537 15.7323 13.3362 15.6436 13.8587 15.5323Z" fill="#00B16F"/>
</svg>
