<svg width="16" height="16" viewBox="0 0 16 16" fill="none" xmlns="http://www.w3.org/2000/svg">
<path d="M8.22656 0.5C4.08656 0.5 0.726562 3.86 0.726562 8C0.726562 12.14 4.08656 15.5 8.22656 15.5C12.3666 15.5 15.7266 12.14 15.7266 8C15.7266 3.86 12.3666 0.5 8.22656 0.5ZM8.22656 14C4.91906 14 2.22656 11.3075 2.22656 8C2.22656 4.6925 4.91906 2 8.22656 2C11.5341 2 14.2266 4.6925 14.2266 8C14.2266 11.3075 11.5341 14 8.22656 14ZM11.6691 4.685L6.72656 9.6275L4.78406 7.6925L3.72656 8.75L6.72656 11.75L12.7266 5.75L11.6691 4.685Z" fill="#00B16F"/>
</svg>
