<svg width="17" height="16" viewBox="0 0 17 16" fill="none" xmlns="http://www.w3.org/2000/svg">
<path fill-rule="evenodd" clip-rule="evenodd" d="M8.5 16C12.9183 16 16.5 12.4183 16.5 8C16.5 3.58172 12.9183 0 8.5 0C4.08172 0 0.5 3.58172 0.5 8C0.5 12.4183 4.08172 16 8.5 16ZM11.6619 4.97021C11.8138 4.82475 12.06 4.82475 12.2119 4.97021L12.8305 5.56277C12.9035 5.63263 12.9444 5.72737 12.9444 5.82615C12.9444 5.92494 12.9035 6.01968 12.8305 6.08953L7.52751 11.1687C7.45458 11.2385 7.35567 11.2778 7.25253 11.2778C7.14939 11.2778 7.05047 11.2385 6.97754 11.1687L4.50279 8.79841C4.42986 8.72856 4.38889 8.63382 4.38889 8.53503C4.38889 8.43625 4.42986 8.34151 4.50279 8.27166L5.12148 7.67909C5.27335 7.53363 5.51958 7.53363 5.67145 7.67909L7.25253 9.19342L11.6619 4.97021Z" fill="#00B16F"/>
</svg>
