<svg width="35" height="35" viewBox="0 0 35 35" fill="none" xmlns="http://www.w3.org/2000/svg">
<path fill-rule="evenodd" clip-rule="evenodd" d="M20.2523 2.74768C23.4267 -0.426678 28.5733 -0.426676 31.7477 2.74768C34.922 5.92204 34.922 11.0687 31.7477 14.243L26.7071 19.2836C26.3166 19.6741 25.6834 19.6741 25.2929 19.2836C24.9024 18.8931 24.9024 18.2599 25.2929 17.8694L30.3335 12.8288C32.7268 10.4355 32.7268 6.5552 30.3335 4.16189C27.9402 1.76859 24.0598 1.76858 21.6665 4.16189L16.626 9.20246C16.2354 9.59299 15.6023 9.59299 15.2117 9.20246C14.8212 8.81194 14.8212 8.17878 15.2117 7.78825L20.2523 2.74768ZM2.61081 20.3902C-0.563549 23.5645 -0.563546 28.7112 2.61081 31.8855C5.78517 35.0599 10.9318 35.0599 14.1062 31.8855L19.1467 26.845C19.5373 26.4544 19.5373 25.8213 19.1467 25.4307C18.7562 25.0402 18.1231 25.0402 17.7325 25.4307L12.692 30.4713C10.2986 32.8646 6.41833 32.8646 4.02502 30.4713C1.63172 28.078 1.63171 24.1977 4.02502 21.8044L9.06559 16.7638C9.45612 16.3733 9.45612 15.7401 9.06559 15.3496C8.67507 14.9591 8.04191 14.9591 7.65138 15.3496L2.61081 20.3902ZM22.5059 13.4031C22.8965 13.0125 22.8965 12.3794 22.5059 11.9888C22.1154 11.5983 21.4822 11.5983 21.0917 11.9888L11.8507 21.2299C11.4601 21.6204 11.4601 22.2536 11.8507 22.6441C12.2412 23.0346 12.8744 23.0346 13.2649 22.6441L22.5059 13.4031Z" fill="#5D6475"/>
</svg>
