<svg width="30" height="37" viewBox="0 0 30 37" fill="none" xmlns="http://www.w3.org/2000/svg">
<path fill-rule="evenodd" clip-rule="evenodd" d="M8.36291 1.32414C9.12148 0.481286 10.2021 0 11.3361 0H26C28.2091 0 30 1.79086 30 4V33C30 35.2091 28.2091 37 26 37H4C1.79086 37 0 35.2091 0 33V12.1512C0 11.163 0.365774 10.2098 1.02682 9.47535L8.36291 1.32414ZM11.3361 2C11.2226 2 11.1102 2.00964 11 2.02843V8C11 10.2091 9.20914 12 7 12H2.00572C2.00192 12.0502 2 12.1006 2 12.1512V33C2 34.1046 2.89543 35 4 35H26C27.1046 35 28 34.1046 28 33V4C28 2.89543 27.1046 2 26 2H11.3361ZM3.24536 10L9 3.60596V8C9 9.10457 8.10457 10 7 10H3.24536ZM8.90643 28.9977C8.90643 29.2242 8.78447 29.3462 8.55797 29.3462H7.47773C7.25122 29.3462 7.12926 29.2242 7.12926 28.9977V24.7116L5.02105 16.3833C4.95136 16.122 5.0559 16 5.31724 16H6.39749C6.58914 16 6.72853 16.1045 6.7808 16.3136L8.01785 22.0459L9.28974 16.3136C9.34201 16.1045 9.4814 16 9.67305 16H10.7533C11.0146 16 11.1192 16.122 11.0495 16.3833L8.90643 24.6942V28.9977ZM20.1157 28.9977C20.1157 29.2242 19.9938 29.3462 19.7673 29.3462H18.687C18.4605 29.3462 18.3386 29.2242 18.3386 28.9977L18.3734 19.3627L16.6137 29.0326C16.5788 29.2417 16.4568 29.3462 16.2478 29.3462H15.2721C15.063 29.3462 14.941 29.2417 14.9062 29.0326L13.1464 19.3801L13.1813 28.9977C13.1813 29.2242 13.0593 29.3462 12.8328 29.3462H11.7526C11.5261 29.3462 11.4041 29.2242 11.4041 28.9977V16.3485C11.4041 16.122 11.5261 16 11.7526 16H13.9479C14.1744 16 14.2964 16.1045 14.3312 16.3136L15.7599 25.304L17.1886 16.3136C17.2235 16.1045 17.3454 16 17.5719 16H19.7673C19.9938 16 20.1157 16.122 20.1157 16.3485V28.9977ZM25.4134 28.9977C25.4134 29.2242 25.2915 29.3462 25.065 29.3462H21.8591C21.6326 29.3462 21.5106 29.2242 21.5106 28.9977V16.3485C21.5106 16.122 21.6326 16 21.8591 16H22.9393C23.1658 16 23.2878 16.122 23.2878 16.3485V27.6561H25.065C25.2915 27.6561 25.4134 27.7781 25.4134 28.0046V28.9977Z" fill="#5D6475"/>
</svg>
