<svg width="56" height="56" viewBox="0 0 56 56" fill="none" xmlns="http://www.w3.org/2000/svg">
<path fill-rule="evenodd" clip-rule="evenodd" d="M41.351 14.351C38.3957 11.3957 33.6043 11.3957 30.649 14.351L26.6729 18.3271C27.7366 18.2869 28.8054 18.4103 29.8382 18.6973L32.4168 16.1188C34.3957 14.1398 37.6043 14.1398 39.5832 16.1188C41.5622 18.0977 41.5622 21.3062 39.5832 23.2852L32.138 30.7304C30.1591 32.7093 26.9506 32.7093 24.9716 30.7304C24.4834 30.2422 23.692 30.2422 23.2038 30.7304C22.7157 31.2185 22.7157 32.01 23.2038 32.4981C26.1591 35.4534 30.9505 35.4534 33.9058 32.4981L41.351 25.053C44.3063 22.0977 44.3063 17.3063 41.351 14.351Z" fill="#3B82F3"/>
<path fill-rule="evenodd" clip-rule="evenodd" d="M14.2696 41.4334C17.2249 44.3887 22.0163 44.3887 24.9716 41.4334L28.9478 37.4573C27.884 37.4976 26.8152 37.3742 25.7824 37.0871L23.2038 39.6657C21.2249 41.6446 18.0163 41.6446 16.0374 39.6657C14.0584 37.6867 14.0584 34.4782 16.0374 32.4992L23.4826 25.054C25.4615 23.0751 28.67 23.0751 30.649 25.054C31.1372 25.5422 31.9286 25.5422 32.4168 25.054C32.9049 24.5659 32.9049 23.7744 32.4168 23.2863C29.4615 20.331 24.6701 20.331 21.7148 23.2863L14.2696 30.7315C11.3143 33.6867 11.3143 38.4782 14.2696 41.4334Z" fill="#3B82F3"/>
</svg>
