<svg width="56" height="56" viewBox="0 0 56 56" fill="none" xmlns="http://www.w3.org/2000/svg">
<path fill-rule="evenodd" clip-rule="evenodd" d="M21.3629 10.3241C22.1215 9.48129 23.2021 9 24.3361 9H39C41.2091 9 43 10.7909 43 13V42C43 44.2091 41.2091 46 39 46H17C14.7909 46 13 44.2091 13 42V21.1512C13 20.163 13.3658 19.2098 14.0268 18.4753L21.3629 10.3241ZM24.3361 11C24.2226 11 24.1102 11.0096 24 11.0284V17C24 19.2091 22.2091 21 20 21H15.0057C15.0019 21.0502 15 21.1006 15 21.1512V42C15 43.1046 15.8954 44 17 44H39C40.1046 44 41 43.1046 41 42V13C41 11.8954 40.1046 11 39 11H24.3361ZM16.2454 19L22 12.606V17C22 18.1046 21.1046 19 20 19H16.2454ZM25.6065 38.3636C25.6949 38.6288 25.5888 38.7702 25.306 38.7702H24.2454C24.0156 38.7702 23.8918 38.6641 23.8388 38.4697L22.4423 33.6439L20.8691 38.4874C20.8161 38.6818 20.6923 38.7702 20.4802 38.7702H19.4019C19.1191 38.7702 19.0307 38.6288 19.1191 38.3636L21.3994 31.8056L19.2252 25.6364C19.1368 25.3712 19.2252 25.2298 19.508 25.2298H20.6039C20.8161 25.2298 20.9398 25.3182 20.9928 25.5126L22.4423 29.8965L23.7858 25.5303C23.8388 25.3359 23.9625 25.2298 24.1746 25.2298H25.2706C25.5534 25.2298 25.6595 25.3712 25.5711 25.6364L23.609 31.8232L25.6065 38.3636ZM30.6558 38.4167C30.6558 38.6465 30.532 38.7702 30.3022 38.7702H27.0497C26.8199 38.7702 26.6962 38.6465 26.6962 38.4167V25.5833C26.6962 25.3535 26.8199 25.2298 27.0497 25.2298H28.1457C28.3755 25.2298 28.4992 25.3535 28.4992 25.5833V37.0556H30.3022C30.532 37.0556 30.6558 37.1793 30.6558 37.4091V38.4167ZM34.5093 31.3077C35.583 32.1025 36.851 33.041 36.851 34.4571V36.1717C36.851 38.0631 35.7727 39 34.058 39C32.3434 39 31.2651 38.0278 31.2651 36.1717V34.5985C31.2651 34.3687 31.3889 34.2449 31.6186 34.2449H32.7146C32.9444 34.2449 33.0681 34.3687 33.0681 34.5985V35.9419C33.0681 37.7449 35.0479 37.7449 35.0479 35.9419V34.8283C35.0479 34.2803 34.4646 33.6616 33.7045 33.0429L33.6679 33.0124C32.6125 32.1331 31.2651 31.0106 31.2651 29.5253V27.8283C31.2651 25.9369 32.4318 25 34.058 25C35.9141 25 36.851 25.9369 36.851 27.8283V29.596C36.851 29.8258 36.7272 29.9495 36.4974 29.9495H35.4015C35.1717 29.9495 35.0479 29.8258 35.0479 29.596V28.0581C35.0479 26.2551 33.0681 26.2551 33.0681 28.0581V29.1894C33.0681 29.9495 33.6692 30.6389 34.3939 31.2222C34.4321 31.2505 34.4706 31.279 34.5093 31.3077Z" fill="#3B82F3"/>
</svg>
