<svg width="56" height="56" viewBox="0 0 56 56" fill="none" xmlns="http://www.w3.org/2000/svg">
<path d="M34.0841 27.4367V19.0298M34.0841 19.0298V15.8627C34.0841 15.1761 33.8248 14.5168 33.3641 14.0312C32.9028 13.5456 32.278 13.2722 31.6264 13.2722H31.6251C30.9736 13.2722 30.3481 13.5456 29.8874 14.0312C29.4268 14.5168 29.1674 15.1761 29.1674 15.8627M34.0841 19.0298C34.0841 18.3432 34.3427 17.6839 34.804 17.1982C35.2647 16.7126 35.8902 16.4392 36.5424 16.4392C37.1946 16.4392 37.8194 16.7126 38.28 17.1982C38.7413 17.6839 39 18.3432 39 19.0298L39 28.5M29.1674 15.8627V27.4367M29.1674 15.8627V13.5906C29.1674 12.9039 28.9088 12.2446 28.4475 11.759C27.9868 11.2734 27.3614 11 26.7098 11C26.0576 11 25.4321 11.2734 24.9708 11.759C24.5102 12.2446 24.2515 12.9039 24.2515 13.5906V17.9227M24.2515 17.9227V27.4367M24.2515 17.9227C24.2515 17.236 23.9922 16.5767 23.5315 16.0911C23.0702 15.6055 22.4454 15.3321 21.7932 15.3321C21.1416 15.3321 20.5155 15.6055 20.0549 16.0911C19.5936 16.5767 19.3349 17.236 19.3349 17.9227V34.805L14.5225 31.7095C13.4755 31.0365 12.1639 31.0148 11.0973 31.6532L9 32.9091C9 32.9091 16.6238 40.1148 20.1011 43.4008C21.1905 44.4308 22.6024 45 24.0658 45H32M39 33.5V39M39 39V44.5M39 39H44.5M39 39H33.5" stroke="#3B82F3" stroke-width="2" stroke-miterlimit="1.5" stroke-linecap="round" stroke-linejoin="round"/>
</svg>
