<svg width="25" height="24" viewBox="0 0 25 24" fill="none" xmlns="http://www.w3.org/2000/svg">
<path d="M21.6366 11.58L12.6366 2.58C12.2766 2.22 11.7766 2 11.2266 2H4.22656C3.12656 2 2.22656 2.9 2.22656 4V11C2.22656 11.55 2.44656 12.05 2.81656 12.42L11.8166 21.42C12.1766 21.78 12.6766 22 13.2266 22C13.7766 22 14.2766 21.78 14.6366 21.41L21.6366 14.41C22.0066 14.05 22.2266 13.55 22.2266 13C22.2266 12.45 21.9966 11.94 21.6366 11.58ZM13.2266 20.01L4.22656 11V4H11.2266V3.99L20.2266 12.99L13.2266 20.01Z" fill="#00B16F"/>
<path d="M6.72656 8C7.55499 8 8.22656 7.32843 8.22656 6.5C8.22656 5.67157 7.55499 5 6.72656 5C5.89814 5 5.22656 5.67157 5.22656 6.5C5.22656 7.32843 5.89814 8 6.72656 8Z" fill="#00B16F"/>
</svg>
