<svg width="16" height="16" viewBox="0 0 16 16" fill="none" xmlns="http://www.w3.org/2000/svg">
<path fill-rule="evenodd" clip-rule="evenodd" d="M9.33367 3.33328C9.48434 3.33328 9.63567 3.38395 9.76034 3.48795C10.043 3.72328 10.081 4.14395 9.84567 4.42662L6.86167 8.00728L9.73834 11.582C9.969 11.8686 9.92367 12.2886 9.637 12.5193C9.34967 12.75 8.93034 12.7046 8.699 12.418L5.48034 8.41795C5.28167 8.17062 5.28434 7.81728 5.48767 7.57328L8.821 3.57328C8.953 3.41528 9.14234 3.33328 9.33367 3.33328Z" fill="#231F20"/>
<mask id="mask0_1352_34785" style="mask-type:alpha" maskUnits="userSpaceOnUse" x="5" y="3" width="5" height="10">
<path fill-rule="evenodd" clip-rule="evenodd" d="M9.33367 3.33328C9.48434 3.33328 9.63567 3.38395 9.76034 3.48795C10.043 3.72328 10.081 4.14395 9.84567 4.42662L6.86167 8.00728L9.73834 11.582C9.969 11.8686 9.92367 12.2886 9.637 12.5193C9.34967 12.75 8.93034 12.7046 8.699 12.418L5.48034 8.41795C5.28167 8.17062 5.28434 7.81728 5.48767 7.57328L8.821 3.57328C8.953 3.41528 9.14234 3.33328 9.33367 3.33328Z" fill="white"/>
</mask>
<g mask="url(#mask0_1352_34785)">
<rect x="16" y="16" width="16" height="16" transform="rotate(-180 16 16)" fill="#00A5BD"/>
</g>
</svg>
