<svg width="18" height="18" viewBox="0 0 18 18" fill="none" xmlns="http://www.w3.org/2000/svg">
<path d="M5.25 7.5C3.5925 7.5 2.25 8.8425 2.25 10.5C2.25 12.1575 3.5925 13.5 5.25 13.5C6.9075 13.5 8.25 12.1575 8.25 10.5C8.25 8.8425 6.9075 7.5 5.25 7.5ZM5.25 12C4.425 12 3.75 11.325 3.75 10.5C3.75 9.675 4.425 9 5.25 9C6.075 9 6.75 9.675 6.75 10.5C6.75 11.325 6.075 12 5.25 12ZM11.2575 11.25C10.02 11.25 9.0075 12.2625 9.0075 13.5C9.0075 14.7375 10.02 15.75 11.2575 15.75C12.495 15.75 13.5075 14.7375 13.5075 13.5C13.5075 12.2625 12.495 11.25 11.2575 11.25ZM11.2575 14.25C10.845 14.25 10.5075 13.9125 10.5075 13.5C10.5075 13.0875 10.845 12.75 11.2575 12.75C11.67 12.75 12.0075 13.0875 12.0075 13.5C12.0075 13.9125 11.67 14.25 11.2575 14.25ZM12.375 2.25C10.1025 2.25 8.25 4.1025 8.25 6.375C8.25 8.6475 10.1025 10.5 12.375 10.5C14.6475 10.5 16.5 8.6475 16.5 6.375C16.5 4.1025 14.6475 2.25 12.375 2.25ZM12.375 9C10.9275 9 9.75 7.8225 9.75 6.375C9.75 4.9275 10.9275 3.75 12.375 3.75C13.8225 3.75 15 4.9275 15 6.375C15 7.8225 13.8225 9 12.375 9Z" fill="#00B16F"/>
</svg>
