<svg width="24" height="24" viewBox="0 0 24 24" fill="none" xmlns="http://www.w3.org/2000/svg">
<path fill-rule="evenodd" clip-rule="evenodd" d="M6.78718 5.37297C6.39666 4.98245 5.7635 4.98245 5.37297 5.37297C4.98245 5.7635 4.98245 6.39666 5.37297 6.78718L10.7928 12.207L5.37381 17.626C4.98328 18.0166 4.98328 18.6497 5.37381 19.0403C5.76433 19.4308 6.3975 19.4308 6.78802 19.0403L12.207 13.6212L17.626 19.0403C18.0166 19.4308 18.6497 19.4308 19.0403 19.0403C19.4308 18.6497 19.4308 18.0166 19.0403 17.626L13.6212 12.207L19.0411 6.78718C19.4316 6.39666 19.4316 5.7635 19.0411 5.37297C18.6506 4.98245 18.0174 4.98245 17.6269 5.37297L12.207 10.7928L6.78718 5.37297Z" fill="#F8F8F8"/>
</svg>
