<svg width="24" height="24" viewBox="0 0 24 24" fill="none" xmlns="http://www.w3.org/2000/svg">
    <path fill-rule="evenodd" clip-rule="evenodd" d="M17.6265 5.37346C18.0171 4.98294 18.6502 4.98294 19.0407 5.37346C19.4313 5.76398 19.4313 6.39715 19.0407 6.78767L13.6213 12.2071L19.0407 17.6265C19.4313 18.0171 19.4313 18.6502 19.0407 19.0407C18.6502 19.4313 18.0171 19.4313 17.6265 19.0407L12.2071 13.6213L6.78767 19.0407C6.39715 19.4313 5.76398 19.4313 5.37346 19.0407C4.98294 18.6502 4.98294 18.0171 5.37346 17.6265L10.7929 12.2071L5.37346 6.78767C4.98294 6.39715 4.98294 5.76398 5.37346 5.37346C5.76398 4.98294 6.39715 4.98294 6.78767 5.37346L12.2071 10.7929L17.6265 5.37346Z" fill="#5D6475"/>
</svg>
