<svg width="24" height="24" viewBox="0 0 24 24" fill="none" xmlns="http://www.w3.org/2000/svg">
<path fill-rule="evenodd" clip-rule="evenodd" d="M6.78719 5.37346C6.39666 4.98294 5.7635 4.98294 5.37297 5.37346C4.98245 5.76398 4.98245 6.39715 5.37297 6.78767L10.7928 12.2075L5.37381 17.6265C4.98328 18.0171 4.98328 18.6502 5.37381 19.0407C5.76433 19.4313 6.3975 19.4313 6.78802 19.0407L12.207 13.6217L17.626 19.0407C18.0166 19.4313 18.6497 19.4313 19.0403 19.0407C19.4308 18.6502 19.4308 18.0171 19.0403 17.6265L13.6212 12.2075L19.0411 6.78767C19.4316 6.39715 19.4316 5.76398 19.0411 5.37346C18.6506 4.98294 18.0174 4.98294 17.6269 5.37346L12.207 10.7933L6.78719 5.37346Z" fill="#0961B6"/>
</svg>
