<svg width="16" height="16" viewBox="0 0 16 16" fill="none" xmlns="http://www.w3.org/2000/svg">
<path d="M8.21906 0.5C4.07906 0.5 0.726562 3.86 0.726562 8C0.726562 12.14 4.07906 15.5 8.21906 15.5C12.3666 15.5 15.7266 12.14 15.7266 8C15.7266 3.86 12.3666 0.5 8.21906 0.5ZM8.22656 14C4.91156 14 2.22656 11.315 2.22656 8C2.22656 4.685 4.91156 2 8.22656 2C11.5416 2 14.2266 4.685 14.2266 8C14.2266 11.315 11.5416 14 8.22656 14ZM8.60156 4.25H7.47656V8.75L11.4141 11.1125L11.9766 10.19L8.60156 8.1875V4.25Z" fill="#737B82"/>
</svg>
