<svg width="24" height="24" viewBox="0 0 24 24" fill="none" xmlns="http://www.w3.org/2000/svg">
<g opacity="0.4">
<path fill-rule="evenodd" clip-rule="evenodd" d="M6.00002 14C4.89559 14 4 13.1047 4 12.0002C4 10.8958 4.89559 10.0005 6.00002 10.0005C7.10445 10.0005 8.00005 10.8958 8.00005 12.0002C8.00005 13.1047 7.10445 14 6.00002 14ZM12 14C10.8956 14 10 13.1047 10 12.0002C10 10.8958 10.8956 10.0005 12 10.0005C13.1045 10.0005 14 10.8958 14 12.0002C14 13.1047 13.1045 14 12 14ZM16 12.0002C16 13.1047 16.8956 14 18 14C19.1045 14 20 13.1047 20 12.0002C20 10.8958 19.1045 10.0005 18 10.0005C16.8956 10.0005 16 10.8958 16 12.0002Z" fill="#323232"/>
</g>
</svg>
