<svg width="16" height="16" viewBox="0 0 16 16" fill="none" xmlns="http://www.w3.org/2000/svg">
<path d="M8.22656 0.5C4.08656 0.5 0.726562 3.86 0.726562 8C0.726562 12.14 4.08656 15.5 8.22656 15.5C12.3666 15.5 15.7266 12.14 15.7266 8C15.7266 3.86 12.3666 0.5 8.22656 0.5ZM2.22656 8C2.22656 4.685 4.91156 2 8.22656 2C9.61406 2 10.8891 2.4725 11.9016 3.2675L3.49406 11.675C2.69906 10.6625 2.22656 9.3875 2.22656 8ZM8.22656 14C6.83906 14 5.56406 13.5275 4.55156 12.7325L12.9591 4.325C13.7541 5.3375 14.2266 6.6125 14.2266 8C14.2266 11.315 11.5416 14 8.22656 14Z" fill="#EE5555"/>
</svg>
