<svg width="24" height="24" viewBox="0 0 24 24" fill="none" xmlns="http://www.w3.org/2000/svg">
<path fill-rule="evenodd" clip-rule="evenodd" d="M9.8 3C8.80589 3 8 3.80589 8 4.8V6H4C3.44772 6 3 6.44772 3 7C3 7.55228 3.44772 8 4 8H5.07447L5.86702 18.2317C5.98804 19.794 7.29107 21 8.85806 21H15.1419C16.7089 21 18.012 19.794 18.133 18.2317L18.9255 8H20C20.5523 8 21 7.55228 21 7C21 6.44772 20.5523 6 20 6H16V4.8C16 3.80589 15.1941 3 14.2 3H9.8ZM14 6V5H10V6H14ZM8 8H7.08046L7.86105 18.0772C7.90139 18.598 8.33573 19 8.85806 19H15.1419C15.6643 19 16.0986 18.598 16.139 18.0772L16.9195 8H16H14H10H8Z" fill="#5D6475"/>
</svg>
