<svg width="17" height="20" viewBox="0 0 17 20" fill="none" xmlns="http://www.w3.org/2000/svg">
<path fill-rule="evenodd" clip-rule="evenodd" d="M8.4997 12H5.4997C4.9477 12 4.4997 11.552 4.4997 11C4.4997 10.448 4.9477 10 5.4997 10H8.4997C9.0517 10 9.4997 10.448 9.4997 11C9.4997 11.552 9.0517 12 8.4997 12ZM4.4997 15C4.4997 14.448 4.9477 14 5.4997 14H11.4997C12.0527 14 12.4997 14.448 12.4997 15C12.4997 15.552 12.0527 16 11.4997 16H5.4997C4.9477 16 4.4997 15.552 4.4997 15ZM13.944 18H3.055C2.749 18 2.5 17.776 2.5 17.5V2.5C2.5 2.224 2.749 2 3.055 2H8.5V5.15C8.5 6.722 9.717 8 11.214 8H14.5V17.5C14.5 17.776 14.251 18 13.944 18ZM10.5 2.978L13.242 6H11.214C10.82 6 10.5 5.619 10.5 5.15V2.978ZM16.24 6.328L10.796 0.328C10.606 0.119 10.338 0 10.055 0H3.055C1.646 0 0.5 1.122 0.5 2.5V17.5C0.5 18.878 1.646 20 3.055 20H13.944C15.353 20 16.5 18.878 16.5 17.5V7C16.5 6.751 16.407 6.512 16.24 6.328Z" fill="#00A5BD"/>
</svg>
