<svg width="24" height="24" viewBox="0 0 24 24" fill="none" xmlns="http://www.w3.org/2000/svg">
<path fill-rule="evenodd" clip-rule="evenodd" d="M13 5C13 4.44772 12.5523 4 12 4C11.4477 4 11 4.44772 11 5V13.6068L8.2027 10.8441C7.80976 10.456 7.17661 10.4599 6.78852 10.8529C6.40042 11.2458 6.40436 11.8789 6.7973 12.267L11.2973 16.7115C11.6868 17.0962 12.3132 17.0962 12.7027 16.7115L17.2027 12.267C17.5956 11.8789 17.5996 11.2458 17.2115 10.8529C16.8234 10.4599 16.1902 10.456 15.7973 10.8441L13 13.6068V5ZM5 18C4.44772 18 4 18.4477 4 19C4 19.5523 4.44772 20 5 20H19C19.5523 20 20 19.5523 20 19C20 18.4477 19.5523 18 19 18H5Z" fill="#5D6475"/>
</svg>
