<svg width="24" height="24" viewBox="0 0 24 24" fill="none" xmlns="http://www.w3.org/2000/svg">
<path opacity="0.6" fill-rule="evenodd" clip-rule="evenodd" d="M6 5C4.34315 5 3 6.34315 3 8V16C3 17.6569 4.34315 19 6 19H18C19.6569 19 21 17.6569 21 16V8C21 6.34315 19.6569 5 18 5H6ZM5 8.31708V15.4208L8.4163 11.2453L5 8.31708ZM17.7079 17L14.0648 12.5473L12.6508 13.7593L12 14.3171L11.3492 13.7593L9.93521 12.5473L6.29206 17H17.7079ZM15.5837 11.2453L19 8.31708V15.4208L15.5837 11.2453ZM6.53659 7L12 11.6829L17.4634 7H6.53659Z" fill="#5D6475"/>
</svg>
