<svg width="24" height="24" viewBox="0 0 24 24" fill="none" xmlns="http://www.w3.org/2000/svg">
<path fill-rule="evenodd" clip-rule="evenodd" d="M12 6C7.90909 6 4.41545 8.54455 3 12.1364C4.41545 15.7282 7.90909 18.2727 12 18.2727C16.0909 18.2727 19.5845 15.7282 21 12.1364C19.5845 8.54455 16.0909 6 12 6ZM12 16.2273C9.74183 16.2273 7.9091 14.3946 7.9091 12.1364C7.9091 9.8782 9.74183 8.04548 12 8.04548C14.2582 8.04548 16.0909 9.8782 16.0909 12.1364C16.0909 14.3946 14.2582 16.2273 12 16.2273ZM12.0001 9.68189C10.6419 9.68189 9.54552 10.7783 9.54552 12.1364C9.54552 13.4946 10.6419 14.591 12.0001 14.591C13.3582 14.591 14.4546 13.4946 14.4546 12.1364C14.4546 10.7783 13.3582 9.68189 12.0001 9.68189Z" fill="#5D6475"/>
</svg>
