<svg width="32" height="32" viewBox="0 0 32 32" fill="none" xmlns="http://www.w3.org/2000/svg">
<path fill-rule="evenodd" clip-rule="evenodd" d="M8.94429 21.8358L4.68925 26.0823C4.38531 26.3949 4.3418 26.8898 4.60232 27.2285V27.2372L4.64557 27.2459V27.2546V27.2633V27.272V27.2806V27.2893L4.68925 27.2937V27.3024V27.3111C7.59837 30.2072 11.593 32.0003 15.9784 32.0003C20.4072 32.0003 24.4016 30.2072 27.3108 27.3111V27.3024V27.2937L27.3544 27.2893V27.2806V27.272V27.2633V27.2546V27.2459L27.3977 27.2372V27.2285V27.2198V27.2112V27.2025V27.1938V27.1851L27.4409 27.1764V27.1678V27.1591V27.1504V27.1373V27.1286V27.1199V27.1113L27.4846 27.1027V27.094V27.0809V27.0722V27.0635V27.0549V27.0418V27.0331V27.0244V27.0157L27.5279 27.007V26.9941V26.9854V26.9767V26.9637V26.955V26.9463V26.9333V26.9246V26.9159V26.9028V26.8942V26.8856V26.8725L27.5715 26.8638V26.8551V26.8421V26.8334V26.8247V26.8117V26.803V26.7899V26.7814V26.7727V26.7596V26.7509V26.7379V26.7292V26.7205V26.7075V26.6988V26.6857V26.6771V26.6685V26.6554V26.6467V26.6337V26.625V26.6163V26.6033V26.5946V26.5815V26.5729V26.5643V26.5512V26.5425V26.5338L27.5279 26.5208V26.5121V26.4991V26.4904V26.4817V26.473V26.46V26.4514V26.4427V26.4296V26.4209V26.4123V26.3992V26.3905L27.4846 26.3818V26.3731V26.3601V26.3514V26.3428V26.3341V26.3211V26.3124V26.3037V26.295L27.4409 26.2863V26.2733V26.2646V26.2559V26.2472V26.2386V26.2299V26.2212L27.3977 26.2125V26.2038V26.1908V26.1821V26.1734V26.1647V26.156L27.3544 26.1473V26.143V26.1343V26.1257V26.117V26.1083L27.3108 26.0996V26.091V26.0823L23.0557 21.8358C24.3583 20.251 25.1398 18.2146 25.1398 16.0002C25.1398 13.4732 24.1413 11.1849 22.4913 9.52626C22.3177 9.37429 22.1004 9.28318 21.8833 9.2745H21.84C21.6229 9.2745 21.4057 9.36996 21.232 9.53495L18.757 12.1142C18.4096 12.4528 18.4096 12.9912 18.757 13.3255C19.4083 13.9942 19.7991 14.9017 19.8425 15.9047V16.0002C19.8425 16.7427 19.6256 17.4374 19.2349 18.0235L17.585 16.3389C17.585 16.2303 17.585 16.1174 17.585 16.0002C17.585 15.1188 16.8902 14.398 15.9784 14.398C15.11 14.398 14.415 15.1188 14.415 16.0002C14.415 16.1174 14.415 16.2303 14.415 16.3389L12.7651 18.0235C12.3744 17.4374 12.1575 16.7427 12.1575 16.0002C12.1575 14.9581 12.5917 14.0159 13.243 13.3255C13.5904 12.9912 13.5904 12.4528 13.243 12.1142L10.768 9.53495C10.5943 9.36996 10.3772 9.2745 10.1167 9.2745C9.89961 9.27016 9.68234 9.36561 9.50867 9.52626C7.85872 11.1849 6.81656 13.4732 6.81656 16.0002C6.81656 18.2146 7.6417 20.251 8.94429 21.8358ZM24.4015 25.635C22.1437 27.5976 19.2349 28.7873 15.9784 28.7873C12.7653 28.7873 9.85628 27.5976 7.59845 25.635L6.55621 26.6814C9.07455 28.9088 12.3745 30.2635 15.9784 30.2635C19.6256 30.2635 22.9254 28.9088 25.4438 26.6814L24.4015 25.635ZM21.84 23.0603C20.2335 24.3715 18.2362 25.1617 15.9784 25.1617C13.764 25.1617 11.7665 24.3715 10.16 23.0603L8.81412 24.4019C10.768 26.0518 13.2429 27.0505 15.9784 27.0505H16.1518C18.8438 27.0158 21.2754 26.0258 23.1859 24.4019L21.84 23.0603ZM5.29687 4.09021L4.5154 3.2956C4.16804 2.95692 3.64709 2.95692 3.29973 3.2956C2.95237 3.63427 2.95237 4.18573 3.29973 4.52441L4.0812 5.31892C1.56286 8.15422 0 11.897 0 16.0002C0 19.5259 1.12874 22.7824 3.08263 25.431C3.34315 25.8174 3.90752 25.8999 4.2983 25.6176C4.68908 25.3354 4.77609 24.7926 4.47215 24.4019C2.73536 22.0485 1.73679 19.1395 1.73679 16.0002C1.73679 12.3747 3.08272 9.06607 5.34054 6.54773L6.38236 7.59411C4.38505 9.84325 3.21281 12.7828 3.21281 16.0002C3.21281 18.6228 3.99453 21.063 5.34054 23.0907C5.64448 23.4901 6.16543 23.5986 6.55621 23.3338C6.94699 23.0646 7.07708 22.5261 6.81656 22.1267C5.64423 20.3725 4.94959 18.2667 4.94959 16.0002C4.94959 13.0129 6.12201 10.3036 8.0759 8.31494C8.11932 8.28021 8.16265 8.24547 8.20607 8.20205C8.55343 7.86337 8.55343 7.31191 8.20607 6.97323L6.55621 5.32326C9.07455 3.09149 12.3745 1.73679 15.9784 1.73679C19.6256 1.73679 22.9254 3.09149 25.4438 5.32326L23.7939 6.97323C23.4466 7.31191 23.4466 7.86337 23.7939 8.20205C23.8373 8.24547 23.8807 8.28021 23.9241 8.31494C25.878 10.3036 27.0504 13.0129 27.0504 16.0002C27.0504 18.2667 26.3558 20.3725 25.1834 22.1267C24.9229 22.5261 25.053 23.0646 25.4438 23.3338C25.8346 23.5986 26.3555 23.4901 26.6595 23.0907C28.0055 21.063 28.7872 18.6228 28.7872 16.0002C28.7872 12.7828 27.6149 9.84325 25.6176 7.59411L26.6595 6.54773C28.9173 9.06607 30.2632 12.3747 30.2632 16.0002C30.2632 19.1395 29.2646 22.0485 27.5279 24.4019C27.2239 24.7926 27.3109 25.3354 27.7017 25.6176C28.0925 25.8999 28.6569 25.8174 28.9174 25.431C30.8713 22.7824 32 19.5259 32 16.0002C32 11.897 30.4371 8.15422 27.9188 5.31892L28.7003 4.52441C29.0476 4.18573 29.0476 3.63427 28.7003 3.2956C28.3529 2.95692 27.832 2.95692 27.4846 3.2956L26.6595 4.09021C23.8372 1.54581 20.1032 0 15.9784 0C11.8969 0 8.16257 1.54581 5.29687 4.09021ZM12.7219 20.5028C13.6337 21.1714 14.7626 21.5666 15.9784 21.5666C17.2375 21.5666 18.3663 21.1714 19.2781 20.5028L20.5807 21.8271C19.3215 22.8258 17.7152 23.4249 15.9784 23.4249C14.2416 23.4249 12.6785 22.8258 11.4193 21.8271L12.7219 20.5028ZM11.5062 19.2741L10.16 20.5983C9.16131 19.3348 8.55335 17.737 8.55335 16.0002C8.55335 14.3242 9.1178 12.7785 10.073 11.5367L10.16 11.4151L11.4626 12.7655C10.8113 13.6773 10.4207 14.7931 10.4207 16.0002C10.4207 17.2246 10.8115 18.3536 11.5062 19.2741ZM21.84 20.5983L20.4938 19.2741C21.1451 18.3883 21.5358 17.3115 21.5793 16.1435V16.0002C21.5793 14.7931 21.1887 13.6773 20.5374 12.7655L21.84 11.4151C22.8387 12.6786 23.403 14.2721 23.403 16.0002C23.403 17.737 22.8387 19.3348 21.84 20.5983ZM16.3256 17.5633C16.2388 17.5893 16.1086 17.6024 15.9784 17.6024C15.8915 17.6024 15.7612 17.5893 15.6744 17.5633L13.9808 19.2523C14.5453 19.6171 15.2402 19.8299 15.9784 19.8299C16.7599 19.8299 17.4547 19.6171 18.0192 19.2523L16.3256 17.5633Z" fill="url(#paint0_linear_1625_61741)"/>
<defs>
<linearGradient id="paint0_linear_1625_61741" x1="5.70522" y1="1.70383" x2="28.3433" y2="31.9996" gradientUnits="userSpaceOnUse">
<stop stop-color="#0014FF"/>
<stop offset="1" stop-color="#00BCFF"/>
</linearGradient>
</defs>
</svg>
