<svg width="21" height="17" viewBox="0 0 21 17" fill="none" xmlns="http://www.w3.org/2000/svg">
<path fill-rule="evenodd" clip-rule="evenodd" d="M5.222 2C4.358 2 3.548 2.334 2.942 2.941C1.684 4.201 1.684 6.252 2.943 7.514L10.002 14.585L17.062 7.514C18.321 6.252 18.321 4.201 17.062 2.941C15.85 1.726 13.714 1.728 12.502 2.941L10.71 4.736C10.334 5.113 9.67 5.113 9.294 4.736L7.502 2.94C6.896 2.334 6.087 2 5.222 2ZM10.002 17C9.737 17 9.482 16.895 9.295 16.706L1.527 8.926C-0.509 6.886 -0.509 3.567 1.527 1.527C2.511 0.543 3.823 0 5.222 0C6.621 0 7.934 0.543 8.917 1.527L10.002 2.614L11.087 1.528C12.071 0.543 13.383 0 14.783 0C16.181 0 17.494 0.543 18.477 1.527C20.514 3.567 20.514 6.886 18.478 8.926L10.71 16.707C10.522 16.895 10.268 17 10.002 17Z" fill="white"/>
</svg>
