<svg width="15" height="14" viewBox="0 0 15 14" fill="none" xmlns="http://www.w3.org/2000/svg">
<path d="M3.25 5.5C1.5925 5.5 0.25 6.8425 0.25 8.5C0.25 10.1575 1.5925 11.5 3.25 11.5C4.9075 11.5 6.25 10.1575 6.25 8.5C6.25 6.8425 4.9075 5.5 3.25 5.5ZM3.25 10C2.425 10 1.75 9.325 1.75 8.5C1.75 7.675 2.425 7 3.25 7C4.075 7 4.75 7.675 4.75 8.5C4.75 9.325 4.075 10 3.25 10ZM9.2575 9.25C8.02 9.25 7.0075 10.2625 7.0075 11.5C7.0075 12.7375 8.02 13.75 9.2575 13.75C10.495 13.75 11.5075 12.7375 11.5075 11.5C11.5075 10.2625 10.495 9.25 9.2575 9.25ZM9.2575 12.25C8.845 12.25 8.5075 11.9125 8.5075 11.5C8.5075 11.0875 8.845 10.75 9.2575 10.75C9.67 10.75 10.0075 11.0875 10.0075 11.5C10.0075 11.9125 9.67 12.25 9.2575 12.25ZM10.375 0.25C8.1025 0.25 6.25 2.1025 6.25 4.375C6.25 6.6475 8.1025 8.5 10.375 8.5C12.6475 8.5 14.5 6.6475 14.5 4.375C14.5 2.1025 12.6475 0.25 10.375 0.25ZM10.375 7C8.9275 7 7.75 5.8225 7.75 4.375C7.75 2.9275 8.9275 1.75 10.375 1.75C11.8225 1.75 13 2.9275 13 4.375C13 5.8225 11.8225 7 10.375 7Z" fill="#00B16F"/>
</svg>
