<svg width="18" height="18" viewBox="0 0 18 18" fill="none" xmlns="http://www.w3.org/2000/svg">
<path d="M14.3996 3.6001H10.3496V4.9501H12.0956L9.61161 7.4341C8.99061 7.0021 8.23461 6.7501 7.42461 6.7501C5.30961 6.7501 3.59961 8.4601 3.59961 10.5751C3.59961 12.6901 5.30961 14.4001 7.42461 14.4001C9.53961 14.4001 11.2496 12.6901 11.2496 10.5751C11.2496 9.7651 10.9976 9.0091 10.5656 8.3881L13.0496 5.9041V7.6501H14.3996V3.6001ZM7.42461 13.0501C6.05661 13.0501 4.94961 11.9431 4.94961 10.5751C4.94961 9.2071 6.05661 8.1001 7.42461 8.1001C8.79261 8.1001 9.89961 9.2071 9.89961 10.5751C9.89961 11.9431 8.79261 13.0501 7.42461 13.0501Z" fill="#00B16F"/>
</svg>
