<svg width="24" height="24" viewBox="0 0 24 24" fill="none" xmlns="http://www.w3.org/2000/svg">
<path d="M15.9142 20H10.8611C10.028 20 9.21022 19.6811 8.63163 19.1284L3 13.7357L4.59691 12.4389C5.07522 12.0492 5.77724 11.9712 6.3404 12.2476L8.19961 13.1546V6.38724C8.19961 5.40934 9.06364 4.61567 10.1283 4.61567C10.2594 4.61567 10.3905 4.62985 10.5217 4.6511C10.5911 3.72989 11.4243 3 12.4426 3C13.1061 3 13.6847 3.30471 14.0318 3.77241C14.2555 3.68737 14.5024 3.64485 14.757 3.64485C15.8216 3.64485 16.6856 4.43852 16.6856 5.41642V5.61484C16.8091 5.59358 16.9402 5.57941 17.0714 5.57941C18.136 5.57941 19 6.37307 19 7.35098V17.1655C19 18.7316 17.6191 20 15.9142 20ZM5.22179 13.8208L9.74253 18.1434C10.0357 18.4198 10.4368 18.5827 10.8534 18.5827H15.9142C16.7628 18.5827 17.4571 17.945 17.4571 17.1655V7.35098C17.4571 7.15256 17.2874 6.99667 17.0714 6.99667C16.8554 6.99667 16.6856 7.15256 16.6856 7.35098V11.4965H15.1427V5.41642C15.1427 5.21801 14.973 5.06211 14.757 5.06211C14.541 5.06211 14.3713 5.21801 14.3713 5.41642V11.4965H12.8284V4.77157C12.8284 4.57316 12.6586 4.41726 12.4426 4.41726C12.2266 4.41726 12.0569 4.57316 12.0569 4.77157V11.4965H10.514V6.38724C10.514 6.18883 10.3443 6.03293 10.1283 6.03293C9.91225 6.03293 9.74253 6.19591 9.74253 6.38724V15.5073L5.61524 13.5019L5.22179 13.8208V13.8208Z" fill="#0961B6"/>
</svg>
