<svg width="419" height="492" viewBox="0 0 419 492" fill="none" xmlns="http://www.w3.org/2000/svg">
<path fill-rule="evenodd" clip-rule="evenodd" d="M275.039 0.71311C198.464 -8.55146 176.316 75.2868 160.419 88.0794C122.641 118.479 46.1032 130.511 39.5968 230.742C35.4837 294.105 -60.4199 453.38 62.0421 457.709C189.274 462.205 191.791 444.398 286.017 394.194C331.673 369.868 458.206 286.108 406.324 230.742C382.946 205.794 345.337 144.166 342.567 98.768C340.109 58.4899 332.222 11.7687 275.039 0.71311Z" fill="#DAE7FD"/>
<path fill-rule="evenodd" clip-rule="evenodd" d="M250.752 306.838C217.867 307.684 162.718 305.516 155.447 308.186C153.737 334.581 155.367 358.726 156.13 386.388C190.36 383.985 222.285 385.789 250.631 384.257C250.874 355.865 249.115 331.588 250.752 306.838Z" fill="black"/>
<path fill-rule="evenodd" clip-rule="evenodd" d="M246.034 302.12C213.148 302.966 157.999 300.798 150.728 303.468C149.018 329.863 150.649 354.008 151.411 381.67C185.641 379.268 217.566 381.071 245.913 379.539C246.156 351.147 244.396 326.87 246.034 302.12Z" fill="white"/>
<path fill-rule="evenodd" clip-rule="evenodd" d="M246.917 302.12C246.934 301.854 246.839 301.592 246.655 301.4C246.469 301.207 246.212 301.102 245.945 301.109C222.928 301.7 189.003 300.816 168.226 301.148C159.161 301.293 152.557 301.699 150.336 302.515C149.983 302.644 149.74 302.97 149.716 303.344C148.005 329.769 149.635 353.941 150.398 381.634C150.405 381.892 150.517 382.137 150.709 382.311C150.901 382.485 151.155 382.573 151.413 382.555C185.639 380.153 217.559 381.957 245.9 380.424C246.4 380.398 246.794 379.986 246.798 379.484C247.041 351.113 245.281 326.854 246.917 302.12ZM244.955 303.032C243.448 327.183 245.103 350.943 244.906 378.575C217.052 380.01 185.773 378.316 152.269 380.592C151.503 353.601 149.95 329.917 151.57 304.121C154.144 303.461 160.193 303.175 168.256 303.047C188.728 302.72 221.961 303.573 244.955 303.032Z" fill="black"/>
<path fill-rule="evenodd" clip-rule="evenodd" d="M155.374 332.25C168.01 332.225 199.312 331.905 211.249 331.9C211.773 331.9 212.198 331.474 212.198 330.949C212.198 330.425 211.772 330 211.248 330C199.311 330.006 168.007 330.326 155.371 330.351C154.847 330.352 154.422 330.778 154.423 331.303C154.424 331.827 154.85 332.251 155.374 332.25Z" fill="black"/>
<path fill-rule="evenodd" clip-rule="evenodd" d="M161.04 317.388C173.676 317.363 222.082 316.936 234.018 316.93C234.542 316.93 234.968 316.504 234.968 315.98C234.967 315.456 234.542 315.031 234.018 315.031C222.08 315.036 173.673 315.464 161.037 315.489C160.513 315.49 160.088 315.916 160.089 316.441C160.09 316.965 160.516 317.389 161.04 317.388Z" fill="black"/>
<path fill-rule="evenodd" clip-rule="evenodd" d="M161.04 343.236C173.676 343.211 192.818 343.258 204.755 343.252C205.279 343.252 205.704 342.826 205.704 342.302C205.704 341.778 205.278 341.353 204.754 341.353C192.816 341.358 173.673 341.312 161.036 341.337C160.513 341.338 160.088 341.764 160.089 342.288C160.09 342.813 160.517 343.237 161.04 343.236Z" fill="black"/>
<path fill-rule="evenodd" clip-rule="evenodd" d="M160.634 356.382C173.27 356.357 182.007 356.49 193.944 356.485C194.468 356.484 194.893 356.059 194.893 355.535C194.893 355.01 194.467 354.585 193.943 354.586C182.005 354.591 173.267 354.458 160.63 354.483C160.107 354.484 159.682 354.91 159.683 355.435C159.684 355.959 160.111 356.383 160.634 356.382Z" fill="black"/>
<path fill-rule="evenodd" clip-rule="evenodd" d="M218.698 342.626C231.332 342.601 221.527 342.691 233.463 342.686C233.986 342.686 234.411 342.26 234.411 341.736C234.411 341.212 233.985 340.787 233.461 340.787C221.523 340.792 231.331 340.702 218.694 340.727C218.17 340.728 217.745 341.154 217.746 341.678C217.747 342.203 218.174 342.627 218.698 342.626Z" fill="black"/>
<g clip-path="url(#clip0_3566_43374)">
<path fill-rule="evenodd" clip-rule="evenodd" d="M290.66 97.9517C267.516 95.0682 230.863 95.0721 180.748 97.9517C174.634 133.057 170.369 138.008 168.96 166.907C199.989 166.238 240.387 165.541 278.873 166.907C278.873 166.907 302.086 144.837 311.364 136.014C313.524 133.958 313.847 130.624 312.122 128.191C305.586 118.979 290.66 97.9517 290.66 97.9517ZM288.99 124.157C292.593 124.157 295.519 127.082 295.519 130.686C295.519 134.289 292.593 137.215 288.99 137.215C285.39 137.215 282.464 134.289 282.464 130.686C282.464 127.082 285.39 124.157 288.99 124.157Z" fill="black"/>
<path fill-rule="evenodd" clip-rule="evenodd" d="M285.227 86.7319C262.082 83.8485 225.429 83.8524 175.314 86.7319C169.201 121.837 164.935 126.788 163.526 155.688C194.555 155.018 234.954 154.321 273.439 155.688C273.439 155.688 296.653 133.617 305.93 124.794C308.09 122.738 308.414 119.404 306.689 116.971C300.152 107.759 285.227 86.7319 285.227 86.7319ZM283.556 112.937C287.159 112.937 290.085 115.863 290.085 119.466C290.085 123.069 287.159 125.995 283.556 125.995C279.957 125.995 277.031 123.069 277.031 119.466C277.031 115.863 279.957 112.937 283.556 112.937Z" fill="white" stroke="#000828" stroke-width="2.40606" stroke-miterlimit="1.5" stroke-linecap="round" stroke-linejoin="round"/>
<path d="M220.613 111.062C236.205 111.408 252.398 109.199 265.091 111.062" stroke="black" stroke-width="2.35007" stroke-miterlimit="1.5" stroke-linecap="round" stroke-linejoin="round"/>
<path d="M218.276 121.113C235.341 120.362 250.14 118.961 263.22 121.113" stroke="black" stroke-width="2.35007" stroke-miterlimit="1.5" stroke-linecap="round" stroke-linejoin="round"/>
<path d="M218.276 130.263C224.332 130.317 233.803 129.455 239.543 130.263" stroke="black" stroke-width="2.35007" stroke-miterlimit="1.5" stroke-linecap="round" stroke-linejoin="round"/>
<path d="M185.497 119.354L189.019 119.287L191.239 104.796L199.147 104.648C201.046 104.612 202.616 104.851 203.87 105.364C205.112 105.877 206.09 106.57 206.791 107.441C207.492 108.313 207.933 109.335 208.14 110.506C208.335 111.677 208.348 112.888 208.157 114.14C207.961 115.42 207.576 116.632 207.027 117.773C206.466 118.916 205.713 119.931 204.742 120.819C203.771 121.708 202.579 122.419 201.176 122.954C199.761 123.489 198.111 123.773 196.212 123.809L193.826 123.854L193.318 127.171L200.801 127.03L200.113 131.526L192.63 131.667L192.082 135.246L186.559 135.35L187.108 131.771L183.585 131.837L184.273 127.341L187.796 127.275L188.304 123.958L184.781 124.024L185.497 119.354ZM196.378 119.149C197.14 119.135 197.862 119.056 198.544 118.912C199.239 118.769 199.863 118.518 200.428 118.159C200.982 117.8 201.456 117.305 201.839 116.674C202.21 116.044 202.483 115.234 202.635 114.244C202.786 113.254 202.764 112.428 202.591 111.764C202.406 111.1 202.088 110.577 201.648 110.193C201.196 109.81 200.651 109.545 200.001 109.397C199.364 109.249 198.664 109.183 197.902 109.197L196.066 109.232L194.542 119.183L196.378 119.149Z" fill="black"/>
<path fill-rule="evenodd" clip-rule="evenodd" d="M287.165 125.754C288.018 125.539 288.727 125.838 289.348 126.539C290.014 127.288 290.576 128.364 291.106 129.743C293.445 135.839 294.712 147.095 295.787 162.966C296.541 174.091 300.852 182.566 304.446 185.176C305.94 186.263 307.422 186.542 308.697 186.208C310.351 185.773 312.056 184.108 312.742 180.43C314.487 171.03 309.219 148.386 304.47 140.226C303.892 139.234 302.621 138.899 301.633 139.477C300.641 140.051 300.306 141.326 300.884 142.314C305.299 149.901 310.283 170.935 308.657 179.673C308.506 180.49 308.311 181.147 308.052 181.645C307.916 181.908 307.849 182.155 307.653 182.191C307.486 182.219 307.331 182.099 307.143 181.988C306.633 181.685 306.115 181.183 305.593 180.534C302.948 177.274 300.473 170.74 299.927 162.687C298.616 143.326 296.819 130.564 293.528 125.24C291.564 122.073 289.093 120.993 286.157 121.73C285.045 122.009 284.368 123.136 284.647 124.244C284.926 125.356 286.053 126.033 287.165 125.754Z" fill="black"/>
</g>
<circle cx="240.743" cy="310.743" r="26.7432" fill="#6BD074"/>
<path d="M232.604 312.293L238.031 317.719L250.821 304.929" stroke="white" stroke-width="5.42616" stroke-linecap="square"/>
<path fill-rule="evenodd" clip-rule="evenodd" d="M154.981 212.597C150.936 213.617 146.126 212.56 144.41 207.726C144.41 210.812 146.998 215.959 124.56 215.159C123.648 206.514 124.011 203.355 124.56 195.372C124.958 189.566 131.776 182.913 136.484 179.537C139.321 177.503 140.292 176.177 142.383 175.143C142.684 174.994 153.25 177.829 153.607 178.36C157.67 184.419 147.317 188.071 145.954 190.786C145.689 194.003 146.73 198.189 148.052 200.163C149.306 199.264 152.112 198.061 152.824 197.975C154.783 201.423 155.817 207.976 154.981 212.597Z" fill="black"/>
<path fill-rule="evenodd" clip-rule="evenodd" d="M149.423 186.026C149.493 190.472 150.338 194.714 150.471 199.156C150.489 199.744 150.98 200.207 151.568 200.189C152.156 200.172 152.618 199.68 152.6 199.092C152.467 194.66 151.622 190.429 151.553 185.993C151.544 185.406 151.06 184.936 150.472 184.945C149.884 184.954 149.414 185.438 149.423 186.026Z" fill="black"/>
<path fill-rule="evenodd" clip-rule="evenodd" d="M145.323 194.086C147.192 193.991 152.973 193.664 154.671 193.656C155.259 193.654 155.734 193.174 155.731 192.586C155.729 191.998 155.249 191.523 154.662 191.525C152.945 191.534 147.103 191.862 145.215 191.959C144.628 191.988 144.175 192.489 144.206 193.076C144.235 193.664 144.736 194.116 145.323 194.086Z" fill="black"/>
<path fill-rule="evenodd" clip-rule="evenodd" d="M151.093 190.66C151.161 190.668 151.37 190.689 151.544 190.689C152.874 190.689 153.953 191.769 153.953 193.098C153.953 194.428 152.874 195.507 151.544 195.507C150.929 195.507 150.429 196.007 150.429 196.622C150.429 197.237 150.929 197.738 151.544 197.738C154.105 197.738 156.184 195.659 156.184 193.098C156.184 190.537 154.105 188.459 151.544 188.459C151.082 188.459 150.934 188.389 150.509 188.508C149.917 188.673 149.569 189.288 149.734 189.882C149.899 190.469 150.505 190.816 151.093 190.66Z" fill="black"/>
<path fill-rule="evenodd" clip-rule="evenodd" d="M97.1045 489.467C97.331 484.465 98.8699 476.738 99.6426 471.232L111.297 472.186C111.059 472.694 109.707 480.786 110.69 482.893C112.138 485.998 118.395 486.068 119.649 489.467H97.1045Z" fill="black"/>
<path fill-rule="evenodd" clip-rule="evenodd" d="M99.7225 471.734L99.7318 471.745L99.7012 471.744C99.5905 471.736 99.4868 471.684 99.4129 471.6C99.3334 471.508 99.2972 471.386 99.3135 471.264C98.5394 476.782 96.9998 484.526 96.7719 489.539C96.7669 489.654 96.8088 489.766 96.8883 489.85C96.9679 489.933 97.0787 489.98 97.1937 489.98H119.738C119.876 489.98 120.005 489.912 120.084 489.799C120.163 489.686 120.181 489.541 120.134 489.412C119.79 488.48 119.111 487.769 118.25 487.184C117.444 486.638 116.476 486.2 115.501 485.774C114.567 485.366 113.628 484.97 112.834 484.483C112.1 484.033 111.49 483.509 111.161 482.806C110.786 482.002 110.793 480.283 110.92 478.481C111.115 475.716 111.628 472.754 111.768 472.457C111.827 472.332 111.821 472.185 111.752 472.066C111.682 471.946 111.559 471.868 111.421 471.857C100.931 470.998 99.8823 470.912 99.7779 470.904C98.9904 470.839 99.6387 471.635 99.7225 471.734ZM100.093 471.776L110.858 472.657C110.628 473.737 110.239 476.142 110.079 478.421C109.939 480.398 109.985 482.28 110.397 483.162C110.792 484.011 111.508 484.66 112.393 485.202C113.219 485.709 114.193 486.124 115.163 486.547C116.089 486.952 117.011 487.363 117.776 487.883C118.299 488.237 118.747 488.641 119.061 489.136C119.061 489.136 97.6383 489.136 97.6383 489.136C97.923 484.262 99.3298 477.077 100.093 471.776Z" fill="black"/>
<mask id="mask0_3566_43374" style="mask-type:alpha" maskUnits="userSpaceOnUse" x="81" y="235" width="41" height="85">
<path fill-rule="evenodd" clip-rule="evenodd" d="M121.092 235.894C114.444 233.382 82.4926 273.638 81.3904 291.157C80.5418 304.648 90.2637 310.891 103.882 319.155" fill="white"/>
</mask>
<g mask="url(#mask0_3566_43374)">
<path fill-rule="evenodd" clip-rule="evenodd" d="M121.092 235.894C114.444 233.382 82.4926 273.638 81.3904 291.157C80.5418 304.648 90.2637 310.891 103.882 319.155" fill="white"/>
<path fill-rule="evenodd" clip-rule="evenodd" d="M106.598 301.698L125.6 235.101L105.469 238.16C77.0201 247.992 102.881 284.171 106.598 301.698Z" fill="black"/>
</g>
<path fill-rule="evenodd" clip-rule="evenodd" d="M121.398 234.799C120.6 234.497 119.519 234.572 118.23 235.131C115.891 236.144 112.609 238.817 108.959 242.57C101.859 249.872 93.2537 261.284 87.3382 271.914C83.333 279.113 80.5734 285.97 80.2574 290.991C79.7248 299.464 83.1477 305.217 89.0724 310.323C92.8845 313.609 97.7554 316.626 103.26 319.966C103.763 320.271 104.418 320.111 104.723 319.608C105.028 319.105 104.867 318.45 104.365 318.145C98.974 314.874 94.1968 311.927 90.4629 308.709C85.0672 304.059 81.8985 298.842 82.3835 291.125C82.6846 286.335 85.3796 279.817 89.2002 272.95C95.0241 262.483 103.495 251.246 110.486 244.056C113.42 241.039 116.079 238.74 118.161 237.55C118.777 237.198 119.333 236.947 119.824 236.824C120.145 236.743 120.42 236.706 120.646 236.792C121.195 237 121.81 236.721 122.018 236.172C122.226 235.621 121.948 235.006 121.398 234.799Z" fill="black"/>
<path fill-rule="evenodd" clip-rule="evenodd" d="M127.41 214.14C127.363 218.114 127.205 224.497 126.961 227.859C126.919 228.446 127.36 228.956 127.946 228.999C128.533 229.041 129.044 228.6 129.086 228.013C129.332 224.619 129.492 218.176 129.539 214.164C129.546 213.576 129.075 213.094 128.487 213.086C127.899 213.08 127.416 213.552 127.41 214.14Z" fill="black"/>
<path fill-rule="evenodd" clip-rule="evenodd" d="M154.524 489.497C154.751 484.494 155.116 476.374 154.747 471.203C154.747 471.203 154.225 470.249 165.879 471.203C165.64 471.711 167.127 478.957 169.586 481.61C171.915 484.123 178.449 486.098 179.703 489.497H154.524Z" fill="black"/>
<path fill-rule="evenodd" clip-rule="evenodd" d="M154.418 471.352C154.782 476.512 154.418 484.583 154.192 489.559C154.187 489.674 154.229 489.787 154.308 489.87C154.388 489.953 154.499 490 154.614 490H179.792C179.93 490 180.059 489.933 180.138 489.82C180.217 489.706 180.236 489.562 180.187 489.433C179.659 488 178.259 486.789 176.59 485.704C174.244 484.18 171.364 482.893 169.985 481.405C168.306 479.594 167.11 475.58 166.612 473.17C166.439 472.33 166.374 471.492 166.369 471.417C166.406 471.304 166.394 471.179 166.334 471.074C166.264 470.954 166.141 470.876 166.003 470.865C157.708 470.186 155.479 470.486 154.888 470.711C154.487 470.863 154.442 471.074 154.423 471.159C154.405 471.238 154.408 471.304 154.418 471.352ZM165.529 471.673C165.54 471.858 165.567 472.093 165.61 472.372C165.955 474.625 167.351 479.804 169.366 481.979C170.551 483.258 172.802 484.41 174.922 485.666C176.673 486.703 178.344 487.801 179.128 489.157H155.055C155.28 484.191 155.606 476.524 155.272 471.483C155.44 471.439 155.767 471.37 156.23 471.334C157.574 471.233 160.242 471.25 165.529 471.673ZM155.254 471.258L154.836 471.707L155.208 471.086C155.208 471.086 155.215 471.099 155.223 471.118C155.231 471.138 155.253 471.186 155.254 471.258Z" fill="black"/>
<path fill-rule="evenodd" clip-rule="evenodd" d="M217.736 153.915C218.582 147.44 223.278 133.361 227.217 126.164C227.35 129.811 227.869 133.878 226.803 139.249C230.172 139.373 233.422 143.815 234.038 146.139C234.111 150.516 231.053 156.238 227.968 159.05" fill="white"/>
<path fill-rule="evenodd" clip-rule="evenodd" d="M218.723 153.985C219.431 148.56 222.881 137.729 226.286 130.237C226.385 132.779 226.355 135.618 225.689 138.973C225.629 139.279 225.705 139.597 225.899 139.842C226.092 140.086 226.383 140.234 226.695 140.245C227.814 140.286 228.898 140.94 229.851 141.787C231.351 143.118 232.528 144.965 232.904 146.219C232.909 150.313 230.045 155.583 227.181 158.194C226.747 158.589 226.715 159.264 227.112 159.699C227.507 160.133 228.182 160.164 228.616 159.768C231.89 156.783 235.111 150.699 235.033 146.052C235.032 145.966 235.02 145.881 234.998 145.797C234.591 144.263 233.161 141.876 231.265 140.193C230.265 139.305 229.138 138.62 227.977 138.304C228.797 133.362 228.338 129.522 228.212 126.056C228.195 125.577 227.86 125.168 227.393 125.058C226.926 124.948 226.443 125.163 226.213 125.583C222.221 132.876 217.468 147.146 216.611 153.709C216.534 154.292 216.946 154.827 217.529 154.903C218.111 154.979 218.647 154.568 218.723 153.985Z" fill="black"/>
<path fill-rule="evenodd" clip-rule="evenodd" d="M234.28 147.044C234.219 148.195 233.89 154.841 233.444 155.854C233.141 156.539 231.201 157.009 230.899 156.232" fill="black"/>
<path fill-rule="evenodd" clip-rule="evenodd" d="M232.429 155.273C232.358 155.311 232.164 155.411 232.028 155.447C231.92 155.476 231.758 155.487 231.656 155.491C231.373 155.142 230.887 154.999 230.445 155.169C229.897 155.382 229.624 155.999 229.837 156.547C230.103 157.236 230.857 157.675 231.822 157.626C232.482 157.593 233.222 157.337 233.699 156.988C234.011 156.76 234.229 156.487 234.348 156.215C234.502 155.865 234.674 154.936 234.799 153.766C235.055 151.371 235.231 147.843 235.274 147.03C235.304 146.443 234.852 145.942 234.264 145.911C233.678 145.881 233.177 146.333 233.146 146.92C233.104 147.718 232.932 151.186 232.681 153.54C232.597 154.324 232.527 154.968 232.429 155.273Z" fill="black"/>
<mask id="mask1_3566_43374" style="mask-type:alpha" maskUnits="userSpaceOnUse" x="93" y="383" width="78" height="90">
<path fill-rule="evenodd" clip-rule="evenodd" d="M102.26 387.708C102.398 400.874 94.8053 459.74 93.5967 472.235H115.43C119.631 447.165 124.783 411.607 127.098 395.687L146.354 394.67C146.492 407.837 147.627 457.416 148.759 471.223H170.593C170.669 442.931 170.478 395.763 169.524 383.299L102.26 387.708Z" fill="#B2CEFF"/>
</mask>
<g mask="url(#mask1_3566_43374)">
<path fill-rule="evenodd" clip-rule="evenodd" d="M102.26 387.708C102.398 400.874 94.8053 459.74 93.5967 472.235H115.43C119.631 447.165 124.783 411.607 127.098 395.687L146.354 394.67C146.492 407.837 147.627 457.416 148.759 471.223H170.593C170.669 442.931 170.478 395.763 169.524 383.299L102.26 387.708Z" fill="#DAE7FE"/>
<path fill-rule="evenodd" clip-rule="evenodd" d="M118.756 465.889C118.58 466.065 118.488 465.504 118.435 465.366C118.079 464.44 117.719 463.514 117.344 462.597C116.633 460.858 111.055 449.588 111.306 447.724C111.817 443.929 117.362 453.504 121.823 455.68" fill="black"/>
<path fill-rule="evenodd" clip-rule="evenodd" d="M171.211 446.452C164.759 433.116 154.402 420.695 157.015 416.946C158.833 414.337 166.516 429.124 171.51 432.954" fill="black"/>
<path fill-rule="evenodd" clip-rule="evenodd" d="M100.708 402.186C105.448 401.37 110.477 402.5 113.359 401.225C115.708 400.186 112.867 397.447 113.119 397.337C114.072 396.926 117.57 396.972 118.554 396.958C122.094 396.911 139.286 396.303 145.026 395.55L143.731 404.199C153.427 403.538 156.722 401.386 154.189 397.874C158.165 395.477 170.208 396.156 172.577 393.834L172.474 386.93L98.8164 392.084L100.708 402.186Z" fill="black"/>
</g>
<path fill-rule="evenodd" clip-rule="evenodd" d="M102.119 386.576C101.555 386.613 101.118 387.084 101.124 387.649C101.261 400.798 93.672 459.585 92.4648 472.064C92.4364 472.363 92.5344 472.66 92.7368 472.883C92.9384 473.105 93.2246 473.231 93.525 473.231H115.358C115.879 473.231 116.323 472.856 116.409 472.342C120.536 447.708 125.583 412.951 127.955 396.634C129.53 396.552 133.778 396.328 145.23 395.723C145.415 410.37 146.523 457.783 147.626 471.241C147.672 471.793 148.133 472.219 148.688 472.219H170.521C171.109 472.219 171.584 471.744 171.587 471.156C171.662 442.837 171.469 395.624 170.515 383.148C170.47 382.566 169.965 382.129 169.383 382.166L102.119 386.576ZM103.251 388.636L168.464 384.362C169.342 398.047 169.526 442.473 169.459 470.088H149.674C148.569 455.073 147.482 407.448 147.348 394.59C147.345 394.299 147.223 394.023 147.012 393.824C146.8 393.625 146.516 393.522 146.226 393.537C128.896 394.453 126.989 394.553 126.989 394.553L127.026 396.683C126.717 396.683 126.423 396.549 126.221 396.315C126.019 396.081 125.928 395.771 125.972 395.465C123.686 411.193 118.628 446.093 114.457 471.101H94.7032C96.181 456.822 103.042 403.137 103.251 388.636Z" fill="black"/>
<path fill-rule="evenodd" clip-rule="evenodd" d="M147.837 211.448C147.88 213.764 147.907 215.324 148.407 217.59C148.534 218.164 149.103 218.528 149.677 218.401C150.251 218.274 150.614 217.705 150.487 217.131C150.022 215.02 150.007 213.566 149.967 211.409C149.956 210.821 149.47 210.352 148.882 210.362C148.294 210.374 147.826 210.86 147.837 211.448Z" fill="black"/>
<path fill-rule="evenodd" clip-rule="evenodd" d="M176.128 390.222C177.133 363.134 176.962 278.894 176.751 248.4C217.51 220.978 231.848 178.704 230.188 162.459C229.184 159.632 222.241 154.396 215.872 154.08C214.747 157.902 210.963 174.408 195.695 189.693C175.115 210.294 129.827 222.167 117.394 236.925C103.521 263.865 101.418 347.564 94.9551 394.065C126.216 391.345 153.066 390.135 176.128 390.222Z" fill="white"/>
<path fill-rule="evenodd" clip-rule="evenodd" d="M127.944 390.85C129.94 383.226 131.92 357.986 135.17 354.799C138.211 351.823 137.289 376.831 138.451 390.288L127.944 390.85Z" fill="black"/>
<path fill-rule="evenodd" clip-rule="evenodd" d="M183.039 199.569C183.293 202.789 181.247 207.301 182.077 208.026C184.059 209.757 190.591 197.4 192.373 193.115" fill="black"/>
<path fill-rule="evenodd" clip-rule="evenodd" d="M176.436 248.263C175.998 248.578 161.872 256.678 161.906 261.343C161.928 264.356 172.091 264.386 170.019 267.156C168.002 269.854 165.471 273.243 168.459 277.135C170.534 279.837 174.241 283.092 176.95 289.403" fill="black"/>
<path fill-rule="evenodd" clip-rule="evenodd" d="M169.107 266.43L169.096 266.448C166.824 269.485 164.179 273.331 167.543 277.713C169.581 280.368 173.239 283.554 175.901 289.754C176.133 290.294 176.76 290.544 177.3 290.313C177.84 290.08 178.09 289.453 177.859 288.914C175.101 282.49 171.345 279.166 169.233 276.416C166.62 273.012 169.037 270.083 170.801 267.724C171.295 267.065 171.367 266.464 171.239 265.942C171.083 265.313 170.527 264.697 169.593 264.227C168.216 263.532 165.858 263.015 164.189 262.258C163.829 262.095 163.507 261.922 163.253 261.725C163.071 261.584 162.902 261.461 162.901 261.266C162.897 260.743 163.169 260.177 163.572 259.566C164.072 258.808 164.784 258.016 165.615 257.219C169.739 253.259 176.685 249.275 176.988 249.057C177.465 248.714 177.573 248.048 177.23 247.57C176.886 247.093 176.22 246.985 175.743 247.329C175.433 247.552 168.352 251.638 164.139 255.682C162.981 256.794 162.033 257.911 161.457 258.948C160.999 259.77 160.766 260.561 160.771 261.281C160.777 262.145 161.235 262.899 162.08 263.508C163.382 264.446 165.806 265.053 167.632 265.712C167.932 265.821 168.214 265.931 168.465 266.048C168.64 266.128 168.799 266.211 168.936 266.298C168.991 266.334 169.057 266.387 169.107 266.43Z" fill="black"/>
<path fill-rule="evenodd" clip-rule="evenodd" d="M176.055 391.217C176.629 391.219 177.102 390.765 177.123 390.191C178.123 363.262 177.959 279.864 177.751 248.893C218.584 221.168 232.849 178.637 231.178 162.281C231.169 162.196 231.151 162.113 231.122 162.033C230.676 160.776 229.219 159.053 227.124 157.461C224.142 155.195 219.886 153.146 215.855 152.946C215.363 152.921 214.919 153.237 214.78 153.709C213.67 157.481 209.944 173.781 194.872 188.869C182.597 201.158 161.465 210.294 143.866 218.828C131.9 224.631 121.552 230.183 116.51 236.168C116.459 236.23 116.414 236.296 116.378 236.367C110.791 247.216 107.071 267.203 104.237 290.284C100.015 324.667 97.7077 365.952 93.8302 393.848C93.7862 394.17 93.8899 394.494 94.1136 394.729C94.3366 394.964 94.6547 395.084 94.9778 395.056C126.201 392.34 153.02 391.13 176.055 391.217ZM175.031 389.084C152.502 389.037 126.389 390.216 96.1219 392.819C99.8921 364.943 102.194 324.398 106.352 290.544C109.138 267.852 112.736 248.179 118.216 237.452C123.15 231.663 133.216 226.36 144.795 220.745C162.604 212.109 183.958 202.809 196.379 190.375C210.914 175.825 215.181 160.186 216.587 155.144C219.941 155.543 223.368 157.283 225.835 159.157C227.45 160.384 228.666 161.644 229.071 162.633C230.619 178.806 216.293 220.396 176.087 247.446C175.791 247.645 175.614 247.98 175.616 248.337C175.825 278.445 175.995 360.963 175.031 389.084Z" fill="black"/>
<path d="M131.766 489.227H194.803" stroke="black" stroke-width="3.55073" stroke-miterlimit="1.5" stroke-linecap="round" stroke-linejoin="round"/>
<path d="M39.8066 489.511H50.0242" stroke="black" stroke-width="3.55073" stroke-miterlimit="1.5" stroke-linecap="round" stroke-linejoin="round"/>
<path d="M58.2227 489.511H123.17" stroke="black" stroke-width="3.55073" stroke-miterlimit="1.5" stroke-linecap="round" stroke-linejoin="round"/>
<path d="M205.312 489.511C205.312 489.511 227.452 489.511 229.19 489.511" stroke="black" stroke-width="3.55073" stroke-miterlimit="1.5" stroke-linecap="round" stroke-linejoin="round"/>
<path fill-rule="evenodd" clip-rule="evenodd" d="M374.81 144.705C363.568 154.224 377.031 164.673 386.652 164.576C398.306 164.458 387.617 141.695 374.81 144.705Z" fill="#DAE7FE"/>
<path fill-rule="evenodd" clip-rule="evenodd" d="M30.0704 204.907C15.6398 224.473 3.52288 190.292 24.8586 149.323C37.7666 124.537 62.5568 112.603 70.1896 124.654C72.8956 128.177 55.1221 148.146 44.0808 167.815C34.732 184.469 32.2408 201.156 30.0704 204.907Z" fill="#DAE7FE"/>
<defs>
<clipPath id="clip0_3566_43374">
<rect width="150.908" height="150.908" fill="white" transform="translate(162.33 49.8745)"/>
</clipPath>
</defs>
</svg>
