<svg width="21" height="20" viewBox="0 0 21 20" fill="none" xmlns="http://www.w3.org/2000/svg">
<path d="M19.6366 9.58L10.6366 0.58C10.2766 0.22 9.77656 0 9.22656 0H2.22656C1.12656 0 0.226562 0.9 0.226562 2V9C0.226562 9.55 0.446562 10.05 0.816562 10.42L9.81656 19.42C10.1766 19.78 10.6766 20 11.2266 20C11.7766 20 12.2766 19.78 12.6366 19.41L19.6366 12.41C20.0066 12.05 20.2266 11.55 20.2266 11C20.2266 10.45 19.9966 9.94 19.6366 9.58ZM11.2266 18.01L2.22656 9V2H9.22656V1.99L18.2266 10.99L11.2266 18.01Z" fill="#00B16F"/>
<path d="M4.72656 6C5.55499 6 6.22656 5.32843 6.22656 4.5C6.22656 3.67157 5.55499 3 4.72656 3C3.89814 3 3.22656 3.67157 3.22656 4.5C3.22656 5.32843 3.89814 6 4.72656 6Z" fill="#00B16F"/>
</svg>
