<svg width="17" height="22" viewBox="0 0 17 22" fill="none" xmlns="http://www.w3.org/2000/svg">
<path fill-rule="evenodd" clip-rule="evenodd" d="M3.09743 11.7997H8.22643C8.51043 11.7997 8.78143 11.9207 8.97043 12.1317C9.15943 12.3427 9.25043 12.6247 9.22043 12.9067L8.77143 17.0567L13.3554 10.1997H8.22643C7.94243 10.1997 7.67143 10.0787 7.48243 9.86774C7.29243 9.65674 7.20143 9.37474 7.23243 9.09274L7.68143 4.94374L3.09743 11.7997ZM7.33743 21.9997C7.22343 21.9997 7.10843 21.9807 6.99543 21.9397C6.56343 21.7817 6.29343 21.3497 6.34343 20.8927L7.11243 13.7997H1.22643C0.857434 13.7997 0.518434 13.5967 0.344434 13.2717C0.170434 12.9457 0.190434 12.5507 0.395434 12.2437L8.28443 0.444737C8.53943 0.0607372 9.02343 -0.0972628 9.45643 0.0607372C9.88943 0.217737 10.1594 0.650737 10.1094 1.10774L9.34043 8.19974H15.2264C15.5954 8.19974 15.9344 8.40374 16.1084 8.72874C16.2824 9.05474 16.2624 9.44874 16.0574 9.75574L8.16843 21.5557C7.97943 21.8397 7.66343 21.9997 7.33743 21.9997Z" fill="#00B16F"/>
</svg>
