<svg width="24" height="24" viewBox="0 0 24 24" fill="none" xmlns="http://www.w3.org/2000/svg">
<path fill-rule="evenodd" clip-rule="evenodd" d="M18.8284 4.82843C17.2663 3.26633 14.7337 3.26633 13.1716 4.82843L11.0506 6.9494C11.9005 6.82872 12.7755 6.9269 13.5845 7.24393L14.5858 6.24264C15.3668 5.46159 16.6332 5.46159 17.4142 6.24264C18.1953 7.02369 18.1953 8.29002 17.4142 9.07107L13.8787 12.6066C13.0976 13.3877 11.8313 13.3877 11.0503 12.6066C10.6597 12.2161 10.0266 12.2161 9.63604 12.6066C9.24551 12.9971 9.24551 13.6303 9.63604 14.0208C11.1981 15.5829 13.7308 15.5829 15.2929 14.0208L18.8284 10.4853C20.3905 8.92318 20.3905 6.39052 18.8284 4.82843Z" fill="#5D6475"/>
<path fill-rule="evenodd" clip-rule="evenodd" d="M5.39337 18.2634C6.95547 19.8255 9.48813 19.8255 11.0502 18.2634L13.1712 16.1424C12.3213 16.2631 11.4463 16.1649 10.6373 15.8479L9.63602 16.8492C8.85497 17.6302 7.58864 17.6302 6.80759 16.8492C6.02654 16.0681 6.02654 14.8018 6.80759 14.0207L10.3431 10.4852C11.1242 9.70415 12.3905 9.70415 13.1715 10.4852C13.5621 10.8757 14.1952 10.8757 14.5858 10.4852C14.9763 10.0947 14.9763 9.46151 14.5858 9.07098C13.0237 7.50888 10.491 7.50888 8.92891 9.07098L5.39337 12.6065C3.83128 14.1686 3.83128 16.7013 5.39337 18.2634Z" fill="#5D6475"/>
</svg>
