<svg width="16" height="16" viewBox="0 0 16 16" fill="none" xmlns="http://www.w3.org/2000/svg">
<path fill-rule="evenodd" clip-rule="evenodd" d="M6.80008 1.6665C5.80597 1.6665 5.00008 2.47239 5.00008 3.4665V3.6665H2.66675C2.11446 3.6665 1.66675 4.11422 1.66675 4.6665C1.66675 5.21879 2.11446 5.6665 2.66675 5.6665H3.07455L3.53144 11.5649C3.65246 13.1272 4.95548 14.3332 6.52248 14.3332H9.47768C11.0447 14.3332 12.3477 13.1272 12.4687 11.5649L12.9256 5.6665H13.3334C13.8857 5.6665 14.3334 5.21879 14.3334 4.6665C14.3334 4.11422 13.8857 3.6665 13.3334 3.6665H11.0001V3.4665C11.0001 2.47239 10.1942 1.6665 9.20008 1.6665H6.80008ZM5.52547 11.4104L5.08054 5.6665H10.9196L10.4747 11.4104C10.4344 11.9312 10 12.3332 9.47768 12.3332H6.52248C6.00015 12.3332 5.56581 11.9312 5.52547 11.4104Z" fill="#0961B6"/>
</svg>
