<svg width="37" height="38" viewBox="0 0 37 38" fill="none" xmlns="http://www.w3.org/2000/svg">
<circle cx="18.5" cy="19.5" r="16.5" stroke="#CDD1DD" stroke-width="4"/>
<path d="M4.83061 31.8318C5.55742 32.6635 6.82089 32.7486 7.65265 32.0218C8.48441 31.295 8.56949 30.0315 7.84268 29.1998L4.83061 31.8318ZM7.57541 6.85745L6.25941 5.35142L7.57541 6.85745ZM29.6802 10.1177C30.407 10.9495 31.6705 11.0346 32.5022 10.3078C33.334 9.58095 33.4191 8.31748 32.6922 7.48572L29.6802 10.1177ZM7.84268 29.1998C2.35431 22.9189 2.90322 13.5961 8.89141 8.36348L6.25941 5.35142C-1.47643 12.1111 -2.03675 23.9727 4.83061 31.8318L7.84268 29.1998ZM8.89141 8.36348C14.8796 3.13088 24.1918 3.83683 29.6802 10.1177L32.6922 7.48572C25.8249 -0.3733 13.9953 -1.40831 6.25941 5.35142L8.89141 8.36348Z" fill="#0961B6"/>
</svg>
