<svg width="24" height="24" viewBox="0 0 24 24" fill="none" xmlns="http://www.w3.org/2000/svg">
<path fill-rule="evenodd" clip-rule="evenodd" d="M12 2C9.51472 2 7.5 4.01472 7.5 6.5V9C5.84315 9 4.5 10.3431 4.5 12V18.4338C4.5 19.128 4.86936 19.8324 5.57943 20.1637C6.59198 20.6361 8.87008 21.5 12 21.5C15.1299 21.5 17.408 20.6361 18.4206 20.1637C19.1306 19.8324 19.5 19.1279 19.5 18.4338V12C19.5 10.3431 18.1569 9 16.5 9V6.5C16.5 4.01472 14.4853 2 12 2ZM14.5 9V6.5C14.5 5.11929 13.3807 4 12 4C10.6193 4 9.5 5.11929 9.5 6.5V9H14.5ZM6.5 12C6.5 11.4477 6.94772 11 7.5 11H16.5C17.0523 11 17.5 11.4477 17.5 12V18.3858C16.6331 18.7802 14.6822 19.5 12 19.5C9.3178 19.5 7.36687 18.7802 6.5 18.3858V12ZM13 15.6181C13.3069 15.3434 13.5 14.9443 13.5 14.5C13.5 13.6716 12.8284 13 12 13C11.1716 13 10.5 13.6716 10.5 14.5C10.5 14.9443 10.6931 15.3434 11 15.6181V16.5C11 17.0523 11.4477 17.5 12 17.5C12.5523 17.5 13 17.0523 13 16.5V15.6181Z" fill="#F8F8F8"/>
</svg>
