<svg width="94" height="56" viewBox="0 0 94 56" fill="none" xmlns="http://www.w3.org/2000/svg">
<path fill-rule="evenodd" clip-rule="evenodd" d="M36.9837 0C39.0384 0 41.2985 1.34317 43.0449 3.61624L53.2154 16.8413C54.14 18.1845 54.4482 19.9409 54.2427 21.5941C54.0373 22.524 53.5236 23.2472 52.8045 23.8672L51.5717 24.9004C50.9553 25.5203 50.2362 25.8303 49.517 25.9336C49.6197 26.9666 49.7225 28.0002 49.7225 29.0332C49.7225 42.6716 38.7302 53.8303 25.0668 53.8303C18.3892 53.8303 12.328 51.1439 7.91047 46.8044C8.83506 46.4944 9.86238 46.1845 10.8897 46.1845H11.6088C11.7629 46.1845 11.9941 46.2103 12.2252 46.2362C12.4564 46.262 12.6875 46.2878 12.8416 46.2878C12.9444 46.3911 13.0471 46.3911 13.1498 46.3911C13.2012 46.3911 13.2782 46.417 13.3553 46.4428C13.4323 46.4686 13.5094 46.4945 13.5607 46.4945C13.6635 46.5978 13.7662 46.5978 13.869 46.5978C13.9267 46.6558 14.0167 46.6812 14.121 46.7107C14.2024 46.7337 14.2925 46.7591 14.3826 46.8044H14.4853C14.7934 46.9077 14.9989 47.011 15.2043 47.1143L15.8209 47.4243C15.8209 47.5277 15.9236 47.5277 15.9236 47.5277C16.0263 47.5793 16.1034 47.631 16.1804 47.6826C16.2575 47.7343 16.3345 47.786 16.4373 47.8376H16.54C16.7454 47.9409 16.8481 48.0442 17.0535 48.2508C17.7726 48.974 18.6974 49.3874 19.7247 49.3874C22.3957 49.3874 24.4504 46.4945 23.0121 43.6015C22.3957 42.3616 21.0602 41.6384 19.7247 41.7417C18.6974 41.7417 17.7728 42.155 17.0536 42.8782C15.7181 44.2214 13.458 44.6347 11.3007 44.6347C9.04055 44.6347 4.93124 43.6015 3.39026 41.5351C2.76379 40.59 2.37609 39.4048 1.99966 38.254C1.88225 37.895 1.76594 37.5395 1.64382 37.1956C2.8766 36.7823 4.62305 36.4723 6.57497 36.2657C7.49956 36.1624 8.52687 36.059 9.5542 36.059H16.4373C16.6427 36.1623 16.8482 36.1624 17.0536 36.1624H17.2591C17.4132 36.1624 17.5416 36.1882 17.67 36.214C17.7984 36.2399 17.9269 36.2657 18.081 36.2657H18.2864C18.329 36.2657 18.3892 36.2834 18.4597 36.3042C18.5594 36.3336 18.6797 36.369 18.8001 36.369H19.0056C19.1083 36.369 19.1854 36.3948 19.2624 36.4207C19.3395 36.4465 19.4165 36.4723 19.5192 36.4723H19.7247C19.8274 36.4723 19.9045 36.4981 19.9815 36.524C20.0586 36.5498 20.1356 36.5756 20.2383 36.5756H20.4438L21.6766 36.8856H21.7793C21.8821 36.8856 22.0875 36.8856 22.1902 36.9889H22.293C22.3444 37.0406 22.3957 37.0664 22.4471 37.0922C22.4985 37.1181 22.5498 37.1439 22.6012 37.1956H22.7039C22.9094 37.4022 30.1006 42.2583 30.1006 42.2583L38.2165 33.8893V25.6236H33.4908L27.5323 19.631L28.7651 18.3911L34.2099 23.8672H48.387C49.1061 23.8672 49.7225 23.6605 50.2362 23.2472L50.9553 22.6273L48.6952 20.3543L49.928 19.1144L52.1881 21.3875C52.3935 20.9742 52.599 20.3542 52.599 19.7343C52.599 19.0111 52.2908 18.2878 51.8799 17.7712L41.7094 4.54612C40.6821 3.20295 38.8329 1.65314 36.9837 1.65314H16.3345L24.7586 5.68266V7.54242H22.293C21.7715 8.06686 21.2383 8.5913 20.7133 9.10773C19.6866 10.1175 18.6911 11.0966 17.8755 11.9852C17.8755 11.7786 17.7728 11.6753 17.6701 11.572L17.2591 11.1587C16.8482 10.7454 16.3345 10.4354 15.8209 10.2288C15.7181 10.2288 15.6411 10.2029 15.564 10.1771C15.487 10.1513 15.4099 10.1254 15.3072 10.1254H14.6908C14.0744 10.1254 13.458 10.2288 12.9443 10.5388C11.7116 11.1587 10.8897 12.5018 10.8897 13.9483C10.8897 15.9114 12.328 17.5646 14.1771 17.7712H15.3072V22.9373C14.6908 23.1439 14.1771 23.2472 13.5607 23.3506C12.6362 23.5572 11.7118 23.5572 10.7873 23.5572C10.2736 23.5572 9.75967 23.4539 9.24601 23.3506H9.04053C8.98917 23.3506 8.91212 23.3247 8.83507 23.2989C8.75803 23.2731 8.68098 23.2472 8.62961 23.2472C8.62961 23.1439 8.52687 23.1439 8.42413 23.1439C8.3214 23.0922 8.21867 23.0664 8.11593 23.0406C8.0132 23.0148 7.91047 22.9889 7.80773 22.9373C7.75637 22.9373 7.70501 22.9114 7.65364 22.8856C7.60228 22.8598 7.55092 22.834 7.49955 22.834C7.44818 22.834 7.39682 22.8081 7.34546 22.7823C7.2941 22.7565 7.24273 22.7306 7.19137 22.7306C7.11289 22.6912 7.04939 22.6668 6.99516 22.6459C6.90741 22.6122 6.8439 22.5878 6.78041 22.524C6.67768 22.4206 4.21213 20.8708 3.493 20.6642C2.87661 20.4576 2.36294 20.3543 1.64382 20.3543C4.00666 13.7417 9.14326 8.47233 15.6154 5.78598C14.1771 4.75277 12.8416 3.40961 12.0198 1.75647L11.3007 0H36.9837ZM20.752 6.09593L20.9575 5.88931L14.7935 2.9963C15.5127 3.71955 16.3345 4.4428 17.1564 5.06272C18.081 5.78597 19.1083 6.30258 20.0329 6.71587L20.752 6.09593Z" fill="white"/>
<path d="M37.7026 10.4354L38.6272 11.3653L39.86 10.1254L37.4972 7.74908H32.2578L32.4633 8.78229C32.7715 10.2288 33.9015 11.262 35.4425 11.3653C36.5726 11.4686 37.7026 10.4354 37.7026 10.4354Z" fill="white"/>
<path d="M18.6973 33.631C18.5945 33.6568 18.4918 33.6827 18.3891 33.6827C12.4306 34.5092 3.39016 34.0959 0.205461 32.3395C0.102729 30.9963 0 29.6531 0 28.31C0.513602 28.4133 1.02738 28.5166 1.54098 28.5166C3.74342 28.5166 4.67762 27.7317 5.29427 27.2136L5.34207 27.1734C5.34207 27.1734 5.85574 26.7601 5.95847 26.6568C6.00984 26.6052 6.0612 26.5793 6.11257 26.5535C6.16393 26.5277 6.21529 26.5019 6.26666 26.4502C6.31802 26.3985 6.36939 26.3727 6.42076 26.3469C6.47214 26.321 6.52351 26.2952 6.57487 26.2435C6.65336 26.2041 6.71686 26.1797 6.77109 26.1589C6.85882 26.1252 6.92231 26.1008 6.9858 26.0369C7.03716 26.0369 7.08852 26.0111 7.13989 25.9853C7.19125 25.9594 7.24261 25.9336 7.29398 25.9336C7.34535 25.9336 7.39672 25.9078 7.44809 25.8819C7.49946 25.8561 7.55083 25.8303 7.6022 25.8303C7.70492 25.7786 7.80764 25.7528 7.91037 25.7269C8.0131 25.7011 8.11587 25.6753 8.21859 25.6236C8.21859 25.5203 8.32126 25.5203 8.42396 25.5203C8.47533 25.5203 8.55245 25.4945 8.6295 25.4687C8.70655 25.4428 8.7836 25.417 8.83496 25.417H9.04044C9.55404 25.3137 10.0678 25.2103 10.5814 25.2103C11.506 25.107 12.4306 25.2103 13.3552 25.417C14.3825 25.727 15.3071 26.2436 15.9235 27.0701L20.9574 33.1661C20.7801 33.2017 20.5783 33.2497 20.3604 33.3015C19.9472 33.3997 19.4763 33.5117 19.0055 33.5793C18.9027 33.5793 18.8 33.6052 18.6973 33.631Z" fill="white"/>
<path fill-rule="evenodd" clip-rule="evenodd" d="M58.2494 43.4982V44.428H57.2221V43.4982C55.1674 43.2915 53.6264 42.2583 53.6264 40.1919C53.6264 38.1255 55.1674 37.0923 57.2221 36.8856V35.9557H58.2494V36.8856C60.304 37.0923 61.845 38.1255 61.845 40.1919C61.845 42.2583 60.304 43.2915 58.2494 43.4982ZM60.715 40.1919C60.715 38.5387 59.3794 37.9188 57.7357 37.9188C56.092 37.9188 54.7565 38.5387 54.7565 40.1919C54.7565 41.6384 55.7838 42.2583 57.2221 42.3616V40.2952H58.2494V42.3616C59.6876 42.2583 60.715 41.6384 60.715 40.1919Z" fill="white"/>
<path fill-rule="evenodd" clip-rule="evenodd" d="M64.1047 41.9484C64.3102 42.5683 64.7211 43.0849 65.543 43.0849C66.1594 43.0849 66.5703 42.7749 66.7758 42.465L67.7004 42.9816C67.2894 43.7048 66.4676 44.2214 65.543 44.2214C64.002 44.2214 62.9747 42.9816 62.9747 41.4318C62.9747 39.882 64.002 38.6421 65.543 38.6421C67.084 38.6421 67.9058 39.882 67.9058 41.4318V41.9484H64.1047ZM64.1047 40.9152H66.7758C66.673 40.1919 66.2621 39.6753 65.4402 39.6753C64.7211 39.6753 64.2075 40.1919 64.1047 40.9152Z" fill="white"/>
<path fill-rule="evenodd" clip-rule="evenodd" d="M71.9125 44.2214C73.4535 44.2214 74.378 42.9815 74.378 41.4317C74.378 39.8819 73.4535 38.642 71.9125 38.7453C71.1934 38.7453 70.6797 38.952 70.2688 39.3653V38.7453H69.2414V46.5978H70.2688V43.6014C70.6797 44.0147 71.1934 44.2214 71.9125 44.2214ZM71.707 39.6752C72.6316 39.6752 73.1452 40.5018 73.1452 41.4317C73.1452 42.3616 72.7343 43.0848 71.707 43.1881C70.7824 43.1881 70.2688 42.3616 70.2688 41.4317C70.2688 40.5018 70.7824 39.6752 71.707 39.6752Z" fill="white"/>
<path d="M81.2613 38.7454V44.1181H80.234V40.6051L78.7957 42.8782H78.1793L76.6384 40.6051V44.1181H75.611V38.7454H76.5356L78.4875 41.5351L80.3367 38.7454H81.2613Z" fill="white"/>
<path fill-rule="evenodd" clip-rule="evenodd" d="M85.1649 43.0849C84.3431 43.0849 83.9321 42.5683 83.7267 41.9484H87.5278V41.4318C87.5278 39.882 86.7059 38.6421 85.1649 38.6421C83.6239 38.6421 82.5966 39.882 82.5966 41.4318C82.5966 42.9816 83.6239 44.2214 85.1649 44.2214C86.0895 44.2214 86.9114 43.7048 87.3223 42.9816L86.3977 42.465C86.1922 42.7749 85.7813 43.0849 85.1649 43.0849ZM86.3977 40.9152H83.7267C83.9321 40.1919 84.3431 39.6753 85.0622 39.6753C85.884 39.6753 86.295 40.1919 86.3977 40.9152Z" fill="white"/>
<path fill-rule="evenodd" clip-rule="evenodd" d="M94 41.4317C94 42.9815 93.0754 44.2214 91.5344 44.2214C90.8153 44.2214 90.3016 44.0147 89.8907 43.6014V46.5978H88.8634V38.7453H89.8907V39.3653C90.3016 38.952 90.8153 38.7453 91.5344 38.7453C93.0754 38.642 94 39.8819 94 41.4317ZM92.8699 41.4317C92.8699 40.5018 92.3563 39.6752 91.4317 39.6752C90.5071 39.6752 89.9934 40.5018 89.9934 41.4317C89.9934 42.3616 90.5071 43.1881 91.4317 43.1881C92.3563 43.0848 92.8699 42.3616 92.8699 41.4317Z" fill="white"/>
<path d="M58.3521 52.3838L57.3248 51.8672C57.1193 52.2804 56.7084 52.5904 56.092 52.6937C55.1674 52.6937 54.6538 51.8671 54.6538 50.9372C54.6538 50.0074 55.1674 49.1808 56.092 49.1808C56.7084 49.1808 57.1193 49.3875 57.3248 49.8007L58.3521 49.2841C57.9412 48.5609 57.2221 48.0443 56.1947 48.0443C54.6538 48.0443 53.6264 49.2841 53.6264 50.834C53.6264 52.3838 54.6538 53.6236 56.1947 53.6236C57.1193 53.6236 57.9412 53.107 58.3521 52.3838Z" fill="white"/>
<path fill-rule="evenodd" clip-rule="evenodd" d="M60.4068 51.3506C60.6122 51.9705 61.0232 52.4871 61.845 52.4871C62.4614 52.4871 62.8723 52.1771 63.0778 51.8672L64.0024 52.3838C63.5915 53.107 62.7696 53.6236 61.845 53.6236C60.304 53.6236 59.2767 52.3838 59.2767 50.834C59.2767 49.2841 60.304 48.0443 61.845 48.0443C63.386 48.0443 64.2079 49.2841 64.2079 50.834V51.3506H60.4068ZM60.4068 50.4206H63.0778C62.9751 49.6974 62.5641 49.1808 61.7423 49.1808C61.0231 49.1808 60.6122 49.6974 60.4068 50.4206Z" fill="white"/>
<path fill-rule="evenodd" clip-rule="evenodd" d="M68.214 53.6236C69.755 53.6236 70.6796 52.3838 70.6796 50.834C70.6796 49.2841 69.755 48.0443 68.214 48.1476C67.4949 48.1476 66.9812 48.3542 66.5703 48.7675V48.1476H65.543V56H66.5703V53.0037C66.9812 53.417 67.4949 53.6236 68.214 53.6236ZM68.1113 49.0775C69.0359 49.0775 69.5495 49.9041 69.5495 50.834C69.5495 51.7638 69.0359 52.5904 68.1113 52.5904C67.1867 52.5904 66.673 51.7638 66.673 50.834C66.673 49.9041 67.1867 49.0775 68.1113 49.0775Z" fill="white"/>
<path fill-rule="evenodd" clip-rule="evenodd" d="M76.33 51.8671C76.33 52.797 75.7136 53.5202 74.5836 53.5202H71.9126V48.1476H74.2754C75.4054 48.1476 76.0219 48.8708 76.0219 49.5941C76.0219 50.0073 75.8164 50.3173 75.5082 50.5239C75.9191 50.8339 76.33 51.3505 76.33 51.8671ZM73.0426 49.1808V50.214H74.3781C74.7891 50.214 74.9945 50.0073 74.9945 49.6974C74.9945 49.3874 74.7891 49.1808 74.3781 49.1808H73.0426ZM75.3027 51.8671C75.3027 51.5572 75.0973 51.2472 74.6863 51.2472H73.0426V52.5904H74.6863C74.9945 52.487 75.3027 52.1771 75.3027 51.8671Z" fill="white"/>
<path d="M82.0831 53.5202V48.1476H81.0557L78.6929 51.6605V48.1476H77.5628V53.5202H78.5902L80.953 50.0073V53.5202H82.0831Z" fill="white"/>
<path d="M87.1171 51.8672L88.1445 52.3838C87.7335 53.107 86.9117 53.6236 85.9871 53.6236C84.4461 53.6236 83.4188 52.3838 83.4188 50.834C83.4188 49.2841 84.4461 48.0443 85.9871 48.0443C87.0144 48.0443 87.7335 48.5609 88.1445 49.2841L87.1171 49.8007C86.9117 49.3875 86.5007 49.1808 85.8843 49.1808C84.9598 49.1808 84.4461 50.0074 84.4461 50.9372C84.4461 51.8671 84.9598 52.6937 85.8843 52.6937C86.5007 52.5904 86.9117 52.2804 87.1171 51.8672Z" fill="white"/>
</svg>
