<svg width="63" height="63" viewBox="0 0 63 63" fill="none" xmlns="http://www.w3.org/2000/svg">
<path d="M62.0407 62.0482C60.9628 63.1261 59.215 63.1261 58.137 62.0482L36.7111 40.6222C34.9333 42.163 32.8593 43.363 30.4889 44.2222C28.1185 45.0815 25.6 45.5111 22.9333 45.5111C16.5333 45.5111 11.1111 43.2889 6.66667 38.8444C2.22222 34.4 0 29.037 0 22.7556C0 16.4741 2.22222 11.1111 6.66667 6.66667C11.1111 2.22222 16.5037 0 22.8444 0C29.1259 0 34.4741 2.22222 38.8889 6.66667C43.3037 11.1111 45.5111 16.4741 45.5111 22.7556C45.5111 25.3037 45.0963 27.763 44.2667 30.1333C43.437 32.5037 42.1926 34.7259 40.5333 36.8L62.0333 58.1371C63.1183 59.2138 63.1216 60.9673 62.0407 62.0482ZM22.8444 40.1778C27.6444 40.1778 31.7333 38.4741 35.1111 35.0667C38.4889 31.6593 40.1778 27.5556 40.1778 22.7556C40.1778 17.9556 38.4889 13.8519 35.1111 10.4444C31.7333 7.03704 27.6444 5.33333 22.8444 5.33333C17.9852 5.33333 13.8519 7.03704 10.4444 10.4444C7.03704 13.8519 5.33333 17.9556 5.33333 22.7556C5.33333 27.5556 7.03704 31.6593 10.4444 35.0667C13.8519 38.4741 17.9852 40.1778 22.8444 40.1778ZM25.4222 29.9556C25.4222 31.4283 24.2283 32.6222 22.7556 32.6222C21.2828 32.6222 20.0889 31.4283 20.0889 29.9556V25.3333H15.4667C13.9939 25.3333 12.8 24.1394 12.8 22.6667C12.8 21.1939 13.9939 20 15.4667 20H20.0889V15.4667C20.0889 13.9939 21.2828 12.8 22.7556 12.8C24.2283 12.8 25.4222 13.9939 25.4222 15.4667V20H29.9556C31.4283 20 32.6222 21.1939 32.6222 22.6667C32.6222 24.1394 31.4283 25.3333 29.9556 25.3333H25.4222V29.9556Z" fill="white"/>
</svg>
