<svg width="25" height="24" viewBox="0 0 25 24" fill="none" xmlns="http://www.w3.org/2000/svg">
<path fill-rule="evenodd" clip-rule="evenodd" d="M9.90656 18.0613C8.47168 18.8897 6.63691 18.3981 5.80849 16.9632L4.80849 15.2312C3.98006 13.7963 4.47168 11.9615 5.90656 11.1331L8.96178 9.36915C9.09623 9.29153 9.21076 9.18367 9.29629 9.05412L12.7323 3.85004L13.6238 2.49978L14.4328 3.90103L15.4958 5.74222C17.212 5.26416 19.099 5.98305 20.0309 7.59719C20.9628 9.21132 20.6419 11.205 19.3698 12.4522L20.4328 14.2933L21.2419 15.6946L19.6267 15.7915L13.4019 16.1652C13.2469 16.1745 13.0962 16.2197 12.9618 16.2974L12.189 16.7435L14.8086 19.5994C15.1819 20.0064 15.1546 20.639 14.7476 21.0123C14.3406 21.3857 13.708 21.3584 13.3347 20.9514L10.4147 17.7679L9.90656 18.0613ZM18.2991 10.5975C18.6439 9.99914 18.669 9.23829 18.2989 8.59719C17.9287 7.95608 17.2572 7.59743 16.5666 7.59685L18.2991 10.5975ZM17.2008 12.6953L17.8918 13.8921L13.282 14.1688C12.8171 14.1967 12.3651 14.3324 11.9618 14.5653L8.90656 16.3292C8.42827 16.6054 7.81668 16.4415 7.54054 15.9632L6.54054 14.2312C6.26439 13.7529 6.42827 13.1413 6.90656 12.8651L9.96178 11.1012C10.3651 10.8683 10.7087 10.5448 10.9653 10.1561L13.5098 6.30229L14.2008 7.49911L17.2008 12.6953Z" fill="#5D6475"/>
</svg>
