<svg width="14" height="14" viewBox="0 0 14 14" fill="none" xmlns="http://www.w3.org/2000/svg">
<path fill-rule="evenodd" clip-rule="evenodd" d="M13 7C13 10.3137 10.3137 13 7 13C3.68629 13 1 10.3137 1 7C1 3.68629 3.68629 1 7 1C10.3137 1 13 3.68629 13 7ZM14 7C14 10.866 10.866 14 7 14C3.13401 14 0 10.866 0 7C0 3.13401 3.13401 0 7 0C10.866 0 14 3.13401 14 7ZM7.67981 3.66605C7.49538 3.46053 7.17925 3.44344 6.97374 3.62788C6.76822 3.81232 6.75113 4.12844 6.93557 4.33395L8.87946 6.5H3C2.72386 6.5 2.5 6.72386 2.5 7C2.5 7.27614 2.72386 7.5 3 7.5H8.87946L6.93557 9.66605C6.75113 9.87156 6.76822 10.1877 6.97374 10.3721C7.17925 10.5566 7.49538 10.5395 7.67981 10.334L10.3721 7.33395C10.5426 7.14396 10.5426 6.85604 10.3721 6.66605L7.67981 3.66605Z" fill="#3B82F3"/>
</svg>
