<svg width="22" height="35" viewBox="0 0 22 35" fill="none" xmlns="http://www.w3.org/2000/svg">
<path fill-rule="evenodd" clip-rule="evenodd" d="M10.7646 0.721306C15.3483 0.888807 18.9462 4.75176 18.8357 9.38693C18.7252 14.0221 14.9474 17.7054 10.3611 17.6495C5.77474 17.5936 2.08586 13.8193 2.08594 9.1828C2.17412 4.42496 6.05786 0.638425 10.7646 0.721306ZM10.7628 5.65659C12.6732 5.72523 14.1735 7.33444 14.1283 9.26623C14.083 11.198 12.509 12.7336 10.5976 12.7108C8.68614 12.6879 7.14849 11.1151 7.14844 9.1828C7.18486 7.20084 8.80211 5.62305 10.7628 5.65659ZM10.7617 20.2711C12.847 20.4874 14.9432 19.9832 16.7086 18.8408C16.7086 18.8408 19.3914 16.9432 21.1636 19.556C21.1636 19.556 23.0618 23.7973 15.9661 24.5691C15.9661 24.5691 14.9155 24.6683 15.2237 25.2843C15.5319 25.9003 20.1269 29.8585 20.4211 31.0126C20.7153 32.1668 21.1916 32.4783 19.6786 33.8732C18.1656 35.2682 16.9678 34.9495 14.4742 32.4429C11.9805 29.9363 10.7617 28.8601 10.7617 28.8601V20.2711ZM10.7641 20.2711C8.68112 20.4872 6.58718 19.9829 4.82422 18.8408C4.82422 18.8408 2.14145 16.9432 0.369289 19.556C0.369289 19.556 -1.52896 23.7973 5.56671 24.5691C5.56671 24.5691 6.6174 24.6683 6.3092 25.2843C6.00099 25.9003 1.40597 29.8584 1.11178 31.0126C0.817584 32.1668 0.34127 32.4783 1.85427 33.8732C3.36726 35.2681 4.56505 34.9495 7.05169 32.4429C9.53832 29.9363 10.7641 28.8601 10.7641 28.8601V20.2711Z" fill="white"/>
</svg>
