<svg width="24" height="24" viewBox="0 0 24 24" fill="none" xmlns="http://www.w3.org/2000/svg">
<path fill-rule="evenodd" clip-rule="evenodd" d="M8.5 5C4.63401 5 1.5 8.13401 1.5 12C1.5 15.866 4.63401 19 8.5 19H15.5C19.366 19 22.5 15.866 22.5 12C22.5 8.13401 19.366 5 15.5 5H8.5ZM3.5 12C3.5 9.23858 5.73858 7 8.5 7H15.5C18.2614 7 20.5 9.23858 20.5 12C20.5 14.7614 18.2614 17 15.5 17H8.5C5.73858 17 3.5 14.7614 3.5 12ZM9.5 12C9.5 13.1046 8.60457 14 7.5 14C6.39543 14 5.5 13.1046 5.5 12C5.5 10.8954 6.39543 10 7.5 10C8.60457 10 9.5 10.8954 9.5 12ZM14 12C14 13.1046 13.1046 14 12 14C10.8954 14 10 13.1046 10 12C10 10.8954 10.8954 10 12 10C13.1046 10 14 10.8954 14 12ZM18.5 12C18.5 13.1046 17.6046 14 16.5 14C15.3954 14 14.5 13.1046 14.5 12C14.5 10.8954 15.3954 10 16.5 10C17.6046 10 18.5 10.8954 18.5 12Z" fill="#0961B6"/>
</svg>
