<svg width="24" height="24" viewBox="0 0 24 24" fill="none" xmlns="http://www.w3.org/2000/svg">
<path fill-rule="evenodd" clip-rule="evenodd" d="M11 3C10.4477 3 10 3.44772 10 4V5C10 5.55228 10.4477 6 11 6H13C13.5523 6 14 5.55228 14 5V4C14 3.44772 13.5523 3 13 3H11ZM4 7C4 6.44772 4.44772 6 5 6H9V4H5C3.34315 4 2 5.34315 2 7V17C2 18.6569 3.34315 20 5 20H19C20.6569 20 22 18.6569 22 17V7C22 5.34315 20.6569 4 19 4H15V6H19C19.5523 6 20 6.44772 20 7V17C20 17.5523 19.5523 18 19 18H5C4.44772 18 4 17.5523 4 17V7ZM10.9855 10.4874C10.9855 11.3088 10.3195 11.9748 9.49807 11.9748C8.67661 11.9748 8.01068 11.3088 8.01068 10.4874C8.01068 9.66593 8.67661 9 9.49807 9C10.3195 9 10.9855 9.66593 10.9855 10.4874ZM9.49804 12.6113C10.8689 12.6113 12.1065 13.182 12.9863 14.0987C12.994 14.6023 12.9964 15.2538 12.9972 15.5H6C6.00157 15.2929 6.00293 15.0857 6.00428 14.8785C6.00597 14.6186 6.00767 14.3587 6.0098 14.0987C6.88954 13.182 8.12715 12.6113 9.49804 12.6113ZM14 9.5C14 8.94772 14.4477 8.5 15 8.5H17.5C18.0523 8.5 18.5 8.94772 18.5 9.5C18.5 10.0523 18.0523 10.5 17.5 10.5H15C14.4477 10.5 14 10.0523 14 9.5ZM15 11C14.4477 11 14 11.4477 14 12C14 12.5523 14.4477 13 15 13H17.5C18.0523 13 18.5 12.5523 18.5 12C18.5 11.4477 18.0523 11 17.5 11H15ZM14 14.5C14 13.9477 14.4477 13.5 15 13.5H17.5C18.0523 13.5 18.5 13.9477 18.5 14.5C18.5 15.0523 18.0523 15.5 17.5 15.5H15C14.4477 15.5 14 15.0523 14 14.5Z" fill="#0961B6"/>
</svg>
