<svg width="19" height="19" viewBox="0 0 19 19" fill="none" xmlns="http://www.w3.org/2000/svg">
<g clip-path="url(#clip0_1608_26906)">
<path d="M15.0324 9.38669H16.5808C16.5808 5.53895 13.4608 2.41895 9.61302 2.41895V3.96733C12.6091 3.96733 15.0324 6.39056 15.0324 9.38669ZM11.9356 9.38669H13.484C13.484 7.24991 11.7498 5.51572 9.61302 5.51572V7.06411C10.8982 7.06411 11.9356 8.10153 11.9356 9.38669ZM10.5498 13.5441C8.35882 12.4293 6.56269 10.6409 5.44786 8.44217L7.40657 6.48346L6.93431 2.41895H2.6685C2.21947 10.3002 8.69947 16.7802 16.5808 16.3312V12.0654L12.5008 11.5931L10.5498 13.5441Z" fill="white"/>
</g>
<defs>
<clipPath id="clip0_1608_26906">
<rect width="18.5806" height="18.5806" fill="white" transform="translate(0.322266 0.0966797)"/>
</clipPath>
</defs>
</svg>
