<svg width="34" height="34" viewBox="0 0 34 34" fill="none" xmlns="http://www.w3.org/2000/svg">
<path fill-rule="evenodd" clip-rule="evenodd" d="M9.61518 7.61122C9.06194 7.05798 8.16495 7.05798 7.61171 7.61122C7.05847 8.16446 7.05847 9.06145 7.61171 9.61469L15.2898 17.2928L7.6129 24.9697C7.05965 25.523 7.05965 26.42 7.6129 26.9732C8.16614 27.5264 9.06312 27.5264 9.61637 26.9732L17.2933 19.2963L24.9702 26.9732C25.5235 27.5264 26.4204 27.5264 26.9737 26.9732C27.5269 26.42 27.5269 25.523 26.9737 24.9697L19.2968 17.2928L26.9749 9.61469C27.5281 9.06145 27.5281 8.16446 26.9749 7.61122C26.4216 7.05798 25.5247 7.05798 24.9714 7.61122L17.2933 15.2893L9.61518 7.61122Z" fill="#F8F8F8"/>
</svg>
