<svg width="24" height="24" viewBox="0 0 24 24" fill="none" xmlns="http://www.w3.org/2000/svg">
<path d="M12.1 11.175C9.58333 11.175 7.43733 10.775 5.662 9.975C3.88733 9.175 3 8.21667 3 7.1C3 5.96667 3.88333 5 5.65 4.2C7.41667 3.4 9.56667 3 12.1 3C14.6167 3 16.7627 3.4 18.538 4.2C20.3127 5 21.2 5.96667 21.2 7.1C21.2 8.21667 20.3167 9.175 18.55 9.975C16.7833 10.775 14.6333 11.175 12.1 11.175ZM12.1 16.375C9.58333 16.375 7.43733 15.9707 5.662 15.162C3.88733 14.354 3 13.3917 3 12.275V9.6C3 10.3167 3.32933 10.9333 3.988 11.45C4.646 11.9667 5.44167 12.3877 6.375 12.713C7.30833 13.0377 8.3 13.279 9.35 13.437C10.4 13.5957 11.3167 13.675 12.1 13.675C12.8833 13.675 13.8 13.5957 14.85 13.437C15.9 13.279 16.8917 13.0377 17.825 12.713C18.7583 12.3877 19.5543 11.9667 20.213 11.45C20.871 10.9333 21.2 10.3167 21.2 9.6V12.275C21.2 13.3917 20.3167 14.354 18.55 15.162C16.7833 15.9707 14.6333 16.375 12.1 16.375ZM12.1 21.55C9.58333 21.55 7.43733 21.15 5.662 20.35C3.88733 19.55 3 18.5833 3 17.45V14.775C3 15.4917 3.32933 16.1083 3.988 16.625C4.646 17.1417 5.44167 17.5667 6.375 17.9C7.30833 18.2333 8.3 18.4793 9.35 18.638C10.4 18.796 11.3167 18.875 12.1 18.875C12.8833 18.875 13.8 18.796 14.85 18.638C15.9 18.4793 16.8917 18.2333 17.825 17.9C18.7583 17.5667 19.5543 17.1417 20.213 16.625C20.871 16.1083 21.2 15.4917 21.2 14.775V17.45C21.2 18.5833 20.3167 19.55 18.55 20.35C16.7833 21.15 14.6333 21.55 12.1 21.55Z" fill="#00B16F"/>
</svg>
