<svg width="24" height="24" viewBox="0 0 24 24" fill="none" xmlns="http://www.w3.org/2000/svg">
<path opacity="0.6" fill-rule="evenodd" clip-rule="evenodd" d="M11.9998 5.05273C8.16251 5.05273 5.05176 8.16348 5.05176 12.0008C5.05176 13.4512 5.49615 14.7977 6.25621 15.9118C7.77369 14.534 9.78871 13.6943 11.9998 13.6943C14.2109 13.6943 16.226 14.5339 17.7434 15.9117C18.5035 14.7977 18.9479 13.4511 18.9479 12.0008C18.9479 8.16348 15.8371 5.05273 11.9998 5.05273ZM3.05176 12.0008C3.05176 7.05891 7.05794 3.05273 11.9998 3.05273C16.9417 3.05273 20.9479 7.05891 20.9479 12.0008C20.9479 16.9427 16.9417 20.9488 11.9998 20.9488C7.05794 20.9488 3.05176 16.9427 3.05176 12.0008ZM14.6296 9.40062C14.6296 10.8531 13.4522 12.0305 11.9998 12.0305C10.5473 12.0305 9.3699 10.8531 9.3699 9.40062C9.3699 7.94818 10.5473 6.77075 11.9998 6.77075C13.4522 6.77075 14.6296 7.94818 14.6296 9.40062Z" fill="#5D6475"/>
</svg>
