<svg width="25" height="24" viewBox="0 0 25 24" fill="none" xmlns="http://www.w3.org/2000/svg">
<path fill-rule="evenodd" clip-rule="evenodd" d="M19 4C19 3.44772 18.5523 3 18 3C17.4477 3 17 3.44772 17 4V6.38486C15.7181 5.51137 14.1683 5 12.5 5C8.08172 5 4.5 8.58172 4.5 13C4.5 17.4183 8.08172 21 12.5 21C15.6928 21 18.4468 19.1296 19.7296 16.4291C19.9666 15.9302 19.7543 15.3337 19.2555 15.0967C18.7566 14.8598 18.1601 15.0721 17.9231 15.5709C16.959 17.6003 14.892 19 12.5 19C9.18629 19 6.5 16.3137 6.5 13C6.5 9.68629 9.18629 7 12.5 7C13.7272 7 14.8675 7.36773 15.8181 8H13C12.4477 8 12 8.44772 12 9C12 9.55228 12.4477 10 13 10H18C18.5523 10 19 9.55228 19 9V4Z" fill="#5D6475"/>
</svg>
