<svg width="24" height="24" viewBox="0 0 24 24" fill="none" xmlns="http://www.w3.org/2000/svg">
<path fill-rule="evenodd" clip-rule="evenodd" d="M9.55279 3.89432L11 4.61793V6.9999H6C4.34315 6.9999 3 8.34304 3 9.9999V12.9999C3 14.6567 4.34315 15.9999 6 15.9999H11V18.3819L9.55279 19.1055L10.4472 20.8943L12 20.1179L13.5528 20.8943L14.4472 19.1055L13 18.3819V4.61793L14.4472 3.89432L13.5528 2.10547L12 2.88186L10.4472 2.10547L9.55279 3.89432ZM11 13.9999V8.9999H6C5.44772 8.9999 5 9.44761 5 9.9999V12.9999C5 13.5522 5.44772 13.9999 6 13.9999H11ZM15 8.9999H18C18.5523 8.9999 19 9.44761 19 9.9999V12.9999C19 13.5522 18.5523 13.9999 18 13.9999H15V15.9999H18C19.6569 15.9999 21 14.6568 21 12.9999V9.9999C21 8.34304 19.6569 6.9999 18 6.9999H15V8.9999Z" fill="#FFFFFF"/>
</svg>
