<svg width="18" height="18" viewBox="0 0 18 18" fill="none" xmlns="http://www.w3.org/2000/svg">
<path d="M9 16.2C8.253 16.2 7.65 15.597 7.65 14.85C7.65 14.481 7.803 14.139 8.046 13.896C8.586 13.356 11.7 12.15 11.7 12.15C11.7 12.15 10.494 15.264 9.954 15.804C9.711 16.047 9.369 16.2 9 16.2ZM16.2 16.2H11.7V14.85H14.76C14.067 9.918 9.549 9.765 9 9.765C8.451 9.765 3.933 9.918 3.24 14.85H6.3V16.2H1.8C1.8 10.908 5.148 9.027 7.65 8.55V6.3C4.32 5.895 1.8 4.041 1.8 1.8H16.2C16.2 4.041 13.68 5.895 10.35 6.3V8.55C12.852 9.027 16.2 10.908 16.2 16.2ZM9 5.04C11.403 5.04 13.347 4.185 14.256 3.15H3.744C4.653 4.185 6.597 5.04 9 5.04Z" fill="#00B16F"/>
</svg>
