<svg width="24" height="24" viewBox="0 0 24 24" fill="none" xmlns="http://www.w3.org/2000/svg">
<g opacity="0.6">
<path fill-rule="evenodd" clip-rule="evenodd" d="M12 2C9.51472 2 7.5 4.01472 7.5 6.5V8H7C5.34314 8 4 9.34315 4 11V17.8544C4 18.5583 4.37953 19.2667 5.09609 19.5945C6.16222 20.0824 8.61582 21 12 21C15.3842 21 17.8378 20.0824 18.9039 19.5945C19.6205 19.2667 20 18.5582 20 17.8544V11C20 9.34315 18.6569 8 17 8H16.5V6.5C16.5 4.01472 14.4853 2 12 2ZM14.5 8V6.5C14.5 5.11929 13.3807 4 12 4C10.6193 4 9.5 5.11929 9.5 6.5V8H14.5ZM7.5 10H7C6.44772 10 6 10.4477 6 11V17.8083C6.92323 18.2214 9.05539 19 12 19C14.9446 19 17.0768 18.2214 18 17.8083V11C18 10.4477 17.5523 10 17 10H16.5H14.5H9.5H7.5ZM13 15.6181C13.3069 15.3434 13.5 14.9443 13.5 14.5C13.5 13.6716 12.8284 13 12 13C11.1716 13 10.5 13.6716 10.5 14.5C10.5 14.9443 10.6931 15.3434 11 15.6181V16.5C11 17.0523 11.4477 17.5 12 17.5C12.5523 17.5 13 17.0523 13 16.5V15.6181Z" fill="#5D6475"/>
</g>
</svg>
