<svg width="110" height="110" viewBox="0 0 110 110" fill="none" xmlns="http://www.w3.org/2000/svg">
<path d="M39.4154 72.5832C36.4709 72.5832 33.9709 71.5415 31.9154 69.4582C29.8598 67.3748 28.832 64.8887 28.832 61.9998C28.832 59.0554 29.8598 56.5554 31.9154 54.4998C33.9709 52.4443 36.4709 51.4165 39.4154 51.4165C42.3598 51.4165 44.8598 52.4443 46.9154 54.4998C48.9709 56.5554 49.9987 59.0554 49.9987 61.9998C49.9987 64.8887 48.9709 67.3748 46.9154 69.4582C44.8598 71.5415 42.3598 72.5832 39.4154 72.5832ZM39.4154 69.9998C41.6931 69.9998 43.5959 69.2221 45.1237 67.6665C46.6515 66.1109 47.4154 64.1943 47.4154 61.9165C47.4154 59.6943 46.6515 57.8193 45.1237 56.2915C43.5959 54.7637 41.6931 53.9998 39.4154 53.9998C37.1931 53.9998 35.3043 54.7637 33.7487 56.2915C32.1931 57.8193 31.4154 59.7221 31.4154 61.9998C31.4154 64.2221 32.1931 66.1109 33.7487 67.6665C35.3043 69.2221 37.1931 69.9998 39.4154 69.9998ZM62.9154 80.4998C60.9154 80.4998 59.2348 79.8193 57.8737 78.4582C56.5126 77.0971 55.832 75.4443 55.832 73.4998C55.832 71.4998 56.5126 69.8193 57.8737 68.4582C59.2348 67.0971 60.9154 66.4165 62.9154 66.4165C64.8598 66.4165 66.5265 67.0971 67.9154 68.4582C69.3043 69.8193 69.9987 71.4998 69.9987 73.4998C69.9987 75.4443 69.3043 77.0971 67.9154 78.4582C66.5265 79.8193 64.8598 80.4998 62.9154 80.4998ZM62.832 77.9165C64.1098 77.9165 65.1931 77.4859 66.082 76.6248C66.9709 75.7637 67.4154 74.7221 67.4154 73.4998C67.4154 72.2776 66.9709 71.2221 66.082 70.3332C65.1931 69.4443 64.1376 68.9998 62.9154 68.9998C61.6376 68.9998 60.5681 69.4304 59.707 70.2915C58.8459 71.1526 58.4154 72.1943 58.4154 73.4165C58.4154 74.6387 58.8459 75.6943 59.707 76.5832C60.5681 77.4721 61.6098 77.9165 62.832 77.9165Z" fill="#00B16F"/>
<path d="M68.9154 59.2499C64.7487 59.2499 61.2348 57.8194 58.3737 54.9583C55.5126 52.0971 54.082 48.5833 54.082 44.4166C54.082 40.2499 55.5126 36.736 58.3737 33.8749C61.2348 31.0138 64.7487 29.5833 68.9154 29.5833C73.082 29.5833 76.5959 31.0138 79.457 33.8749C82.3181 36.736 83.7487 40.2499 83.7487 44.4166C83.7487 48.5833 82.3181 52.0971 79.457 54.9583C76.5959 57.8194 73.082 59.2499 68.9154 59.2499ZM68.9154 56.6666C72.3598 56.6666 75.2626 55.486 77.6237 53.1249C79.9848 50.7638 81.1654 47.861 81.1654 44.4166C81.1654 40.9721 79.9848 38.0694 77.6237 35.7083C75.2626 33.3471 72.3598 32.1666 68.9154 32.1666C65.4709 32.1666 62.5681 33.3471 60.207 35.7083C57.8459 38.0694 56.6654 40.9721 56.6654 44.4166C56.6654 47.861 57.8459 50.7638 60.207 53.1249C62.5681 55.486 65.4709 56.6666 68.9154 56.6666Z" fill="#00A5BD"/>
<rect x="1" y="1" width="108" height="108" rx="54" stroke="#00A5BD" stroke-width="2"/>
</svg>
