<svg width="110" height="110" viewBox="0 0 110 110" fill="none" xmlns="http://www.w3.org/2000/svg">
<path d="M63.3333 86.6667C62.5556 86.6667 61.9306 86.4306 61.4583 85.9583C60.9861 85.4861 60.75 84.8611 60.75 84.0833V60.5C60.75 58.8889 61.0694 57.5833 61.7083 56.5833C62.3472 55.5833 63 54.75 63.6667 54.0833C64.3889 53.25 64.9167 52.5556 65.25 52C65.5833 51.4444 65.75 50.7778 65.75 50V46.25H63.75C63.3611 46.25 63.0417 46.125 62.7917 45.875C62.5417 45.625 62.4167 45.3333 62.4167 45C62.4167 44.6111 62.5417 44.3056 62.7917 44.0833C63.0417 43.8611 63.3611 43.75 63.75 43.75H80.4167C80.75 43.75 81.0417 43.875 81.2917 44.125C81.5417 44.375 81.6667 44.6667 81.6667 45C81.6667 45.3889 81.5417 45.6944 81.2917 45.9167C81.0417 46.1389 80.75 46.25 80.4167 46.25H78.3333V50C78.3333 50.7778 78.5139 51.4583 78.875 52.0417C79.2361 52.625 79.7778 53.3333 80.5 54.1667C81.2222 54.8333 81.875 55.6389 82.4583 56.5833C83.0417 57.5278 83.3333 58.8333 83.3333 60.5V84.0833C83.3333 84.8611 83.0972 85.4861 82.625 85.9583C82.1528 86.4306 81.5278 86.6667 80.75 86.6667H63.3333ZM63.3333 63.5H80.75V60.5C80.75 59.3333 80.4861 58.3472 79.9583 57.5417C79.4306 56.7361 78.8056 55.9167 78.0833 55.0833C77.4167 54.3056 76.8611 53.5417 76.4167 52.7917C75.9722 52.0417 75.75 51.1111 75.75 50V46.25H68.3333V50C68.3333 51.0556 68.1111 51.9722 67.6667 52.75C67.2222 53.5278 66.6667 54.3056 66 55.0833C65.2778 55.8611 64.6528 56.6806 64.125 57.5417C63.5972 58.4028 63.3333 59.3889 63.3333 60.5V63.5ZM63.3333 73.5H80.75V65.6667H63.3333V73.5ZM63.3333 84.0833H80.75V75.6667H63.3333V84.0833Z" fill="#00B16F"/>
<path d="M39.5833 86.6666L37.0833 84.7499V69.5832H29.5833C28.8611 69.5832 28.2639 69.3471 27.7917 68.8749C27.3194 68.4027 27.0833 67.8055 27.0833 67.0832V37.9166H25C24.6111 37.9166 24.3056 37.7916 24.0833 37.5416C23.8611 37.2916 23.75 36.9999 23.75 36.6666C23.75 36.2777 23.8611 35.9721 24.0833 35.7499C24.3056 35.5277 24.6111 35.4166 25 35.4166H37.0833V25.9166H33.3333C32.9444 25.9166 32.6389 25.7916 32.4167 25.5416C32.1944 25.2916 32.0833 24.9721 32.0833 24.5833C32.0833 24.2499 32.1944 23.9583 32.4167 23.7083C32.6389 23.4583 32.9444 23.3333 33.3333 23.3333H43.3333C43.7222 23.3333 44.0278 23.4583 44.25 23.7083C44.4722 23.9583 44.5833 24.2777 44.5833 24.6666C44.5833 24.9999 44.4722 25.2916 44.25 25.5416C44.0278 25.7916 43.7222 25.9166 43.3333 25.9166H39.5833V35.4166H51.6667C52.0556 35.4166 52.3611 35.5416 52.5833 35.7916C52.8056 36.0416 52.9167 36.3333 52.9167 36.6666C52.9167 37.0555 52.8056 37.361 52.5833 37.5833C52.3611 37.8055 52.0556 37.9166 51.6667 37.9166H49.5833V67.0832C49.5833 67.8055 49.3472 68.4027 48.875 68.8749C48.4028 69.3471 47.8056 69.5832 47.0833 69.5832H39.5833V86.6666ZM29.5833 67.0832H47.0833V58.5832H39.1667C38.8889 58.5832 38.6389 58.4721 38.4167 58.2499C38.1944 58.0277 38.0833 57.7777 38.0833 57.4999C38.0833 57.2221 38.1944 56.9721 38.4167 56.7499C38.6389 56.5277 38.8889 56.4166 39.1667 56.4166H47.0833V48.5833H39.1667C38.8889 48.5833 38.6389 48.4721 38.4167 48.2499C38.1944 48.0277 38.0833 47.7777 38.0833 47.4999C38.0833 47.2221 38.1944 46.9721 38.4167 46.7499C38.6389 46.5277 38.8889 46.4166 39.1667 46.4166H47.0833V37.9166H29.5833V67.0832Z" fill="#00A5BD"/>
<rect x="1" y="1" width="108" height="108" rx="54" stroke="#00A5BD" stroke-width="2"/>
</svg>
