<svg width="110" height="110" viewBox="0 0 110 110" fill="none" xmlns="http://www.w3.org/2000/svg">
<path d="M76.0827 59.0833C74.7494 60.4166 73.2632 61.3888 71.6243 61.9999C69.9855 62.611 68.3049 62.9166 66.5827 62.9166C64.8605 62.9166 63.1799 62.611 61.541 61.9999C59.9021 61.3888 58.416 60.4166 57.0827 59.0833L50.8327 52.8333C49.8327 51.7777 48.6799 50.986 47.3743 50.4583C46.0688 49.9305 44.7216 49.6666 43.3327 49.6666C41.9438 49.6666 40.5966 49.9305 39.291 50.4583C37.9855 50.986 36.8327 51.7777 35.8327 52.8333L30.9993 57.5833L29.166 55.8333L33.916 50.9166C35.2493 49.5833 36.7216 48.611 38.3327 47.9999C39.9438 47.3888 41.6105 47.0833 43.3327 47.0833C45.0549 47.0833 46.7077 47.3888 48.291 47.9999C49.8743 48.611 51.3327 49.5833 52.666 50.9166L58.916 57.1666C59.9716 58.2221 61.1521 59.0277 62.4577 59.5833C63.7632 60.1388 65.1382 60.4166 66.5827 60.4166C67.9716 60.4166 69.3049 60.1388 70.5827 59.5833C71.8605 59.0277 73.0549 58.2221 74.166 57.1666L78.9994 52.4166L80.8327 54.2499L76.0827 59.0833Z" fill="#00A5BD"/>
<path d="M76.0827 43.9168C74.7494 45.2501 73.2771 46.2362 71.666 46.8751C70.0549 47.514 68.3605 47.8334 66.5827 47.8334C64.8605 47.8334 63.1799 47.514 61.541 46.8751C59.9021 46.2362 58.416 45.2501 57.0827 43.9168L50.8327 37.6667C49.8327 36.6667 48.6799 35.9029 47.3743 35.3751C46.0688 34.8473 44.7216 34.5834 43.3327 34.5834C41.9438 34.5834 40.5966 34.8473 39.291 35.3751C37.9855 35.9029 36.8327 36.6667 35.8327 37.6667L30.9993 42.5001L29.166 40.5834L33.916 35.7501C35.2493 34.4723 36.7216 33.514 38.3327 32.8751C39.9438 32.2362 41.6105 31.9167 43.3327 31.9167C45.0549 31.9167 46.7077 32.2362 48.291 32.8751C49.8743 33.514 51.3327 34.4723 52.666 35.7501L58.916 42.0001C60.0271 43.1112 61.2216 43.9306 62.4993 44.4584C63.7771 44.9862 65.1382 45.2501 66.5827 45.2501C67.9716 45.2501 69.3049 44.9862 70.5827 44.4584C71.8605 43.9306 73.0549 43.1112 74.166 42.0001L78.9994 37.2501L80.8327 39.0834L76.0827 43.9168ZM75.9993 74.2501C74.666 75.5279 73.1938 76.4862 71.5827 77.1251C69.9716 77.764 68.3049 78.0834 66.5827 78.0834C64.8605 78.0834 63.1799 77.7501 61.541 77.0834C59.9021 76.4168 58.416 75.4445 57.0827 74.1668L50.7493 68.0001C49.7493 66.9445 48.5966 66.1529 47.291 65.6251C45.9855 65.0973 44.6382 64.8334 43.2494 64.8334C41.8605 64.8334 40.5132 65.0973 39.2077 65.6251C37.9021 66.1529 36.7493 66.9445 35.7493 68.0001L30.916 72.7501L29.166 71.0001L33.916 66.0834C35.1938 64.7501 36.6382 63.764 38.2493 63.1251C39.8605 62.4862 41.5271 62.1668 43.2494 62.1668C44.916 62.1668 46.5688 62.4862 48.2077 63.1251C49.8466 63.764 51.3327 64.7501 52.666 66.0834L58.916 72.3334C60.0271 73.389 61.2216 74.1806 62.4993 74.7084C63.7771 75.2362 65.1105 75.5001 66.4993 75.5001C67.9438 75.5001 69.3049 75.2362 70.5827 74.7084C71.8605 74.1806 73.0549 73.389 74.166 72.3334L78.9994 67.5001L80.7493 69.4168L75.9993 74.2501Z" fill="#00B16F"/>
<rect x="1" y="1" width="108" height="108" rx="54" stroke="#00A5BD" stroke-width="2"/>
</svg>
