<svg width="110" height="110" viewBox="0 0 110 110" fill="none" xmlns="http://www.w3.org/2000/svg">
<path d="M55.002 82.4166C53.6131 82.4166 52.4325 81.9444 51.4603 80.9999C50.4881 80.0555 50.002 78.861 50.002 77.4166C50.002 76.7499 50.127 76.1249 50.377 75.5416C50.627 74.9583 51.002 74.4444 51.502 73.9999C52.3908 73.111 54.2381 72.0277 57.0436 70.7499C59.8492 69.4721 62.6131 68.2499 65.3353 67.0833C64.1686 69.6944 62.9603 72.4305 61.7103 75.2916C60.4603 78.1527 59.3631 80.0277 58.4186 80.9166C57.9742 81.4166 57.4603 81.7916 56.877 82.0416C56.2936 82.2916 55.6686 82.4166 55.002 82.4166Z" fill="#00A5BD"/>
<path d="M27.584 82.4166C27.7507 78.3055 28.459 74.6388 29.709 71.4166C30.959 68.1944 32.6118 65.4444 34.6673 63.1666C36.7229 60.8888 39.0979 59.0416 41.7923 57.6249C44.4868 56.2083 47.3618 55.2499 50.4173 54.7499V43.9999C43.084 43.2221 37.584 41.3055 33.9173 38.2499C30.2507 35.1944 28.1673 31.6388 27.6673 27.5833H82.334C81.7784 31.6388 79.6812 35.1944 76.0423 38.2499C72.4034 41.3055 66.9173 43.2221 59.584 43.9999V54.7499C62.6395 55.2499 65.5145 56.2083 68.209 57.6249C70.9034 59.0416 73.2784 60.8888 75.334 63.1666C77.3895 65.4444 79.0423 68.1944 80.2923 71.4166C81.5423 74.6388 82.2507 78.3055 82.4173 82.4166H66.6673V79.8333H79.9173C78.6951 72.111 75.8201 66.361 71.2923 62.5833C66.7645 58.8055 61.334 56.9166 55.0007 56.9166C48.6673 56.9166 43.2368 58.8055 38.709 62.5833C34.1812 66.361 31.3062 72.111 30.084 79.8333H43.334V82.4166H27.584ZM55.0007 41.6666C62.4451 41.6666 68.1534 40.361 72.1257 37.7499C76.0979 35.1388 78.3895 32.611 79.0007 30.1666H31.0007C31.5562 32.611 33.834 35.1388 37.834 37.7499C41.834 40.361 47.5562 41.6666 55.0007 41.6666Z" fill="#00B16F"/>
<rect x="1" y="1" width="108" height="108" rx="54" stroke="#00A5BD" stroke-width="2"/>
</svg>
