<svg width="24" height="24" viewBox="0 0 24 24" fill="none" xmlns="http://www.w3.org/2000/svg">
<path d="M17.874 12.8777C17.9063 12.619 17.9306 12.3603 17.9306 12.0854C17.9306 11.8105 17.9063 11.5517 17.874 11.293L19.58 9.95892C19.7336 9.83764 19.774 9.61934 19.677 9.44146L18.0599 6.64392C17.9872 6.51455 17.8497 6.44178 17.7042 6.44178C17.6557 6.44178 17.6071 6.44987 17.5667 6.46604L15.5535 7.27458C15.133 6.95116 14.6802 6.68435 14.187 6.48221L13.8798 4.33959C13.8555 4.14554 13.6857 4 13.4836 4H10.2495C10.0473 4 9.87753 4.14554 9.85327 4.33959L9.54603 6.48221C9.05282 6.68435 8.60004 6.95925 8.1796 7.27458L6.16634 6.46604C6.11783 6.44987 6.06932 6.44178 6.0208 6.44178C5.88335 6.44178 5.7459 6.51455 5.67313 6.64392L4.05606 9.44146C3.95095 9.61934 3.99946 9.83764 4.15308 9.95892L5.8591 11.293C5.82676 11.5517 5.8025 11.8186 5.8025 12.0854C5.8025 12.3522 5.82676 12.619 5.8591 12.8777L4.15308 14.2118C3.99946 14.3331 3.95903 14.5514 4.05606 14.7293L5.67313 17.5268C5.7459 17.6562 5.88335 17.729 6.02889 17.729C6.0774 17.729 6.12591 17.7209 6.16634 17.7047L8.1796 16.8962C8.60004 17.2196 9.05282 17.4864 9.54603 17.6885L9.85327 19.8312C9.87753 20.0252 10.0473 20.1708 10.2495 20.1708H13.4836C13.6857 20.1708 13.8555 20.0252 13.8798 19.8312L14.187 17.6885C14.6802 17.4864 15.133 17.2115 15.5535 16.8962L17.5667 17.7047C17.6152 17.7209 17.6637 17.729 17.7123 17.729C17.8497 17.729 17.9872 17.6562 18.0599 17.5268L19.677 14.7293C19.774 14.5514 19.7336 14.3331 19.58 14.2118L17.874 12.8777ZM16.2731 11.4951C16.3054 11.7458 16.3135 11.9156 16.3135 12.0854C16.3135 12.2552 16.2973 12.433 16.2731 12.6756L16.1599 13.5893L16.8795 14.1552L17.7527 14.8344L17.1867 15.8127L16.1599 15.4004L15.319 15.0608L14.5913 15.6106C14.2436 15.8693 13.9121 16.0634 13.5806 16.2008L12.7236 16.5485L12.5942 17.4622L12.4325 18.5537H11.3006L11.1469 17.4622L11.0176 16.5485L10.1605 16.2008C9.81285 16.0553 9.48943 15.8693 9.16602 15.6268L8.43025 15.0608L7.5732 15.4085L6.54635 15.8208L5.98038 14.8425L6.8536 14.1633L7.5732 13.5973L7.46 12.6837C7.43575 12.433 7.41957 12.2471 7.41957 12.0854C7.41957 11.9237 7.43575 11.7377 7.46 11.4951L7.5732 10.5815L6.8536 10.0155L5.98038 9.33635L6.54635 8.35802L7.5732 8.77037L8.41408 9.10996L9.14176 8.56015C9.48943 8.30142 9.82093 8.10737 10.1524 7.96992L11.0095 7.62225L11.1388 6.7086L11.3006 5.61708H12.4244L12.578 6.7086L12.7074 7.62225L13.5645 7.96992C13.9121 8.11546 14.2355 8.30142 14.559 8.54398L15.2947 9.10996L16.1518 8.76229L17.1786 8.34993L17.7446 9.32826L16.8795 10.0155L16.1599 10.5815L16.2731 11.4951ZM11.8665 8.85123C10.0797 8.85123 8.63238 10.2985 8.63238 12.0854C8.63238 13.8722 10.0797 15.3195 11.8665 15.3195C13.6534 15.3195 15.1007 13.8722 15.1007 12.0854C15.1007 10.2985 13.6534 8.85123 11.8665 8.85123ZM11.8665 13.7025C10.9771 13.7025 10.2495 12.9748 10.2495 12.0854C10.2495 11.196 10.9771 10.4683 11.8665 10.4683C12.7559 10.4683 13.4836 11.196 13.4836 12.0854C13.4836 12.9748 12.7559 13.7025 11.8665 13.7025Z" fill="#FFFFFF"/>
</svg>
