<svg width="24" height="24" viewBox="0 0 24 24" fill="none" xmlns="http://www.w3.org/2000/svg">
<path d="M18.4434 12.882C18.4794 12.594 18.5064 12.306 18.5064 12C18.5064 11.694 18.4794 11.406 18.4434 11.118L20.3424 9.633C20.5134 9.498 20.5584 9.255 20.4504 9.057L18.6504 5.943C18.5694 5.799 18.4164 5.718 18.2544 5.718C18.2004 5.718 18.1464 5.727 18.1014 5.745L15.8604 6.645C15.3924 6.285 14.8884 5.988 14.3394 5.763L13.9974 3.378C13.9704 3.162 13.7814 3 13.5564 3H9.9564C9.7314 3 9.5424 3.162 9.5154 3.378L9.1734 5.763C8.6244 5.988 8.1204 6.294 7.6524 6.645L5.4114 5.745C5.3574 5.727 5.3034 5.718 5.2494 5.718C5.0964 5.718 4.9434 5.799 4.8624 5.943L3.0624 9.057C2.9454 9.255 2.9994 9.498 3.1704 9.633L5.0694 11.118C5.0334 11.406 5.0064 11.703 5.0064 12C5.0064 12.297 5.0334 12.594 5.0694 12.882L3.1704 14.367C2.9994 14.502 2.9544 14.745 3.0624 14.943L4.8624 18.057C4.9434 18.201 5.0964 18.282 5.2584 18.282C5.3124 18.282 5.3664 18.273 5.4114 18.255L7.6524 17.355C8.1204 17.715 8.6244 18.012 9.1734 18.237L9.5154 20.622C9.5424 20.838 9.7314 21 9.9564 21H13.5564C13.7814 21 13.9704 20.838 13.9974 20.622L14.3394 18.237C14.8884 18.012 15.3924 17.706 15.8604 17.355L18.1014 18.255C18.1554 18.273 18.2094 18.282 18.2634 18.282C18.4164 18.282 18.5694 18.201 18.6504 18.057L20.4504 14.943C20.5584 14.745 20.5134 14.502 20.3424 14.367L18.4434 12.882ZM16.6614 11.343C16.6974 11.622 16.7064 11.811 16.7064 12C16.7064 12.189 16.6884 12.387 16.6614 12.657L16.5354 13.674L17.3364 14.304L18.3084 15.06L17.6784 16.149L16.5354 15.69L15.5994 15.312L14.7894 15.924C14.4024 16.212 14.0334 16.428 13.6644 16.581L12.7104 16.968L12.5664 17.985L12.3864 19.2H11.1264L10.9554 17.985L10.8114 16.968L9.8574 16.581C9.4704 16.419 9.1104 16.212 8.7504 15.942L7.9314 15.312L6.9774 15.699L5.8344 16.158L5.2044 15.069L6.1764 14.313L6.9774 13.683L6.8514 12.666C6.8244 12.387 6.8064 12.18 6.8064 12C6.8064 11.82 6.8244 11.613 6.8514 11.343L6.9774 10.326L6.1764 9.696L5.2044 8.94L5.8344 7.851L6.9774 8.31L7.9134 8.688L8.7234 8.076C9.1104 7.788 9.4794 7.572 9.8484 7.419L10.8024 7.032L10.9464 6.015L11.1264 4.8H12.3774L12.5484 6.015L12.6924 7.032L13.6464 7.419C14.0334 7.581 14.3934 7.788 14.7534 8.058L15.5724 8.688L16.5264 8.301L17.6694 7.842L18.2994 8.931L17.3364 9.696L16.5354 10.326L16.6614 11.343ZM11.7564 8.4C9.7674 8.4 8.1564 10.011 8.1564 12C8.1564 13.989 9.7674 15.6 11.7564 15.6C13.7454 15.6 15.3564 13.989 15.3564 12C15.3564 10.011 13.7454 8.4 11.7564 8.4ZM11.7564 13.8C10.7664 13.8 9.9564 12.99 9.9564 12C9.9564 11.01 10.7664 10.2 11.7564 10.2C12.7464 10.2 13.5564 11.01 13.5564 12C13.5564 12.99 12.7464 13.8 11.7564 13.8Z" fill="#5D6475"/>
</svg>
