<svg width="99" height="99" viewBox="0 0 99 99" fill="none" xmlns="http://www.w3.org/2000/svg">
<path d="M49.4194 94.4284C74.2774 94.4284 94.4287 74.2771 94.4287 49.4193C94.4287 24.5614 74.2774 4.41016 49.4194 4.41016C24.5615 4.41016 4.41016 24.5614 4.41016 49.4193C4.41016 74.2771 24.5615 94.4284 49.4194 94.4284Z" stroke="#E0EAF3" stroke-width="8" stroke-miterlimit="1.5" stroke-linecap="round" stroke-linejoin="round"/>
<path d="M27.334 69.6027C31.8323 62.102 40.0445 57.0781 49.4199 57.0781C58.7953 57.0781 67.0075 62.102 71.5058 69.6027" stroke="#E0EAF3" stroke-width="8" stroke-miterlimit="1.5" stroke-linecap="round" stroke-linejoin="round"/>
<path fill-rule="evenodd" clip-rule="evenodd" d="M34.6497 29.7969C38.5838 29.7969 41.7759 32.9901 41.7759 36.9231C41.7759 40.856 38.5838 44.0493 34.6497 44.0493C30.7156 44.0493 27.5234 40.856 27.5234 36.9231C27.5234 32.9901 30.7156 29.7969 34.6497 29.7969ZM64.2289 29.7969C68.163 29.7969 71.3552 32.9901 71.3552 36.9231C71.3552 40.856 68.163 44.0493 64.2289 44.0493C60.2987 44.0493 57.1027 40.856 57.1027 36.9231C57.1027 32.9901 60.2987 29.7969 64.2289 29.7969Z" fill="#E0EAF3"/>
<path fill-rule="evenodd" clip-rule="evenodd" d="M87.9484 36.6172C87.9484 36.6172 94.7036 45.2938 94.7036 52.5031C94.7036 56.2301 91.6777 59.2556 87.9484 59.2556C84.223 59.2556 81.197 56.2301 81.197 52.5031C81.197 45.3619 87.9484 36.6172 87.9484 36.6172Z" fill="white" stroke="#E0EAF3" stroke-width="8" stroke-miterlimit="1.5" stroke-linecap="round" stroke-linejoin="round"/>
</svg>
