<svg width="14" height="14" viewBox="0 0 14 14" fill="none" xmlns="http://www.w3.org/2000/svg">
<circle cx="7" cy="7" r="7" fill="#5D6475"/>
<path d="M5.9897 8.3904C5.9897 7.85336 6.0504 7.43034 6.17179 7.12136C6.29317 6.80869 6.48997 6.53833 6.76217 6.31027C7.03437 6.08221 7.24036 5.87438 7.38014 5.68678C7.5236 5.4955 7.59533 5.28583 7.59533 5.05777C7.59533 4.50233 7.35623 4.22462 6.87804 4.22462C6.65733 4.22462 6.47893 4.30554 6.34283 4.46739C6.20673 4.62924 6.135 4.8481 6.12764 5.12398H4.2627C4.27005 4.3883 4.50179 3.81631 4.95791 3.40801C5.41403 2.99603 6.05408 2.79004 6.87804 2.79004C7.69832 2.79004 8.33285 2.97948 8.78161 3.35835C9.23405 3.73723 9.46028 4.27611 9.46028 4.97501C9.46028 5.28032 9.39958 5.55804 9.27819 5.80817C9.15681 6.0583 8.96185 6.31395 8.69333 6.57511L8.0588 7.1655C7.87856 7.33838 7.7535 7.51678 7.68361 7.7007C7.61372 7.88095 7.57509 8.11085 7.56774 8.3904H5.9897ZM5.76348 10.0678C5.76348 9.79555 5.86096 9.57301 6.05592 9.40012C6.25455 9.22356 6.501 9.13528 6.79527 9.13528C7.08955 9.13528 7.33416 9.22356 7.52911 9.40012C7.72775 9.57301 7.82707 9.79555 7.82707 10.0678C7.82707 10.34 7.72775 10.5643 7.52911 10.7409C7.33416 10.9138 7.08955 11.0002 6.79527 11.0002C6.501 11.0002 6.25455 10.9138 6.05592 10.7409C5.86096 10.5643 5.76348 10.34 5.76348 10.0678Z" fill="white"/>
</svg>
