<svg width="32" height="26" viewBox="0 0 32 26" fill="none" xmlns="http://www.w3.org/2000/svg">
<path d="M30.3046 3.86296C30.1547 3.90671 30.0048 3.94744 29.855 3.98538C28.9389 4.21653 28.8547 3.91152 29.5179 3.23859C29.815 2.93705 30.0774 2.60907 30.3053 2.25484C30.8162 1.4605 30.3731 1.11409 29.5039 1.48514C29.1938 1.61751 28.8787 1.73752 28.5591 1.84452C27.6635 2.14505 26.3926 1.6917 25.5946 1.18595C24.5871 0.547547 23.4421 0.228516 22.1593 0.228516C20.3623 0.228516 18.8307 0.861774 17.5635 2.12729C16.2967 3.39347 15.663 4.92437 15.663 6.7195C15.663 6.96501 15.677 7.21425 15.7047 7.46696C15.7502 7.8783 15.0569 8.17649 14.1214 8.04446C12.0976 7.75895 10.1748 7.1462 8.35256 6.20687C6.54539 5.27542 4.95041 4.10327 3.56791 2.69037C2.90705 2.01509 2.01325 2.07326 1.76649 2.98482C1.61865 3.53125 1.54513 4.09953 1.54513 4.68977C1.54513 5.80208 1.80653 6.8337 2.32945 7.78465C2.58951 8.25789 2.89408 8.68633 3.24383 9.06967C3.83211 9.71494 3.74209 10.0893 2.92321 9.85993C2.10467 9.63051 1.50481 9.28992 1.50481 9.31215C1.50481 9.33439 1.50481 9.35249 1.50481 9.35249C1.50481 10.9196 1.99726 12.2966 2.98276 13.4821C3.58983 14.2124 4.29509 14.7766 5.09825 15.174C5.9452 15.5932 6.33973 15.8271 5.86613 15.8883C5.58041 15.9252 5.29295 15.9437 5.00381 15.9437C4.80811 15.9437 4.60279 15.9348 4.38858 15.9167C4.04979 15.888 3.98889 16.5933 4.50253 17.386C4.91077 18.0159 5.43329 18.5701 6.06983 19.0489C6.71727 19.5361 7.41504 19.8859 8.162 20.099C9.0709 20.3578 9.2533 20.8294 8.44292 21.3149C6.43764 22.5172 4.21848 23.1183 1.78578 23.1183C1.51169 23.1183 1.25023 23.1122 1.00046 23.1002C0.566892 23.0794 0.857762 23.4609 1.69475 23.899C4.31018 25.2678 7.14256 25.9516 10.1923 25.9516C12.4981 25.9516 14.6635 25.5868 16.6883 24.8567C18.7123 24.1267 20.4422 23.1484 21.8767 21.9225C23.3112 20.6967 24.5483 19.2868 25.5875 17.6924C26.6264 16.0979 27.4005 14.4333 27.9104 12.6987C28.4195 10.9637 28.6745 9.22527 28.6745 7.48345C28.6745 7.3265 28.6732 7.18559 28.6708 7.0615C28.666 6.82829 29.2833 6.19704 29.9725 5.55115C30.2835 5.2595 30.5802 4.95343 30.8636 4.63238C31.4887 3.92347 31.2118 3.59863 30.3046 3.86296Z" fill="#00A5BD"/>
</svg>
