<svg width="50" height="64" viewBox="0 0 50 64" fill="none" xmlns="http://www.w3.org/2000/svg">
<path d="M0 16C0 8.45753 0 4.68629 2.34315 2.34315C4.68629 0 8.45753 0 16 0H36L50 14V48C50 55.5425 50 59.3137 47.6569 61.6569C45.3137 64 41.5425 64 34 64H16C8.45753 64 4.68629 64 2.34315 61.6569C0 59.3137 0 55.5425 0 48V16Z" fill="#EEBC40"/>
<path d="M36 0L50 14H44C40.2288 14 38.3431 14 37.1716 12.8284C36 11.6569 36 9.77124 36 6V0Z" fill="white" fill-opacity="0.5"/>
<g opacity="0.7">
<path d="M11.8848 29L14.3613 34.409L16.8377 29H19.5015L15.5995 36.5433V40.8608H13.123V36.5433L9.21289 29H11.8848Z" fill="white"/>
<path d="M21.4887 29H23.5579L26.6045 37.7082L29.6511 29H31.7203L27.4354 40.8608H25.7736L21.4887 29ZM20.3727 29H22.4337L22.8084 37.4883V40.8608H20.3727V29ZM30.7753 29H32.8444V40.8608H30.4006V37.4883L30.7753 29Z" fill="white"/>
<path d="M42.6248 38.9546V40.8608H36.6537V38.9546H42.6248ZM37.4438 29V40.8608H35V29H37.4438Z" fill="white"/>
</g>
</svg>
