<svg width="72" height="52" viewBox="0 0 72 52" fill="none" xmlns="http://www.w3.org/2000/svg">
<path fill-rule="evenodd" clip-rule="evenodd" d="M72 34.5C72 43.9978 64.4338 51.7283 55 51.993V52H54.5H14.5H14V51.9915C6.22339 51.728 0 45.3408 0 37.5C0 31.9716 3.09395 27.1658 7.64479 24.7196C7.22742 23.5578 7 22.3055 7 21C7 14.9249 11.9249 10 18 10C19.1165 10 20.1941 10.1663 21.2094 10.4756C24.4658 4.24921 30.9867 0 38.5 0C48.5347 0 56.7991 7.57973 57.8802 17.3262C65.9277 18.901 72 25.9914 72 34.5ZM35.2704 20.778C35.6654 20.3566 36.3344 20.3566 36.7294 20.778L49.4212 34.3159C50.02 34.9545 49.5671 35.9998 48.6917 35.9998H40.9999V51.9998H30.9999V35.9998H23.3081C22.4327 35.9998 21.9798 34.9545 22.5786 34.3159L35.2704 20.778Z" fill="#CBDFF8"/>
</svg>
