<svg width="50" height="64" viewBox="0 0 50 64" fill="none" xmlns="http://www.w3.org/2000/svg">
<path d="M0 16C0 8.45753 0 4.68629 2.34315 2.34315C4.68629 0 8.45753 0 16 0H36L50 14V48C50 55.5425 50 59.3137 47.6569 61.6569C45.3137 64 41.5425 64 34 64H16C8.45753 64 4.68629 64 2.34315 61.6569C0 59.3137 0 55.5425 0 48V16Z" fill="url(#paint0_linear_692_5986)"/>
<path d="M36 0L50 14H44C40.2288 14 38.3431 14 37.1716 12.8284C36 11.6569 36 9.77124 36 6V0Z" fill="white" fill-opacity="0.5"/>
<g opacity="0.7">
<path d="M16.5859 33.0781L18.7188 29.1562H21.4141L18.1016 34.7969L21.5 40.5312H18.7734L16.5859 36.5469L14.3984 40.5312H11.6719L15.0703 34.7969L11.7578 29.1562H14.4531L16.5859 33.0781Z" fill="white"/>
<path d="M25.5156 38.6484H29.8281V40.5312H23.1719V29.1562H25.5156V38.6484Z" fill="white"/>
<path d="M37.2031 37.5469C37.2031 37.1042 37.0469 36.7656 36.7344 36.5312C36.4219 36.2917 35.8594 36.0417 35.0469 35.7812C34.2344 35.5156 33.5911 35.2552 33.1172 35C31.8255 34.3021 31.1797 33.362 31.1797 32.1797C31.1797 31.5651 31.3516 31.0182 31.6953 30.5391C32.0443 30.0547 32.5417 29.6771 33.1875 29.4062C33.8385 29.1354 34.5677 29 35.375 29C36.1875 29 36.9115 29.1484 37.5469 29.4453C38.1823 29.737 38.6745 30.151 39.0234 30.6875C39.3776 31.224 39.5547 31.8333 39.5547 32.5156H37.2109C37.2109 31.9948 37.0469 31.5911 36.7188 31.3047C36.3906 31.013 35.9297 30.8672 35.3359 30.8672C34.763 30.8672 34.3177 30.9896 34 31.2344C33.6823 31.474 33.5234 31.7917 33.5234 32.1875C33.5234 32.5573 33.7083 32.8672 34.0781 33.1172C34.4531 33.3672 35.0026 33.6016 35.7266 33.8203C37.0599 34.2214 38.0312 34.7188 38.6406 35.3125C39.25 35.9062 39.5547 36.6458 39.5547 37.5312C39.5547 38.5156 39.1823 39.2891 38.4375 39.8516C37.6927 40.4089 36.6901 40.6875 35.4297 40.6875C34.5547 40.6875 33.7578 40.5286 33.0391 40.2109C32.3203 39.888 31.7708 39.4479 31.3906 38.8906C31.0156 38.3333 30.8281 37.6875 30.8281 36.9531H33.1797C33.1797 38.2083 33.9297 38.8359 35.4297 38.8359C35.987 38.8359 36.4219 38.724 36.7344 38.5C37.0469 38.2708 37.2031 37.9531 37.2031 37.5469Z" fill="white"/>
</g>
<defs>
<linearGradient id="paint0_linear_692_5986" x1="25" y1="0" x2="25" y2="64" gradientUnits="userSpaceOnUse">
<stop stop-color="#5EB960"/>
<stop offset="1" stop-color="#5EB54E"/>
</linearGradient>
</defs>
</svg>
