<svg width="34" height="21" viewBox="0 0 34 21" fill="none" xmlns="http://www.w3.org/2000/svg">
<path fill-rule="evenodd" clip-rule="evenodd" d="M16.7693 20.871H18.7359C19.0763 20.8311 19.3941 20.6797 19.6401 20.4401C19.8209 20.1576 19.9149 19.8279 19.9106 19.4921C19.9106 19.4921 19.871 16.5619 21.0985 16.1376C22.3128 15.7133 23.8637 18.9352 25.5136 20.1749C26.1092 20.7145 26.9084 20.9683 27.7046 20.871L32.113 20.8776C32.113 20.8776 34.4162 20.6854 33.3273 18.7032C33.2349 18.5374 32.6872 17.2314 30.0474 14.5465C27.2822 11.7423 27.6584 12.1931 30.9845 7.34031C33.0105 4.38358 33.8223 2.57374 33.5715 1.80473C33.3273 1.06886 31.849 1.19482 31.849 1.19482L26.8731 1.18819C26.65 1.1725 26.4274 1.22323 26.2329 1.33404C26.0376 1.50142 25.8877 1.71582 25.7973 1.95721C25.2901 3.42758 24.6769 4.8589 23.9627 6.23982C21.7519 10.3434 20.8676 10.5622 20.5112 10.3037C19.6665 9.71365 19.8776 7.91707 19.8776 6.64422C19.8776 2.66656 20.432 1.00257 18.8019 0.571654C18.0482 0.375653 17.2702 0.290793 16.4921 0.319735C14.7169 0.299847 13.2188 0.326364 12.3741 0.783796C11.8065 1.08875 11.371 1.75832 11.6349 1.7981C12.2124 1.85658 12.7413 2.14856 13.1 2.60689C13.6082 3.36265 13.595 5.06641 13.595 5.06641C13.595 5.06641 13.8854 9.74679 12.9086 10.3302C12.2421 10.728 11.3248 9.91253 9.35154 6.18679C8.67991 4.87201 8.08925 3.51706 7.58289 2.12957C7.49438 1.89961 7.35438 1.69319 7.17373 1.52629C6.9486 1.35886 6.68945 1.24342 6.41479 1.18819H1.69619C1.34176 1.19354 0.99967 1.31978 0.726073 1.54618C0.601255 1.83966 0.596513 2.17071 0.712874 2.46767C0.712874 2.46767 4.40196 11.9942 8.57941 16.7607C12.4137 21.1295 16.7693 20.871 16.7693 20.871Z" fill="#00A5BD"/>
</svg>
