<svg width="22" height="20" viewBox="0 0 22 20" fill="none" xmlns="http://www.w3.org/2000/svg">
<path fill-rule="evenodd" clip-rule="evenodd" d="M12.7532 1.08263C11.9002 -0.360874 9.81165 -0.360876 8.95867 1.08263L0.309838 15.7191C-0.55823 17.1882 0.50074 19.0439 2.20708 19.0439H19.5048C21.2111 19.0439 22.2701 17.1882 21.402 15.7191L12.7532 1.08263ZM10.6805 2.10008C10.7594 1.96664 10.9525 1.96664 11.0313 2.10009L19.6801 16.7366C19.7604 16.8724 19.6625 17.0439 19.5048 17.0439H2.20708C2.04934 17.0439 1.95144 16.8724 2.03169 16.7366L10.6805 2.10008ZM9.28538 7.07018C9.1877 6.26436 9.82559 5.55523 10.6481 5.55523H11.0626C11.8852 5.55523 12.523 6.26436 12.4254 7.07018L11.8789 11.5802C11.817 12.0917 11.3774 12.4767 10.8554 12.4767C10.3333 12.4767 9.89378 12.0917 9.83184 11.5802L9.28538 7.07018ZM10.8553 16.2383C11.6132 16.2383 12.2276 15.632 12.2276 14.8841C12.2276 14.1362 11.6132 13.5299 10.8553 13.5299C10.0974 13.5299 9.48305 14.1362 9.48305 14.8841C9.48305 15.632 10.0974 16.2383 10.8553 16.2383Z" fill="#EB5757"/>
</svg>
