<svg width="22" height="20" viewBox="0 0 22 20" fill="none" xmlns="http://www.w3.org/2000/svg">
<path opacity="0.2" d="M9.81964 2.25377C10.2856 1.4653 11.4264 1.4653 11.8923 2.25377L20.5411 16.8903C21.0153 17.6927 20.4368 18.7064 19.5048 18.7064H2.20712C1.27508 18.7064 0.696646 17.6927 1.1708 16.8903L9.81964 2.25377Z" fill="#F8F8F8"/>
<path fill-rule="evenodd" clip-rule="evenodd" d="M12.7532 1.56114C11.9002 0.117641 9.81165 0.117639 8.95867 1.56114L0.309838 16.1976C-0.55823 17.6667 0.50074 19.5225 2.20708 19.5225H19.5048C21.2111 19.5225 22.2701 17.6667 21.402 16.1976L12.7532 1.56114ZM10.6805 2.5786C10.7594 2.44515 10.9525 2.44515 11.0313 2.5786L19.6801 17.2151C19.7604 17.3509 19.6625 17.5225 19.5048 17.5225H2.20708C2.04934 17.5225 1.95144 17.3509 2.03169 17.2151L10.6805 2.5786ZM9.28538 7.54869C9.1877 6.74288 9.82559 6.03375 10.6481 6.03375H11.0626C11.8852 6.03375 12.523 6.74288 12.4254 7.54869L11.8789 12.0587C11.817 12.5702 11.3774 12.9552 10.8554 12.9552C10.3333 12.9552 9.89378 12.5702 9.83184 12.0587L9.28538 7.54869ZM10.8553 16.7168C11.6132 16.7168 12.2276 16.1105 12.2276 15.3626C12.2276 14.6147 11.6132 14.0084 10.8553 14.0084C10.0974 14.0084 9.48305 14.6147 9.48305 15.3626C9.48305 16.1105 10.0974 16.7168 10.8553 16.7168Z" fill="#F8F8F8"/>
</svg>
