<svg width="24" height="24" viewBox="0 0 24 24" fill="none" xmlns="http://www.w3.org/2000/svg">
<path d="M8.95199 18.7839C9.22264 18.7839 9.32414 18.6485 9.23956 18.3948L7.32807 12.1359L9.20573 6.21541C9.29031 5.96168 9.18881 5.82635 8.91816 5.82635H7.86938C7.66639 5.82635 7.54798 5.92785 7.49723 6.11392L6.21163 10.2921L4.82453 6.097C4.77379 5.91093 4.65538 5.82635 4.45239 5.82635H3.40361C3.13295 5.82635 3.04837 5.96168 3.13295 6.21541L5.2136 12.119L3.03146 18.3948C2.94688 18.6485 3.03146 18.7839 3.30211 18.7839H4.33397C4.53696 18.7839 4.65538 18.6993 4.70612 18.5132L6.21163 13.8783L7.54798 18.4963C7.59872 18.6824 7.71714 18.7839 7.93704 18.7839H8.95199ZM13.7332 18.7839C13.9531 18.7839 14.0715 18.6654 14.0715 18.4455V17.4813C14.0715 17.2614 13.9531 17.143 13.7332 17.143H12.0078V6.16467C12.0078 5.94476 11.8894 5.82635 11.6695 5.82635H10.6207C10.4008 5.82635 10.2824 5.94476 10.2824 6.16467V18.4455C10.2824 18.6654 10.4008 18.7839 10.6207 18.7839H13.7332ZM20 14.6564C20 13.2524 18.6975 12.3389 17.6487 11.5608C16.9552 11.0026 16.38 10.3429 16.38 9.61549V8.53288C16.38 6.80747 18.2746 6.80747 18.2746 8.53288V10.0046C18.2746 10.2245 18.393 10.3429 18.6129 10.3429H19.6617C19.8816 10.3429 20 10.2245 20 10.0046V8.31297C20 6.50298 19.1035 5.60645 17.3273 5.60645C15.771 5.60645 14.6546 6.50298 14.6546 8.31297V9.93689C14.6546 11.3747 15.974 12.4573 16.989 13.3031C17.7164 13.8952 18.2746 14.4872 18.2746 15.0116V16.0773C18.2746 17.8027 16.38 17.8027 16.38 16.0773V14.7917C16.38 14.5718 16.2616 14.4534 16.0417 14.4534H14.9929C14.773 14.4534 14.6546 14.5718 14.6546 14.7917V16.2972C14.6546 18.0734 15.6865 19.0038 17.3273 19.0038C18.9681 19.0038 20 18.1072 20 16.2972V14.6564Z" fill="#5D6475"/>
</svg>
