<svg width="24" height="24" viewBox="0 0 24 24" fill="none" xmlns="http://www.w3.org/2000/svg">
<path d="M5.48591 18.0759C5.70783 18.0759 5.82732 17.9564 5.82732 17.7345V13.5181L7.92698 5.37555C7.99526 5.11949 7.89283 5 7.63678 5H6.57841C6.39064 5 6.25408 5.10242 6.20287 5.30727L4.95673 10.9234L3.74473 5.30727C3.69352 5.10242 3.55696 5 3.36918 5H2.31082C2.05476 5 1.95234 5.11949 2.02062 5.37555L4.08614 13.5352V17.7345C4.08614 17.9564 4.20563 18.0759 4.42755 18.0759H5.48591ZM16.4682 18.0759C16.6901 18.0759 16.8096 17.9564 16.8096 17.7345V5.34141C16.8096 5.11949 16.6901 5 16.4682 5H14.3173C14.0954 5 13.9759 5.10242 13.9418 5.30727L12.542 14.1156L11.1422 5.30727C11.1081 5.10242 10.9886 5 10.7667 5H8.61582C8.3939 5 8.27441 5.11949 8.27441 5.34141V17.7345C8.27441 17.9564 8.3939 18.0759 8.61582 18.0759H9.67418C9.89609 18.0759 10.0156 17.9564 10.0156 17.7345L9.98145 8.31165L11.7056 17.7686C11.7397 17.9735 11.8592 18.0759 12.064 18.0759H13.02C13.2248 18.0759 13.3443 17.9735 13.3785 17.7686L15.1026 8.29458L15.0684 17.7345C15.0684 17.9564 15.1879 18.0759 15.4098 18.0759H16.4682ZM21.6586 18.0759C21.8805 18.0759 22 17.9564 22 17.7345V16.7615C22 16.5396 21.8805 16.4201 21.6586 16.4201H19.9174V5.34141C19.9174 5.11949 19.7979 5 19.576 5H18.5176C18.2957 5 18.1762 5.11949 18.1762 5.34141V17.7345C18.1762 17.9564 18.2957 18.0759 18.5176 18.0759H21.6586Z" fill="#0961B6"/>
</svg>
