<svg width="0" height="0" class="hidden">
  <symbol fill="none" xmlns="http://www.w3.org/2000/svg" viewBox="0 0 8 4" id="arrow-ios-bottom">
    <path fill-rule="evenodd" clip-rule="evenodd" d="M4.51872e-07 0.571127C4.57517e-07 0.441987 0.0434298 0.312276 0.132574 0.205421C0.334291 -0.0368593 0.694866 -0.0694299 0.937155 0.13228L4.00633 2.68994L7.07037 0.224278C7.31609 0.0265682 7.67609 0.0654245 7.87381 0.311133C8.07153 0.557414 8.03267 0.916834 7.78695 1.11512L4.35834 3.87391C4.14634 4.04419 3.84348 4.04191 3.63433 3.86763L0.205718 1.01055C0.0702872 0.897406 4.44704e-07 0.735124 4.51872e-07 0.571127Z" fill="#A9B4BF"></path>
  </symbol>
  <symbol xmlns="http://www.w3.org/2000/svg" viewBox="0 0 24 24" id="arrow-ios-right">
    <path fill-rule="evenodd" clip-rule="evenodd" d="M10.3925 16.5C10.2472 16.5 10.1013 16.4511 9.9811 16.3509C9.70853 16.1239 9.67189 15.7183 9.89882 15.4457L12.7762 11.9929L10.0023 8.54583C9.77989 8.2694 9.8236 7.86439 10.1 7.64196C10.3771 7.41953 10.7814 7.46325 11.0045 7.73968L14.1082 11.5969C14.2997 11.8354 14.2971 12.1761 14.1011 12.4114L10.8869 16.2686C10.7596 16.4209 10.577 16.5 10.3925 16.5"></path>
  </symbol>
  <symbol xmlns="http://www.w3.org/2000/svg" viewBox="0 0 16 16" id="arrow-ios-top">
    <path fill-rule="evenodd" clip-rule="evenodd" d="M12.6672 9.33367C12.6672 9.48434 12.6165 9.63567 12.5125 9.76034C12.2772 10.043 11.8565 10.081 11.5739 9.84567L7.9932 6.86167L4.41854 9.73834C4.13187 9.969 3.71187 9.92367 3.4812 9.637C3.25054 9.34967 3.29587 8.93034 3.58254 8.699L7.58254 5.48034C7.82987 5.28167 8.1832 5.28434 8.4272 5.48767L12.4272 8.821C12.5852 8.953 12.6672 9.14234 12.6672 9.33367Z"></path>
    <path fill-rule="evenodd" clip-rule="evenodd" d="M12.6672 9.33367C12.6672 9.48434 12.6165 9.63567 12.5125 9.76034C12.2772 10.043 11.8565 10.081 11.5739 9.84567L7.9932 6.86167L4.41854 9.73834C4.13187 9.969 3.71187 9.92367 3.4812 9.637C3.25054 9.34967 3.29587 8.93034 3.58254 8.699L7.58254 5.48034C7.82987 5.28167 8.1832 5.28434 8.4272 5.48767L12.4272 8.821C12.5852 8.953 12.6672 9.14234 12.6672 9.33367Z"></path>
  </symbol>
  <symbol xmlns="http://www.w3.org/2000/svg" viewBox="0 0 24 24" id="audit">
    <path d="M2 19.99L9.5 12.48L13.5 16.48L20.59 8.51001L22 9.92001L13.5 19.48L9.5 15.48L3.5 21.49L2 19.99ZM3.5 15.49L9.5 9.48001L13.5 13.48L22 3.92001L20.59 2.51001L13.5 10.48L9.5 6.48001L2 13.99L3.5 15.49Z"></path>
  </symbol>
  <symbol xmlns="http://www.w3.org/2000/svg" viewBox="0 0 24 24" id="back">
    <path d="M20 11H7.83L13.42 5.41L12 4L4 12L12 20L13.41 18.59L7.83 13H20V11Z"></path>
  </symbol>
  <symbol xmlns="http://www.w3.org/2000/svg" viewBox="0 0 24 24" id="bubbles">
    <path d="M7 10C4.79 10 3 11.79 3 14C3 16.21 4.79 18 7 18C9.21 18 11 16.21 11 14C11 11.79 9.21 10 7 10ZM7 16C5.9 16 5 15.1 5 14C5 12.9 5.9 12 7 12C8.1 12 9 12.9 9 14C9 15.1 8.1 16 7 16ZM15.01 15C13.36 15 12.01 16.35 12.01 18C12.01 19.65 13.36 21 15.01 21C16.66 21 18.01 19.65 18.01 18C18.01 16.35 16.66 15 15.01 15ZM15.01 19C14.46 19 14.01 18.55 14.01 18C14.01 17.45 14.46 17 15.01 17C15.56 17 16.01 17.45 16.01 18C16.01 18.55 15.56 19 15.01 19ZM16.5 3C13.47 3 11 5.47 11 8.5C11 11.53 13.47 14 16.5 14C19.53 14 22 11.53 22 8.5C22 5.47 19.53 3 16.5 3ZM16.5 12C14.57 12 13 10.43 13 8.5C13 6.57 14.57 5 16.5 5C18.43 5 20 6.57 20 8.5C20 10.43 18.43 12 16.5 12Z"></path>
  </symbol>
  <symbol xmlns="http://www.w3.org/2000/svg" viewBox="0 0 24 24" id="cart">
    <path d="M15.55 13C16.3 13 16.96 12.59 17.3 11.97L20.88 5.48C21.25 4.82 20.77 4 20.01 4H5.21L4.27 2H1V4H3L6.6 11.59L5.25 14.03C4.52 15.37 5.48 17 7 17H19V15H7L8.1 13H15.55ZM6.16 6H18.31L15.55 11H8.53L6.16 6ZM7 18C5.9 18 5.01 18.9 5.01 20C5.01 21.1 5.9 22 7 22C8.1 22 9 21.1 9 20C9 18.9 8.1 18 7 18ZM17 18C15.9 18 15.01 18.9 15.01 20C15.01 21.1 15.9 22 17 22C18.1 22 19 21.1 19 20C19 18.9 18.1 18 17 18Z"></path>
  </symbol>
  <symbol xmlns="http://www.w3.org/2000/svg" viewBox="0 0 24 24" id="catalog">
    <path d="M12 2L6.5 11H17.5L12 2ZM12 5.84L13.93 9H10.06L12 5.84ZM17.5 13C15.01 13 13 15.01 13 17.5C13 19.99 15.01 22 17.5 22C19.99 22 22 19.99 22 17.5C22 15.01 19.99 13 17.5 13ZM17.5 20C16.12 20 15 18.88 15 17.5C15 16.12 16.12 15 17.5 15C18.88 15 20 16.12 20 17.5C20 18.88 18.88 20 17.5 20ZM3 21.5H11V13.5H3V21.5ZM5 15.5H9V19.5H5V15.5Z"></path>
  </symbol>
  <symbol xmlns="http://www.w3.org/2000/svg" viewBox="0 0 24 24" id="close">
    <path d="M19 6.41L17.59 5L12 10.59L6.41 5L5 6.41L10.59 12L5 17.59L6.41 19L12 13.41L17.59 19L19 17.59L13.41 12L19 6.41Z"></path>
  </symbol>
  <symbol fill="none" xmlns="http://www.w3.org/2000/svg" viewBox="0 0 12 12" id="cross-red">
    <path d="M11.25 1.8075L10.1925 0.75L6 4.9425L1.8075 0.75L0.75 1.8075L4.9425 6L0.75 10.1925L1.8075 11.25L6 7.0575L10.1925 11.25L11.25 10.1925L7.0575 6L11.25 1.8075Z" fill="#D14343"></path>
  </symbol>
  <symbol fill="none" xmlns="http://www.w3.org/2000/svg" viewBox="0 0 24 24" id="delete">
    <path d="M16 9V19H8V9H16ZM14.5 3H9.5L8.5 4H5V6H19V4H15.5L14.5 3ZM18 7H6V19C6 20.1 6.9 21 8 21H16C17.1 21 18 20.1 18 19V7Z" fill="white"></path>
  </symbol>
  <symbol fill="none" xmlns="http://www.w3.org/2000/svg" viewBox="0 0 24 24" id="delete-btn">
    <path d="M16 9V19H8V9H16ZM14.5 3H9.5L8.5 4H5V6H19V4H15.5L14.5 3ZM18 7H6V19C6 20.1 6.9 21 8 21H16C17.1 21 18 20.1 18 19V7Z" fill="white"></path>
  </symbol>
  <symbol xmlns="http://www.w3.org/2000/svg" viewBox="0 0 24 24" id="delivery">
    <path d="M20 8H17V4H3C1.9 4 1 4.9 1 6V17H3C3 18.66 4.34 20 6 20C7.66 20 9 18.66 9 17H15C15 18.66 16.34 20 18 20C19.66 20 21 18.66 21 17H23V12L20 8ZM19.5 9.5L21.46 12H17V9.5H19.5ZM6 18C5.45 18 5 17.55 5 17C5 16.45 5.45 16 6 16C6.55 16 7 16.45 7 17C7 17.55 6.55 18 6 18ZM8.22 15C7.67 14.39 6.89 14 6 14C5.11 14 4.33 14.39 3.78 15H3V6H15V15H8.22ZM18 18C17.45 18 17 17.55 17 17C17 16.45 17.45 16 18 16C18.55 16 19 16.45 19 17C19 17.55 18.55 18 18 18Z"></path>
  </symbol>
  <symbol xmlns="http://www.w3.org/2000/svg" viewBox="0 0 24 24" id="doc">
    <path fill-rule="evenodd" clip-rule="evenodd" d="M12.4997 14H9.4997C8.9477 14 8.4997 13.552 8.4997 13C8.4997 12.448 8.9477 12 9.4997 12H12.4997C13.0517 12 13.4997 12.448 13.4997 13C13.4997 13.552 13.0517 14 12.4997 14ZM8.4997 17C8.4997 16.448 8.9477 16 9.4997 16H15.4997C16.0527 16 16.4997 16.448 16.4997 17C16.4997 17.552 16.0527 18 15.4997 18H9.4997C8.9477 18 8.4997 17.552 8.4997 17ZM17.944 20H7.055C6.749 20 6.5 19.776 6.5 19.5V4.5C6.5 4.224 6.749 4 7.055 4H12.5V7.15C12.5 8.722 13.717 10 15.214 10H18.5V19.5C18.5 19.776 18.251 20 17.944 20ZM14.5 4.978L17.242 8H15.214C14.82 8 14.5 7.619 14.5 7.15V4.978ZM20.24 8.328L14.796 2.328C14.606 2.119 14.338 2 14.055 2H7.055C5.646 2 4.5 3.122 4.5 4.5V19.5C4.5 20.878 5.646 22 7.055 22H17.944C19.353 22 20.5 20.878 20.5 19.5V9C20.5 8.751 20.407 8.512 20.24 8.328Z"></path>
  </symbol>
  <symbol xmlns="http://www.w3.org/2000/svg" viewBox="0 0 24 24" id="email">
    <path fill-rule="evenodd" clip-rule="evenodd" d="M19 18H5C4.449 18 4 17.552 4 17V7.25L11.4 12.8C11.578 12.934 11.789 13 12 13C12.211 13 12.422 12.934 12.6 12.8L20 7.25V17C20 17.552 19.551 18 19 18ZM18.333 6L12 10.75L5.667 6H18.333ZM19 4H5C3.346 4 2 5.346 2 7V17C2 18.654 3.346 20 5 20H19C20.654 20 22 18.654 22 17V7C22 5.346 20.654 4 19 4Z"></path>
  </symbol>
  <symbol fill="none" xmlns="http://www.w3.org/2000/svg" viewBox="0 0 24 24" id="edit">
    <path d="M3 10H14V12H3V10ZM3 8H14V6H3V8ZM3 16H10V14H3V16ZM18.01 12.87L18.72 12.16C19.11 11.77 19.74 11.77 20.13 12.16L20.84 12.87C21.23 13.26 21.23 13.89 20.84 14.28L20.13 14.99L18.01 12.87ZM17.3 13.58L12 18.88V21H14.12L19.42 15.7L17.3 13.58Z"></path>
  </symbol>
  <symbol xmlns="http://www.w3.org/2000/svg" viewBox="0 0 24 24" id="exchange">
    <path d="M17 4H20V20H17V4ZM5 14H8V20H5V14ZM11 9H14V20H11V9Z"></path>
  </symbol>
  <symbol xmlns="http://www.w3.org/2000/svg" viewBox="0 0 24 24" id="favorite">
    <path fill-rule="evenodd" clip-rule="evenodd" d="M7.222 6C6.358 6 5.548 6.334 4.942 6.941C3.684 8.201 3.684 10.252 4.943 11.514L12.002 18.585L19.062 11.514C20.321 10.252 20.321 8.201 19.062 6.941C17.85 5.726 15.714 5.728 14.502 6.941L12.71 8.736C12.334 9.113 11.67 9.113 11.294 8.736L9.502 6.94C8.896 6.334 8.087 6 7.222 6ZM12.002 21C11.737 21 11.482 20.895 11.295 20.706L3.527 12.926C1.491 10.886 1.491 7.567 3.527 5.527C4.511 4.543 5.823 4 7.222 4C8.621 4 9.934 4.543 10.917 5.527L12.002 6.614L13.087 5.528C14.071 4.543 15.383 4 16.783 4C18.181 4 19.494 4.543 20.477 5.527C22.514 7.567 22.514 10.886 20.478 12.926L12.71 20.707C12.522 20.895 12.268 21 12.002 21Z"></path>
  </symbol>
  <symbol fill="none" xmlns="http://www.w3.org/2000/svg" viewBox="0 0 24 24" id="filter">
    <path d="M10 18H14V16H10V18ZM3 6V8H21V6H3ZM6 13H18V11H6V13Z" fill="white"></path>
  </symbol>
  <symbol fill="none" xmlns="http://www.w3.org/2000/svg" viewBox="0 0 24 24" id="favorite-active">
    <path fill-rule="evenodd" clip-rule="evenodd" d="M11.295 20.706C11.482 20.895 11.737 21 12.002 21C12.268 21 12.522 20.895 12.71 20.707L20.478 12.926C22.514 10.886 22.514 7.567 20.477 5.527C19.494 4.543 18.181 4 16.783 4C15.383 4 14.071 4.543 13.087 5.528L12.002 6.614L10.917 5.527C9.934 4.543 8.621 4 7.222 4C5.823 4 4.511 4.543 3.527 5.527C1.491 7.567 1.491 10.886 3.527 12.926L11.295 20.706Z" fill="#00A5BD"></path>
  </symbol>
  <symbol fill="none" xmlns="http://www.w3.org/2000/svg" viewBox="0 0 20 20" id="info">
    <path fill-rule="evenodd" clip-rule="evenodd" d="M10 18C14.4183 18 18 14.4183 18 10C18 5.58172 14.4183 2 10 2C5.58172 2 2 5.58172 2 10C2 14.4183 5.58172 18 10 18ZM10 6C9.44772 6 9 6.44772 9 7C9 7.55228 9.44772 8 10 8C10.5523 8 11 7.55228 11 7C11 6.44772 10.5523 6 10 6ZM10 14C10.5523 14 11 13.5523 11 13V10C11 9.44772 10.5523 9 10 9C9.44772 9 9 9.44771 9 10L9 13C9 13.5523 9.44772 14 10 14Z" fill="#00B16F"></path>
  </symbol>
  <symbol xmlns="http://www.w3.org/2000/svg" viewBox="0 0 24 24" id="help">
    <path d="M11 18H13V16H11V18ZM12 2C6.48 2 2 6.48 2 12C2 17.52 6.48 22 12 22C17.52 22 22 17.52 22 12C22 6.48 17.52 2 12 2ZM12 20C7.59 20 4 16.41 4 12C4 7.59 7.59 4 12 4C16.41 4 20 7.59 20 12C20 16.41 16.41 20 12 20ZM12 6C9.79 6 8 7.79 8 10H10C10 8.9 10.9 8 12 8C13.1 8 14 8.9 14 10C14 12 11 11.75 11 15H13C13 12.75 16 12.5 16 10C16 7.79 14.21 6 12 6Z"></path>
  </symbol>
  <symbol xmlns="http://www.w3.org/2000/svg" viewBox="0 0 24 24" id="islam">
    <path d="M24 7C24 5.9 22 4 22 4C22 4 20 5.9 20 7C20 7.74 20.4 8.38 21 8.72V13H19V11C19 10.05 18.34 9.26 17.45 9.06C17.79 8.48 18 7.81 18 7.09C18 5.78 17.35 4.56 16.26 3.84L12 1L7.74 3.84C6.65 4.56 6 5.78 6 7.09C6 7.81 6.21 8.48 6.55 9.05C5.66 9.26 5 10.05 5 11V13H3V8.72C3.6 8.38 4 7.74 4 7C4 5.9 2 4 2 4C2 4 0 5.9 0 7C0 7.74 0.4 8.38 1 8.72V21H11V17C11 16.45 11.45 16 12 16C12.55 16 13 16.45 13 17V21H23V8.72C23.6 8.38 24 7.74 24 7ZM8.85 5.5L12 3.4L15.15 5.5C15.68 5.86 16 6.45 16 7.09C16 8.14 15.14 9 14.09 9H9.91C8.86 9 8 8.14 8 7.09C8 6.45 8.32 5.86 8.85 5.5ZM21 19H15V17C15 15.35 13.65 14 12 14C10.35 14 9 15.35 9 17V19H3V15H7V11H17V15H21V19Z"></path>
  </symbol>
  <symbol xmlns="http://www.w3.org/2000/svg" viewBox="0 0 24 24" id="hamburger">
    <path d="M3 18H21V16H3V18ZM3 13H21V11H3V13ZM3 6V8H21V6H3Z"></path>
  </symbol>
  <symbol xmlns="http://www.w3.org/2000/svg" viewBox="0 0 24 24" id="message">
    <path fill-rule="evenodd" clip-rule="evenodd" d="M7.0002 10.9993C7.0002 10.4473 7.4482 9.99927 8.0002 9.99927C8.5522 9.99927 9.0002 10.4473 9.0002 10.9993C9.0002 11.5513 8.5522 11.9993 8.0002 11.9993C7.4482 11.9993 7.0002 11.5513 7.0002 10.9993ZM12.0002 9.99927C11.4482 9.99927 11.0002 10.4473 11.0002 10.9993C11.0002 11.5513 11.4482 11.9993 12.0002 11.9993C12.5522 11.9993 13.0002 11.5513 13.0002 10.9993C13.0002 10.4473 12.5522 9.99927 12.0002 9.99927ZM16.0002 9.99927C15.4482 9.99927 15.0002 10.4473 15.0002 10.9993C15.0002 11.5513 15.4482 11.9993 16.0002 11.9993C16.5522 11.9993 17.0002 11.5513 17.0002 10.9993C17.0002 10.4473 16.5522 9.99927 16.0002 9.99927ZM19.8986 12.2942C19.3916 15.5482 16.7686 18.2472 13.5196 18.8562C11.9506 19.1522 10.3526 18.9832 8.9026 18.3692C8.4916 18.1952 8.0666 18.1072 7.6496 18.1072C7.4596 18.1072 7.2716 18.1252 7.0866 18.1622L4.2746 18.7242L4.8376 15.9072C4.9556 15.3222 4.8836 14.6962 4.6306 14.0972C4.0166 12.6472 3.8486 11.0502 4.1436 9.48017C4.7526 6.23117 7.4506 3.60817 10.7056 3.10117C13.2956 2.69817 15.8286 3.51417 17.6566 5.34217C19.4856 7.17117 20.3026 9.70517 19.8986 12.2942ZM19.0716 3.92817C16.7866 1.64417 13.6266 0.625171 10.3976 1.12417C6.3206 1.76017 2.9406 5.04417 2.1776 9.11117C1.8096 11.0692 2.0216 13.0632 2.7886 14.8762C2.8856 15.1072 2.9156 15.3222 2.8776 15.5152L2.0196 19.8032C1.9536 20.1312 2.0566 20.4702 2.2936 20.7062C2.4826 20.8962 2.7376 20.9992 3.0006 20.9992C3.0656 20.9992 3.1306 20.9932 3.1966 20.9802L7.4796 20.1232C7.7256 20.0762 7.9636 20.1452 8.1226 20.2112C9.9376 20.9782 11.9316 21.1892 13.8876 20.8222C17.9556 20.0592 21.2396 16.6792 21.8756 12.6022C22.3776 9.37517 21.3566 6.21317 19.0716 3.92817Z"></path>
    <path fill-rule="evenodd" clip-rule="evenodd" d="M7.0002 10.9993C7.0002 10.4473 7.4482 9.99927 8.0002 9.99927C8.5522 9.99927 9.0002 10.4473 9.0002 10.9993C9.0002 11.5513 8.5522 11.9993 8.0002 11.9993C7.4482 11.9993 7.0002 11.5513 7.0002 10.9993ZM12.0002 9.99927C11.4482 9.99927 11.0002 10.4473 11.0002 10.9993C11.0002 11.5513 11.4482 11.9993 12.0002 11.9993C12.5522 11.9993 13.0002 11.5513 13.0002 10.9993C13.0002 10.4473 12.5522 9.99927 12.0002 9.99927ZM16.0002 9.99927C15.4482 9.99927 15.0002 10.4473 15.0002 10.9993C15.0002 11.5513 15.4482 11.9993 16.0002 11.9993C16.5522 11.9993 17.0002 11.5513 17.0002 10.9993C17.0002 10.4473 16.5522 9.99927 16.0002 9.99927ZM19.8986 12.2942C19.3916 15.5482 16.7686 18.2472 13.5196 18.8562C11.9506 19.1522 10.3526 18.9832 8.9026 18.3692C8.4916 18.1952 8.0666 18.1072 7.6496 18.1072C7.4596 18.1072 7.2716 18.1252 7.0866 18.1622L4.2746 18.7242L4.8376 15.9072C4.9556 15.3222 4.8836 14.6962 4.6306 14.0972C4.0166 12.6472 3.8486 11.0502 4.1436 9.48017C4.7526 6.23117 7.4506 3.60817 10.7056 3.10117C13.2956 2.69817 15.8286 3.51417 17.6566 5.34217C19.4856 7.17117 20.3026 9.70517 19.8986 12.2942ZM19.0716 3.92817C16.7866 1.64417 13.6266 0.625171 10.3976 1.12417C6.3206 1.76017 2.9406 5.04417 2.1776 9.11117C1.8096 11.0692 2.0216 13.0632 2.7886 14.8762C2.8856 15.1072 2.9156 15.3222 2.8776 15.5152L2.0196 19.8032C1.9536 20.1312 2.0566 20.4702 2.2936 20.7062C2.4826 20.8962 2.7376 20.9992 3.0006 20.9992C3.0656 20.9992 3.1306 20.9932 3.1966 20.9802L7.4796 20.1232C7.7256 20.0762 7.9636 20.1452 8.1226 20.2112C9.9376 20.9782 11.9316 21.1892 13.8876 20.8222C17.9556 20.0592 21.2396 16.6792 21.8756 12.6022C22.3776 9.37517 21.3566 6.21317 19.0716 3.92817Z"></path>
  </symbol>
  <symbol xmlns="http://www.w3.org/2000/svg" viewBox="0 0 24 24" id="library">
    <mask id="mask0_2290_43369" maskUnits="userSpaceOnUse" x="0" y="0" width="24" height="24">
      <rect width="24" height="24"></rect>
    </mask>
    <path d="M10 14H14V12H10V14ZM10 11H18V9H10V11ZM10 8H18V6H10V8ZM8 18C7.45 18 6.97933 17.8043 6.588 17.413C6.196 17.021 6 16.55 6 16V4C6 3.45 6.196 2.979 6.588 2.587C6.97933 2.19567 7.45 2 8 2H20C20.55 2 21.021 2.19567 21.413 2.587C21.8043 2.979 22 3.45 22 4V16C22 16.55 21.8043 17.021 21.413 17.413C21.021 17.8043 20.55 18 20 18H8ZM8 16H20V4H8V16ZM4 22C3.45 22 2.97933 21.8043 2.588 21.413C2.196 21.021 2 20.55 2 20V6H4V20H18V22H4Z"></path>
  </symbol>
  <symbol xmlns="http://www.w3.org/2000/svg" viewBox="0 0 25 24" id="minus">
    <path d="M17.2266 11H7.22656V13H17.2266V11Z"></path>
  </symbol>
  <symbol xmlns="http://www.w3.org/2000/svg" viewBox="0 0 24 24" id="more-vertical">
    <path fill-rule="evenodd" clip-rule="evenodd" d="M12 7C13.104 7 14 6.104 14 5C14 3.896 13.104 3 12 3C10.896 3 10 3.896 10 5C10 6.104 10.896 7 12 7ZM12 10C10.896 10 10 10.896 10 12C10 13.104 10.896 14 12 14C13.104 14 14 13.104 14 12C14 10.896 13.104 10 12 10ZM10 19C10 17.896 10.896 17 12 17C13.104 17 14 17.896 14 19C14 20.104 13.104 21 12 21C10.896 21 10 20.104 10 19Z"></path>
  </symbol>
  <symbol xmlns="http://www.w3.org/2000/svg" viewBox="0 0 24 24" id="person">
    <path fill-rule="evenodd" clip-rule="evenodd" d="M14 7C14 5.897 13.103 5 12 5C10.897 5 10 5.897 10 7C10 8.103 10.897 9 12 9C13.103 9 14 8.103 14 7ZM16 7C16 9.206 14.206 11 12 11C9.794 11 8 9.206 8 7C8 4.794 9.794 3 12 3C14.206 3 16 4.794 16 7ZM5 20C5 16.14 8.141 13 12 13C15.859 13 19 16.14 19 20C19 20.552 18.553 21 18 21C17.447 21 17 20.552 17 20C17 17.243 14.757 15 12 15C9.243 15 7 17.243 7 20C7 20.552 6.553 21 6 21C5.447 21 5 20.552 5 20Z"></path>
  </symbol>
  <symbol xmlns="http://www.w3.org/2000/svg" viewBox="0 0 24 24" id="news">
    <path d="M19 5V19H5V5H19ZM19 3H5C3.9 3 3 3.9 3 5V19C3 20.1 3.9 21 5 21H19C20.1 21 21 20.1 21 19V5C21 3.9 20.1 3 19 3Z"></path>
    <path d="M14 17H7V15H14V17ZM17 13H7V11H17V13ZM17 9H7V7H17V9Z"></path>
  </symbol>
  <symbol xmlns="http://www.w3.org/2000/svg" viewBox="0 0 24 24" id="phone">
    <path fill-rule="evenodd" clip-rule="evenodd" d="M9.5 6H14.5C15.053 6 15.5 6.447 15.5 7C15.5 7.553 15.053 8 14.5 8H9.5C8.947 8 8.5 7.553 8.5 7C8.5 6.447 8.947 6 9.5 6ZM10.5 16.5C10.5 15.672 11.172 15 12 15C12.828 15 13.5 15.672 13.5 16.5C13.5 17.328 12.828 18 12 18C11.172 18 10.5 17.328 10.5 16.5ZM18 19C18 19.552 17.552 20 17 20H7C6.448 20 6 19.552 6 19V5C6 4.448 6.448 4 7 4H17C17.552 4 18 4.448 18 5V19ZM17 2H7C5.346 2 4 3.346 4 5V19C4 20.654 5.346 22 7 22H17C18.654 22 20 20.654 20 19V5C20 3.346 18.654 2 17 2Z"></path>
  </symbol>
  <symbol xmlns="http://www.w3.org/2000/svg" viewBox="0 0 24 24" id="pin">
    <path fill-rule="evenodd" clip-rule="evenodd" d="M12 10.9995C11.173 10.9995 10.5 10.3265 10.5 9.4995C10.5 8.6725 11.173 7.9995 12 7.9995C12.827 7.9995 13.5 8.6725 13.5 9.4995C13.5 10.3265 12.827 10.9995 12 10.9995ZM12 5.9995C10.07 5.9995 8.5 7.5695 8.5 9.4995C8.5 11.4295 10.07 12.9995 12 12.9995C13.93 12.9995 15.5 11.4295 15.5 9.4995C15.5 7.5695 13.93 5.9995 12 5.9995ZM12 19.646C10.325 18.062 6 13.615 6 9.922C6 6.657 8.691 4 12 4C15.309 4 18 6.657 18 9.922C18 13.615 13.675 18.062 12 19.646ZM12 2C7.589 2 4 5.553 4 9.922C4 15.397 11.049 21.501 11.349 21.758C11.537 21.919 11.768 22 12 22C12.232 22 12.463 21.919 12.651 21.758C12.951 21.501 20 15.397 20 9.922C20 5.553 16.411 2 12 2Z"></path>
  </symbol>
  <symbol xmlns="http://www.w3.org/2000/svg" viewBox="0 0 25 24" id="plus">
    <path d="M11.2266 11L11.2266 7H13.2266V11H17.2266V13H13.2266V17H11.2266L11.2266 13H7.22656V11H11.2266Z"></path>
  </symbol>
  <symbol xmlns="http://www.w3.org/2000/svg" viewBox="0 0 24 24" id="responded">
    <path fill-rule="evenodd" clip-rule="evenodd" d="M6.87087 12.7997H11.9999C12.2839 12.7997 12.5549 12.9207 12.7439 13.1317C12.9329 13.3427 13.0239 13.6247 12.9939 13.9067L12.5449 18.0567L17.1289 11.1997H11.9999C11.7159 11.1997 11.4449 11.0787 11.2559 10.8677C11.0659 10.6567 10.9749 10.3747 11.0059 10.0927L11.4549 5.94374L6.87087 12.7997ZM11.1109 22.9997C10.9969 22.9997 10.8819 22.9807 10.7689 22.9397C10.3369 22.7817 10.0669 22.3497 10.1169 21.8927L10.8859 14.7997H4.99987C4.63087 14.7997 4.29187 14.5967 4.11787 14.2717C3.94387 13.9457 3.96387 13.5507 4.16887 13.2437L12.0579 1.44474C12.3129 1.06074 12.7969 0.902737 13.2299 1.06074C13.6629 1.21774 13.9329 1.65074 13.8829 2.10774L13.1139 9.19974H18.9999C19.3689 9.19974 19.7079 9.40374 19.8819 9.72874C20.0559 10.0547 20.0359 10.4487 19.8309 10.7557L11.9419 22.5557C11.7529 22.8397 11.4369 22.9997 11.1109 22.9997Z"></path>
  </symbol>
  <symbol xmlns="http://www.w3.org/2000/svg" viewBox="0 0 24 24" id="search">
    <path fill-rule="evenodd" clip-rule="evenodd" d="M5 11C5 7.691 7.691 5 11 5C14.309 5 17 7.691 17 11C17 14.309 14.309 17 11 17C7.691 17 5 14.309 5 11ZM20.707 19.293L17.312 15.897C18.365 14.543 19 12.846 19 11C19 6.589 15.411 3 11 3C6.589 3 3 6.589 3 11C3 15.411 6.589 19 11 19C12.846 19 14.543 18.365 15.897 17.312L19.293 20.707C19.488 20.902 19.744 21 20 21C20.256 21 20.512 20.902 20.707 20.707C21.098 20.316 21.098 19.684 20.707 19.293Z"></path>
  </symbol>
  <symbol xmlns="http://www.w3.org/2000/svg" viewBox="0 0 24 24" id="settings">
    <path d="M19.6407 12.98C19.6818 12.66 19.7127 12.34 19.7127 12C19.7127 11.66 19.6818 11.34 19.6407 11.02L21.8099 9.37C22.0052 9.22 22.0566 8.95 21.9333 8.73L19.8772 5.27C19.7846 5.11 19.6099 5.02 19.4248 5.02C19.3631 5.02 19.3014 5.03 19.25 5.05L16.6902 6.05C16.1556 5.65 15.5799 5.32 14.9528 5.07L14.5621 2.42C14.5313 2.18 14.3154 2 14.0584 2H9.94616C9.68915 2 9.47326 2.18 9.44242 2.42L9.05176 5.07C8.42464 5.32 7.84894 5.66 7.31435 6.05L4.7545 5.05C4.69281 5.03 4.63113 5.02 4.56945 5.02C4.39468 5.02 4.21991 5.11 4.12738 5.27L2.07128 8.73C1.93763 8.95 1.99931 9.22 2.19464 9.37L4.36384 11.02C4.32271 11.34 4.29187 11.67 4.29187 12C4.29187 12.33 4.32271 12.66 4.36384 12.98L2.19464 14.63C1.99931 14.78 1.94791 15.05 2.07128 15.27L4.12738 18.73C4.21991 18.89 4.39468 18.98 4.57973 18.98C4.64141 18.98 4.70309 18.97 4.7545 18.95L7.31435 17.95C7.84894 18.35 8.42464 18.68 9.05176 18.93L9.44242 21.58C9.47326 21.82 9.68915 22 9.94616 22H14.0584C14.3154 22 14.5313 21.82 14.5621 21.58L14.9528 18.93C15.5799 18.68 16.1556 18.34 16.6902 17.95L19.25 18.95C19.3117 18.97 19.3734 18.98 19.4351 18.98C19.6099 18.98 19.7846 18.89 19.8772 18.73L21.9333 15.27C22.0566 15.05 22.0052 14.78 21.8099 14.63L19.6407 12.98ZM17.6052 11.27C17.6463 11.58 17.6566 11.79 17.6566 12C17.6566 12.21 17.636 12.43 17.6052 12.73L17.4612 13.86L18.3762 14.56L19.4865 15.4L18.7669 16.61L17.4612 16.1L16.3921 15.68L15.4668 16.36C15.0247 16.68 14.6032 16.92 14.1817 17.09L13.092 17.52L12.9275 18.65L12.7219 20H11.2826L11.0873 18.65L10.9228 17.52L9.83308 17.09C9.39102 16.91 8.97979 16.68 8.56857 16.38L7.63304 15.68L6.54331 16.11L5.23768 16.62L4.51804 15.41L5.62834 14.57L6.54331 13.87L6.39938 12.74C6.36854 12.43 6.34798 12.2 6.34798 12C6.34798 11.8 6.36854 11.57 6.39938 11.27L6.54331 10.14L5.62834 9.44L4.51804 8.6L5.23768 7.39L6.54331 7.9L7.61248 8.32L8.53773 7.64C8.97979 7.32 9.4013 7.08 9.8228 6.91L10.9125 6.48L11.077 5.35L11.2826 4H12.7116L12.907 5.35L13.0714 6.48L14.1612 6.91C14.6032 7.09 15.0145 7.32 15.4257 7.62L16.3612 8.32L17.451 7.89L18.7566 7.38L19.4762 8.59L18.3762 9.44L17.4612 10.14L17.6052 11.27ZM12.0023 8C9.73027 8 7.89006 9.79 7.89006 12C7.89006 14.21 9.73027 16 12.0023 16C14.2743 16 16.1145 14.21 16.1145 12C16.1145 9.79 14.2743 8 12.0023 8ZM12.0023 14C10.8714 14 9.94616 13.1 9.94616 12C9.94616 10.9 10.8714 10 12.0023 10C13.1331 10 14.0584 10.9 14.0584 12C14.0584 13.1 13.1331 14 12.0023 14Z"></path>
  </symbol>
  <symbol fill="none" xmlns="http://www.w3.org/2000/svg" viewBox="0 0 24 24" id="telegram">
    <path d="M9.84765 14.9845L9.51682 19.6378C9.99015 19.6378 10.1952 19.4345 10.441 19.1903L12.6602 17.0695L17.2585 20.437C18.1018 20.907 18.696 20.6595 18.9235 19.6612L21.9418 5.51784L21.9427 5.517C22.2102 4.27034 21.4918 3.78284 20.6702 4.08867L2.92848 10.8812C1.71765 11.3512 1.73598 12.0262 2.72265 12.332L7.25848 13.7428L17.7943 7.15034C18.2901 6.82201 18.741 7.00367 18.3701 7.332L9.84765 14.9845Z" fill="#00B16F"></path>
  </symbol>
  <symbol fill="none" xmlns="http://www.w3.org/2000/svg" viewBox="0 0 20 20" id="whatsapp">
    <path fill-rule="evenodd" clip-rule="evenodd" d="M9.9975 0H10.0025C15.5162 0 20 4.48625 20 10C20 15.5137 15.5162 20 10.0025 20C7.96875 20 6.0825 19.395 4.50125 18.3475L0.6575 19.5763L1.90375 15.8613C0.705 14.215 0 12.1875 0 10C0 4.485 4.48375 0 9.9975 0ZM13.8587 15.5323C14.6225 15.3673 15.58 14.8023 15.8212 14.1211C16.0625 13.4386 16.0625 12.8573 15.9925 12.7336C15.9359 12.6354 15.8023 12.5711 15.6027 12.475C15.5508 12.45 15.4944 12.4228 15.4337 12.3923C15.14 12.2461 13.7112 11.5398 13.4412 11.4461C13.1762 11.3461 12.9237 11.3811 12.7237 11.6636C12.6857 11.7169 12.6477 11.7702 12.61 11.8233C12.3687 12.1627 12.1359 12.49 11.9425 12.6986C11.7662 12.8861 11.4787 12.9098 11.2375 12.8098C11.2112 12.7989 11.181 12.7867 11.1472 12.7731C10.7653 12.6188 9.91803 12.2766 8.89246 11.3636C8.02746 10.5936 7.43996 9.63485 7.26996 9.34735C7.10305 9.05894 7.24702 8.88982 7.38008 8.73352C7.38254 8.73062 7.385 8.72773 7.38746 8.72485C7.47325 8.6187 7.5565 8.53031 7.64016 8.44149C7.70035 8.37759 7.76075 8.31347 7.82246 8.24235C7.83162 8.23178 7.84054 8.22153 7.84922 8.21155C7.98025 8.06089 8.05828 7.97117 8.14621 7.7836C8.24621 7.58985 8.17496 7.38985 8.10371 7.24235C8.05469 7.13905 7.75188 6.40435 7.49192 5.77362C7.38067 5.50369 7.27726 5.2528 7.20496 5.0786C7.01121 4.61485 6.86371 4.59735 6.56996 4.58485C6.56096 4.5844 6.55187 4.58394 6.54268 4.58347C6.44983 4.57877 6.34757 4.5736 6.23496 4.5736C5.85246 4.5736 5.45371 4.6861 5.21246 4.93235C5.20403 4.94096 5.19524 4.94989 5.18612 4.95917C4.87748 5.27306 4.18996 5.97228 4.18996 7.3661C4.18996 8.7626 5.18083 10.1141 5.36417 10.3642C5.36923 10.3711 5.37367 10.3771 5.37746 10.3823C5.38849 10.3968 5.40928 10.4269 5.43954 10.4708C5.8139 11.0129 7.63725 13.6534 10.3562 14.7798C12.6537 15.7323 13.3362 15.6436 13.8587 15.5323Z" fill="#00B16F"></path>
  </symbol>
</svg>